Recursive-Sans Casual SemiBold.ufo
<glyph name="exclam" format="2">
  <advance width="350.0"/>
  <unicode hex="0021"/>
  <outline>
    <contour>
      <point x="222.13207547169813" y="275.37735849056605" type="line"/>
      <point x="235.5" y="344.1792452830189"/>
      <point x="245.99056603773585" y="442.52830188679246"/>
      <point x="245.99056603773585" y="511.7452830188679" type="curve"/>
      <point x="245.99056603773585" y="651.2358490566038" type="line" smooth="yes"/>
      <point x="245.99056603773585" y="692.5094339622641"/>
      <point x="204.32075471698116" y="710.0"/>
      <point x="148.6509433962264" y="710.0" type="curve"/>
      <point x="127.16037735849058" y="710.0"/>
      <point x="110.50000000000001" y="708.7075471698113"/>
      <point x="91.59433962264151" y="703.5849056603773" type="curve"/>
      <point x="99.4245283018868" y="667.5849056603773"/>
      <point x="102.83962264150944" y="632.0471698113207"/>
      <point x="102.83962264150944" y="592.9245283018868" type="curve" smooth="yes"/>
      <point x="102.83962264150944" y="515.6981132075472" type="line"/>
      <point x="102.83962264150944" y="415.9339622641509"/>
      <point x="113.20754716981133" y="321.94339622641513"/>
      <point x="131.11320754716982" y="301.99056603773585" type="curve" smooth="yes"/>
      <point x="146.60377358490567" y="284.74528301886795"/>
      <point x="172.2924528301887" y="275.37735849056605"/>
      <point x="210.3490566037736" y="275.37735849056605" type="curve"/>
    </contour>
    <component base="period"/>
  </outline>
</glyph>
<glyph name="dollar" format="2">
  <advance width="600.0"/>
  <unicode hex="0024"/>
  <outline>
    <contour>
      <point x="300.0" y="-17.660377358490564" type="curve" smooth="yes"/>
      <point x="461.3018867924528" y="-17.660377358490564"/>
      <point x="549.4716981132076" y="66.32075471698113"/>
      <point x="549.4716981132076" y="176.73584905660377" type="curve" smooth="yes"/>
      <point x="549.4716981132076" y="189.5188679245283" type="line" smooth="yes"/>
      <point x="549.4716981132076" y="261.5188679245283"/>
      <point x="510.0849056603774" y="322.0566037735849"/>
      <point x="385.688679245283" y="367.42452830188677" type="curve" smooth="yes"/>
      <point x="294.3207547169811" y="400.54716981132077" type="line" smooth="yes"/>
      <point x="215.5754716981132" y="429.5188679245283"/>
      <point x="189.52830188679243" y="453.7358490566038"/>
      <point x="189.52830188679243" y="494.2169811320755" type="curve" smooth="yes"/>
      <point x="189.52830188679243" y="498.50943396226415" type="line" smooth="yes"/>
      <point x="189.52830188679243" y="561.8679245283018"/>
      <point x="288.6698113207547" y="599.2452830188679"/>
      <point x="377.29245283018867" y="599.2452830188679" type="curve" smooth="yes"/>
      <point x="440.0471698113207" y="599.2452830188679"/>
      <point x="477.4622641509434" y="586.3679245283018"/>
      <point x="510.92452830188677" y="561.245283018868" type="curve"/>
      <point x="516.9245283018868" y="561.245283018868" type="line"/>
      <point x="527.4150943396226" y="583.1037735849058"/>
      <point x="532.6603773584906" y="605.3773584905659"/>
      <point x="532.6603773584906" y="624.5754716981132" type="curve" smooth="yes"/>
      <point x="532.6603773584906" y="646.8962264150944"/>
      <point x="530.6603773584906" y="666.3867924528303"/>
      <point x="512.0471698113207" y="685.0" type="curve" smooth="yes"/>
      <point x="492.2169811320755" y="705.122641509434"/>
      <point x="441.0943396226415" y="720.0"/>
      <point x="370.21698113207543" y="720.0" type="curve" smooth="yes"/>
      <point x="205.26415094339623" y="720.0"/>
      <point x="75.84905660377359" y="620.3207547169811"/>
      <point x="75.84905660377359" y="498.7547169811321" type="curve" smooth="yes"/>
      <point x="75.84905660377359" y="486.6320754716981" type="line" smooth="yes"/>
      <point x="75.84905660377359" y="420.12264150943395"/>
      <point x="107.40566037735849" y="355.5566037735849"/>
      <point x="257.5566037735849" y="299.89622641509436" type="curve" smooth="yes"/>
      <point x="347.8018867924528" y="266.4811320754717" type="line" smooth="yes"/>
      <point x="411.3301886792453" y="243.3867924528302"/>
      <point x="442.4528301886793" y="211.58490566037736"/>
      <point x="443.622641509434" y="167.98113207547172" type="curve" smooth="yes"/>
      <point x="443.622641509434" y="162.10377358490567" type="line" smooth="yes"/>
      <point x="415.7169811320755" y="125.52830188679245"/>
      <point x="363.16037735849056" y="103.0943396226415"/>
      <point x="300.0" y="103.0943396226415" type="curve" smooth="yes"/>
      <point x="195.87735849056602" y="103.0943396226415"/>
      <point x="124.38679245283019" y="133.50943396226415"/>
      <point x="70.60377358490567" y="192.26415094339623" type="curve"/>
      <point x="64.60377358490567" y="192.26415094339623" type="line"/>
      <point x="60.60377358490567" y="177.8490566037736"/>
      <point x="57.89622641509435" y="159.77358490566036"/>
      <point x="57.89622641509435" y="137.5754716981132" type="curve" smooth="yes"/>
      <point x="57.89622641509435" y="92.56603773584906"/>
      <point x="69.80188679245283" y="59.632075471698116"/>
      <point x="88.4622641509434" y="40.971698113207545" type="curve" smooth="yes"/>
      <point x="123.67924528301887" y="5.754716981132076"/>
      <point x="205.87735849056602" y="-17.660377358490564"/>
    </contour>
    <contour>
      <point x="357.22641509433964" y="430.05660377358487" type="curve"/>
      <point x="379.37735849056605" y="533.2075471698113"/>
      <point x="403.16037735849056" y="667.7735849056604"/>
      <point x="426.4811320754717" y="786.4245283018868" type="curve" smooth="yes"/>
      <point x="440.09433962264154" y="849.4811320754717"/>
      <point x="415.52830188679246" y="885.0"/>
      <point x="353.688679245283" y="885.0" type="curve" smooth="yes"/>
      <point x="338.7358490566038" y="885.0"/>
      <point x="318.8301886792453" y="881.5849056603773"/>
      <point x="305.04716981132077" y="876.754716981132" type="curve"/>
      <point x="314.5849056603774" y="849.2169811320754"/>
      <point x="321.122641509434" y="822.9716981132076"/>
      <point x="319.122641509434" y="780.5566037735849" type="curve" smooth="yes"/>
      <point x="314.5377358490566" y="678.2452830188679"/>
      <point x="310.07547169811323" y="555.6320754716982"/>
      <point x="306.3679245283019" y="472.9150943396226" type="curve" smooth="yes"/>
      <point x="306.07547169811323" y="458.45283018867923"/>
      <point x="312.70754716981133" y="447.74528301886795"/>
      <point x="323.1698113207547" y="441.37735849056605" type="curve" smooth="yes"/>
      <point x="331.122641509434" y="434.3018867924529"/>
      <point x="343.61320754716985" y="430.05660377358487"/>
    </contour>
    <contour>
      <point x="273.26415094339626" y="239.8490566037736" type="curve"/>
      <point x="250.6509433962264" y="127.66037735849058"/>
      <point x="226.28301886792454" y="-4.122641509433969"/>
      <point x="205.4245283018868" y="-96.4245283018868" type="curve" smooth="yes"/>
      <point x="190.81132075471697" y="-159.48113207547172"/>
      <point x="216.37735849056602" y="-195.0"/>
      <point x="278.2169811320755" y="-195.0" type="curve" smooth="yes"/>
      <point x="293.87735849056605" y="-195.0"/>
      <point x="313.07547169811323" y="-191.58490566037736"/>
      <point x="326.85849056603774" y="-186.75471698113208" type="curve"/>
      <point x="317.3207547169812" y="-159.21698113207546"/>
      <point x="311.49056603773585" y="-132.97169811320754"/>
      <point x="312.78301886792457" y="-90.5566037735849" type="curve" smooth="yes"/>
      <point x="316.66037735849056" y="5.2924528301886795"/>
      <point x="321.41509433962267" y="121.32075471698114"/>
      <point x="324.122641509434" y="196.99056603773585" type="curve" smooth="yes"/>
      <point x="324.41509433962267" y="211.45283018867923"/>
      <point x="318.07547169811323" y="222.16037735849056"/>
      <point x="307.02830188679246" y="228.52830188679246" type="curve" smooth="yes"/>
      <point x="298.3679245283019" y="236.31132075471697"/>
      <point x="286.87735849056605" y="239.8490566037736"/>
    </contour>
  </outline>
</glyph>
<glyph name="quotesingle" format="2">
  <advance width="350.0"/>
  <unicode hex="0027"/>
  <outline>
    <contour>
      <point x="224.54716981132077" y="443.66037735849056" type="curve"/>
      <point x="236.2075471698113" y="656.3018867924528" type="line" smooth="yes"/>
      <point x="240.74528301886792" y="723.1415094339623"/>
      <point x="207.05660377358492" y="753.7075471698113"/>
      <point x="131.82075471698113" y="753.7075471698113" type="curve" smooth="yes"/>
      <point x="117.5754716981132" y="753.7075471698113"/>
      <point x="104.33018867924527" y="752.7075471698113"/>
      <point x="90.08490566037736" y="750.0" type="curve"/>
      <point x="98.20754716981132" y="726.7547169811321"/>
      <point x="103.20754716981132" y="700.9716981132076"/>
      <point x="106.62264150943396" y="649.5566037735849" type="curve" smooth="yes"/>
      <point x="116.33018867924528" y="492.9339622641509" type="line" smooth="yes"/>
      <point x="118.74528301886794" y="454.0754716981132"/>
      <point x="135.77358490566039" y="439.4150943396226"/>
      <point x="180.2924528301887" y="439.4150943396226" type="curve" smooth="yes"/>
      <point x="197.4433962264151" y="439.4150943396226"/>
      <point x="213.05660377358492" y="440.8301886792453"/>
    </contour>
  </outline>
</glyph>
<glyph name="comma" format="2">
  <advance width="350.0"/>
  <unicode hex="002C"/>
  <outline>
    <contour>
      <point x="100.9245283018868" y="-204.1509433962264" type="curve" smooth="yes"/>
      <point x="120.58490566037736" y="-204.1509433962264"/>
      <point x="132.2924528301887" y="-198.85849056603774"/>
      <point x="142.70754716981133" y="-185.9811320754717" type="curve" smooth="yes"/>
      <point x="194.56603773584905" y="-121.4433962264151"/>
      <point x="241.00943396226413" y="7.2924528301886795"/>
      <point x="241.00943396226413" y="99.29245283018867" type="curve" smooth="yes"/>
      <point x="241.00943396226415" y="153.34905660377356"/>
      <point x="213.32075471698113" y="173.37735849056602"/>
      <point x="166.31132075471697" y="173.37735849056602" type="curve" smooth="yes"/>
      <point x="144.82075471698113" y="173.37735849056602"/>
      <point x="129.2830188679245" y="171.37735849056602"/>
      <point x="105.25471698113209" y="165.37735849056602" type="curve"/>
      <point x="105.25471698113208" y="22.81132075471698"/>
      <point x="81.83962264150944" y="-84.38679245283018"/>
      <point x="35.424528301886795" y="-173.2169811320755" type="curve"/>
      <point x="54.33018867924529" y="-193.66037735849056"/>
      <point x="76.06603773584905" y="-204.1509433962264"/>
    </contour>
  </outline>
</glyph>
<glyph name="period" format="2">
  <advance width="350.0"/>
  <unicode hex="002E"/>
  <outline>
    <contour>
      <point x="250.25471698113205" y="1.1698113207547174" type="curve"/>
      <point x="250.25471698113205" y="92.5754716981132" type="line" smooth="yes"/>
      <point x="250.25471698113205" y="156.29245283018867"/>
      <point x="222.56603773584905" y="174.12264150943395"/>
      <point x="174.75471698113205" y="174.12264150943395" type="curve" smooth="yes"/>
      <point x="145.72641509433964" y="174.12264150943395"/>
      <point x="121.82075471698113" y="168.0"/>
      <point x="99.74528301886792" y="158.46226415094338" type="curve"/>
      <point x="99.74528301886792" y="81.30188679245283" type="line" smooth="yes"/>
      <point x="99.74528301886792" y="5.754716981132076"/>
      <point x="130.8490566037736" y="-9.245283018867923"/>
      <point x="190.4433962264151" y="-9.245283018867923" type="curve" smooth="yes"/>
      <point x="213.22641509433961" y="-9.245283018867923"/>
      <point x="231.17924528301887" y="-6.245283018867924"/>
    </contour>
  </outline>
</glyph>
<glyph name="four" format="2">
  <advance width="600.0"/>
  <unicode hex="0034"/>
  <outline>
    <contour>
      <point x="400.2924528301887" y="711.7547169811321" type="curve" smooth="yes"/>
      <point x="361.4811320754717" y="711.7547169811321"/>
      <point x="337.3301886792453" y="701.9716981132075"/>
      <point x="285.74528301886795" y="649.2169811320755" type="curve" smooth="yes"/>
      <point x="162.43396226415092" y="522.3962264150944"/>
      <point x="43.509433962264154" y="341.7264150943396"/>
      <point x="43.509433962264154" y="256.60377358490564" type="curve" smooth="yes"/>
      <point x="43.509433962264154" y="244.52830188679246" type="line"/>
      <point x="43.509433962264154" y="185.7358490566038"/>
      <point x="65.83018867924528" y="150.0"/>
      <point x="106.47169811320755" y="150.0" type="curve" smooth="yes"/>
      <point x="564.4150943396227" y="150.0" type="line"/>
      <point x="567.5377358490566" y="162.07547169811323"/>
      <point x="569.2452830188679" y="176.27358490566036"/>
      <point x="569.2452830188679" y="192.7641509433962" type="curve" smooth="yes"/>
      <point x="569.2452830188679" y="237.94339622641508"/>
      <point x="558.0" y="270.75471698113205"/>
      <point x="519.433962264151" y="270.75471698113205" type="curve"/>
      <point x="310.1132075471698" y="270.75471698113205" type="line" smooth="yes"/>
      <point x="236.5" y="270.75471698113205"/>
      <point x="190.37735849056605" y="265.21698113207543"/>
      <point x="135.77358490566036" y="240.52830188679246" type="curve"/>
      <point x="153.0188679245283" y="230.4056603773585" type="line"/>
      <point x="153.0188679245283" y="283.5849056603774" type="line"/>
      <point x="139.77358490566036" y="228.72641509433964" type="line"/>
      <point x="225.6132075471698" y="406.77358490566036"/>
      <point x="375.5849056603774" y="584.5566037735848"/>
      <point x="517.8301886792452" y="671.2358490566038" type="curve"/>
      <point x="517.8301886792452" y="677.2358490566038" type="line"/>
      <point x="497.92452830188677" y="698.2641509433962"/>
      <point x="456.9150943396226" y="711.7547169811321"/>
    </contour>
    <contour>
      <point x="405.8490566037736" y="406.25471698113205" type="curve"/>
      <point x="384.62264150943395" y="360.87735849056605"/>
      <point x="363.39622641509436" y="249.4245283018868"/>
      <point x="363.3962264150943" y="199.7075471698113" type="curve" smooth="yes"/>
      <point x="363.3962264150943" y="162.0188679245283"/>
      <point x="363.3962264150943" y="99.93396226415095"/>
      <point x="363.3962264150943" y="59.32075471698113" type="curve" smooth="yes"/>
      <point x="363.3962264150943" y="19.273584905660375"/>
      <point x="387.00943396226415" y="-8.584905660377359"/>
      <point x="458.12264150943395" y="-8.584905660377359" type="curve" smooth="yes"/>
      <point x="473.9056603773585" y="-8.584905660377359"/>
      <point x="488.9811320754717" y="-6.169811320754717"/>
      <point x="500.6415094339623" y="-1.7547169811320753" type="curve"/>
      <point x="493.5188679245283" y="25.660377358490567"/>
      <point x="491.22641509433964" y="56.367924528301884"/>
      <point x="491.22641509433964" y="95.75471698113208" type="curve" smooth="yes"/>
      <point x="491.22641509433964" y="353.2452830188679" type="line"/>
      <point x="491.22641509433964" y="384.0566037735849"/>
      <point x="459.8301886792453" y="406.25471698113205"/>
      <point x="412.72641509433964" y="406.25471698113205" type="curve"/>
      <point x="410.433962264151" y="406.25471698113205"/>
      <point x="408.14150943396226" y="406.25471698113205"/>
    </contour>
  </outline>
</glyph>
<glyph name="five" format="2">
  <advance width="600.0"/>
  <unicode hex="0035"/>
  <outline>
    <contour>
      <point x="99.89622641509435" y="700.0" type="curve"/>
      <point x="96.4811320754717" y="689.0471698113207"/>
      <point x="93.77358490566039" y="670.1415094339623"/>
      <point x="93.77358490566039" y="648.5283018867925" type="curve" smooth="yes"/>
      <point x="93.77358490566039" y="590.4905660377358"/>
      <point x="110.26415094339623" y="579.245283018868"/>
      <point x="155.85849056603774" y="579.245283018868" type="curve" smooth="yes"/>
      <point x="199.1132075471698" y="579.245283018868"/>
      <point x="504.27358490566036" y="579.245283018868"/>
      <point x="517.1037735849058" y="579.245283018868" type="curve"/>
      <point x="519.811320754717" y="591.4905660377359"/>
      <point x="522.933962264151" y="613.7641509433963"/>
      <point x="522.933962264151" y="630.8396226415094" type="curve" smooth="yes"/>
      <point x="522.933962264151" y="674.1415094339623"/>
      <point x="503.49056603773585" y="700.0"/>
      <point x="448.35849056603774" y="700.0" type="curve"/>
      <point x="394.9811320754717" y="700.0"/>
      <point x="112.01886792452831" y="700.0"/>
    </contour>
    <contour>
      <point x="157.09433962264148" y="624.0566037735849" type="line"/>
      <point x="136.6320754716981" y="562.5849056603773"/>
      <point x="121.70754716981132" y="500.18867924528297"/>
      <point x="92.9245283018868" y="322.9245283018868" type="curve" smooth="yes"/>
      <point x="89.21698113207547" y="300.26415094339626"/>
      <point x="106.29245283018868" y="288.7735849056604"/>
      <point x="159.47169811320754" y="288.7735849056604" type="curve" smooth="yes"/>
      <point x="208.31132075471695" y="288.7735849056604" type="line"/>
      <point x="230.72641509433961" y="288.7735849056604"/>
      <point x="250.4056603773585" y="288.77358490566036"/>
      <point x="279.62264150943395" y="288.77358490566036" type="curve" smooth="yes"/>
      <point x="372.1698113207547" y="288.4811320754717"/>
      <point x="429.6981132075472" y="260.6320754716981"/>
      <point x="452.40566037735846" y="208.3490566037736" type="curve" smooth="yes"/>
      <point x="452.40566037735846" y="203.0566037735849" type="line" smooth="yes"/>
      <point x="452.40566037735846" y="144.82075471698113"/>
      <point x="391.77358490566036" y="100.75471698113208"/>
      <point x="285.14150943396226" y="100.75471698113208" type="curve" smooth="yes"/>
      <point x="192.04716981132077" y="100.75471698113208"/>
      <point x="127.21698113207549" y="126.55660377358491"/>
      <point x="68.60377358490567" y="176.7452830188679" type="curve"/>
      <point x="62.60377358490566" y="176.7452830188679" type="line"/>
      <point x="59.60377358490566" y="166.03773584905662"/>
      <point x="57.89622641509435" y="149.96226415094338"/>
      <point x="57.89622641509435" y="131.47169811320754" type="curve" smooth="yes"/>
      <point x="57.89622641509435" y="94.02830188679246"/>
      <point x="67.14150943396227" y="62.29245283018868"/>
      <point x="92.26415094339623" y="37.16981132075472" type="curve" smooth="yes"/>
      <point x="121.63207547169812" y="7.80188679245283"/>
      <point x="189.75471698113208" y="-20.0"/>
      <point x="300.0" y="-20.0" type="curve" smooth="yes"/>
      <point x="460.0566037735849" y="-20.0"/>
      <point x="542.3962264150944" y="63.02830188679245"/>
      <point x="542.3962264150944" y="182.19811320754718" type="curve" smooth="yes"/>
      <point x="542.3962264150944" y="194.56603773584905" type="line" smooth="yes"/>
      <point x="542.3962264150944" y="313.10377358490564"/>
      <point x="452.0849056603774" y="383.47169811320754"/>
      <point x="328.9716981132076" y="383.47169811320754" type="curve" smooth="yes"/>
      <point x="279.60377358490564" y="383.47169811320754"/>
      <point x="242.60377358490564" y="376.22641509433964"/>
      <point x="192.2641509433962" y="353.02830188679246" type="curve"/>
      <point x="249.75471698113205" y="365.39622641509436" type="line"/>
      <point x="186.5566037735849" y="365.39622641509436" type="line"/>
      <point x="210.50943396226415" y="339.9339622641509" type="line"/>
      <point x="218.8490566037736" y="388.122641509434"/>
      <point x="228.82075471698113" y="450.64150943396226"/>
      <point x="239.33018867924528" y="506.14150943396226" type="curve" smooth="yes"/>
      <point x="244.03773584905662" y="533.8018867924528"/>
      <point x="241.91509433962264" y="554.1698113207547"/>
      <point x="227.8396226415094" y="573.9528301886792" type="curve"/>
      <point x="233.50000000000003" y="624.0566037735849" type="line"/>
    </contour>
  </outline>
</glyph>
<glyph name="nine" format="2">
  <advance width="600.0"/>
  <unicode hex="0039"/>
  <outline>
    <contour>
      <point x="290.29245283018867" y="720.0" type="curve" smooth="yes"/>
      <point x="151.80188679245285" y="720.0"/>
      <point x="56.72641509433962" y="617.3396226415094"/>
      <point x="56.72641509433962" y="461.1698113207547" type="curve" smooth="yes"/>
      <point x="56.72641509433962" y="456.87735849056605" type="line" smooth="yes"/>
      <point x="56.72641509433962" y="320.0754716981132"/>
      <point x="139.97169811320754" y="254.76415094339623"/>
      <point x="248.7924528301887" y="254.76415094339623" type="curve" smooth="yes"/>
      <point x="320.37735849056605" y="254.76415094339623"/>
      <point x="392.8867924528302" y="282.88679245283015"/>
      <point x="428.0283018867924" y="350.9150943396226" type="curve"/>
      <point x="384.6132075471698" y="325.08490566037733" type="line"/>
      <point x="455.79245283018867" y="325.08490566037733" type="line"/>
      <point x="455.79245283018867" y="410.0188679245283" type="line"/>
      <point x="400.0849056603774" y="380.41509433962267"/>
      <point x="340.11320754716985" y="364.1981132075471"/>
      <point x="282.04716981132077" y="364.1981132075471" type="curve" smooth="yes"/>
      <point x="247.39622641509433" y="364.1981132075471"/>
      <point x="214.66981132075472" y="373.58490566037733"/>
      <point x="191.8679245283019" y="389.066037735849" type="curve" smooth="yes"/>
      <point x="180.6509433962264" y="409.5"/>
      <point x="177.48113207547172" y="431.6415094339623"/>
      <point x="177.48113207547172" y="465.49056603773585" type="curve" smooth="yes"/>
      <point x="177.48113207547172" y="471.49056603773585" type="line" smooth="yes"/>
      <point x="177.48113207547172" y="549.132075471698"/>
      <point x="218.5943396226415" y="606.4905660377359"/>
      <point x="302.5377358490566" y="606.4905660377359" type="curve" smooth="yes"/>
      <point x="332.3867924528302" y="606.4905660377359"/>
      <point x="357.4339622641509" y="601.7358490566038"/>
      <point x="382.6509433962264" y="590.3018867924528" type="curve" smooth="yes"/>
      <point x="405.1792452830189" y="559.6981132075472"/>
      <point x="419.3962264150943" y="493.04716981132077"/>
      <point x="419.3962264150943" y="399.5943396226415" type="curve" smooth="yes"/>
      <point x="419.3962264150943" y="392.00943396226415" type="line" smooth="yes"/>
      <point x="419.3962264150943" y="269.5"/>
      <point x="400.88679245283015" y="185.82075471698113"/>
      <point x="367.20754716981133" y="125.89622641509433" type="curve" smooth="yes"/>
      <point x="331.7452830188679" y="108.80188679245282"/>
      <point x="291.6509433962264" y="100.75471698113206"/>
      <point x="244.8490566037736" y="100.75471698113206" type="curve" smooth="yes"/>
      <point x="185.46226415094338" y="100.75471698113206"/>
      <point x="142.16981132075472" y="112.80188679245282"/>
      <point x="96.55660377358491" y="140.31132075471697" type="curve"/>
      <point x="90.55660377358491" y="140.31132075471697" type="line"/>
      <point x="87.55660377358491" y="127.35849056603773"/>
      <point x="85.84905660377359" y="114.28301886792453"/>
      <point x="85.84905660377359" y="95.08490566037736" type="curve" smooth="yes"/>
      <point x="85.84905660377359" y="49.075471698113205"/>
      <point x="99.4622641509434" y="27.87735849056604"/>
      <point x="114.04716981132076" y="13.29245283018868" type="curve" smooth="yes"/>
      <point x="128.92452830188677" y="-1.584905660377359"/>
      <point x="167.18867924528303" y="-20.0"/>
      <point x="247.50943396226415" y="-20.0" type="curve" smooth="yes"/>
      <point x="416.48113207547175" y="-20.0"/>
      <point x="542.9811320754717" y="67.4245283018868"/>
      <point x="542.9811320754717" y="375.3207547169811" type="curve" smooth="yes"/>
      <point x="542.9811320754717" y="382.9056603773585" type="line" smooth="yes"/>
      <point x="542.9811320754717" y="619.4905660377359"/>
      <point x="443.5094339622641" y="720.0"/>
    </contour>
  </outline>
</glyph>
<glyph name="less" format="2">
  <advance width="600.0"/>
  <unicode hex="003C"/>
  <outline>
    <contour>
      <point x="68.58490566037736" y="327.8301886792453" type="curve"/>
      <point x="68.58490566037736" y="317.95283018867923"/>
      <point x="68.58490566037736" y="307.7830188679245"/>
      <point x="68.58490566037736" y="297.90566037735846" type="curve" smooth="yes"/>
      <point x="68.58490566037736" y="272.8301886792453"/>
      <point x="74.04716981132076" y="258.2924528301887"/>
      <point x="110.61320754716981" y="224.60377358490567" type="curve" smooth="yes"/>
      <point x="208.87735849056605" y="135.72641509433961"/>
      <point x="320.3490566037736" y="58.69811320754717"/>
      <point x="521.1226415094341" y="10.820754716981135" type="curve"/>
      <point x="525.245283018868" y="23.188679245283016"/>
      <point x="526.9528301886793" y="36.26415094339623"/>
      <point x="526.9528301886793" y="55.29245283018868" type="curve" smooth="yes"/>
      <point x="526.9528301886793" y="99.17924528301887"/>
      <point x="516.7075471698114" y="131.86792452830187"/>
      <point x="493.8018867924528" y="139.4056603773585" type="curve"/>
      <point x="357.2358490566038" y="180.96226415094338"/>
      <point x="283.74528301886795" y="221.96226415094338"/>
      <point x="176.9056603773585" y="316.58490566037733" type="curve"/>
      <point x="200.19811320754718" y="266.58490566037733" type="line"/>
      <point x="200.19811320754718" y="332.0" type="line"/>
      <point x="178.61320754716982" y="280.5849056603774" type="line"/>
      <point x="281.6981132075471" y="385.52830188679246"/>
      <point x="363.77358490566036" y="439.188679245283"/>
      <point x="529.7830188679245" y="476.3301886792453" type="curve"/>
      <point x="529.7830188679245" y="483.45283018867923"/>
      <point x="529.7830188679245" y="489.5754716981132"/>
      <point x="529.7830188679245" y="496.6981132075472" type="curve" smooth="yes"/>
      <point x="529.7830188679245" y="533.5566037735849"/>
      <point x="508.1698113207547" y="582.0566037735849"/>
      <point x="477.35849056603774" y="582.0566037735849" type="curve" smooth="yes"/>
      <point x="464.35849056603774" y="582.0566037735849"/>
      <point x="434.60377358490564" y="574.7641509433962"/>
      <point x="392.55660377358487" y="558.0566037735849" type="curve" smooth="yes"/>
      <point x="257.5377358490566" y="504.3490566037736"/>
      <point x="138.89622641509433" y="416.1698113207547"/>
    </contour>
  </outline>
</glyph>
<glyph name="at" format="2">
  <advance width="1050.0"/>
  <unicode hex="0040"/>
  <outline>
    <contour>
      <point x="528.0" y="743.1509433962265" type="curve" smooth="yes"/>
      <point x="249.3867924528302" y="743.1509433962265"/>
      <point x="57.31132075471699" y="546.8301886792452"/>
      <point x="57.31132075471699" y="257.8490566037736" type="curve" smooth="yes"/>
      <point x="57.31132075471699" y="244.84905660377356" type="line" smooth="yes"/>
      <point x="57.31132075471699" y="-11.830188679245284"/>
      <point x="252.495423127217" y="-181.0"/>
      <point x="545.0" y="-181.0" type="curve" smooth="yes"/>
      <point x="654.3867924528303" y="-181.0"/>
      <point x="734.8490566037736" y="-150.70754716981133"/>
      <point x="778.6792452830189" y="-107.58490566037736" type="curve" smooth="yes"/>
      <point x="804.0471698113207" y="-82.21698113207546"/>
      <point x="817.0" y="-55.0188679245283"/>
      <point x="817.0" y="-24.698113207547166" type="curve" smooth="yes"/>
      <point x="817.0" y="-19.69811320754717" type="line"/>
      <point x="813.0" y="-19.69811320754717" type="line"/>
      <point x="744.8301886792453" y="-63.66981132075472"/>
      <point x="632.3396226415094" y="-84.47169811320755"/>
      <point x="530.5094339622642" y="-84.47169811320755" type="curve" smooth="yes"/>
      <point x="416.79983593108494" y="-84.47169811320755"/>
      <point x="335.4150943396226" y="-66.08490566037736"/>
      <point x="247.7830188679245" y="-18.405660377358487" type="curve" smooth="yes"/>
      <point x="191.64150943396226" y="45.9811320754717"/>
      <point x="165.33018867924528" y="132.16981132075472"/>
      <point x="165.33018867924528" y="233.8490566037736" type="curve" smooth="yes"/>
      <point x="165.33018867924528" y="243.8490566037736" type="line" smooth="yes"/>
      <point x="165.33018867924528" y="486.9433962264151"/>
      <point x="320.0566037735849" y="651.5754716981132"/>
      <point x="547.0" y="651.5754716981132" type="curve" smooth="yes"/>
      <point x="632.0" y="651.5754716981132"/>
      <point x="708.7075471698114" y="637.6981132075472"/>
      <point x="789.9433962264151" y="598.6792452830189" type="curve" smooth="yes"/>
      <point x="852.1132075471698" y="531.6792452830189"/>
      <point x="884.6698113207547" y="451.66037735849056"/>
      <point x="884.6698113207547" y="360.933962264151" type="curve" smooth="yes"/>
      <point x="884.6698113207547" y="347.933962264151" type="line" smooth="yes"/>
      <point x="884.6698113207547" y="222.37735849056602"/>
      <point x="824.188679245283" y="136.35849056603774"/>
      <point x="723.0188679245283" y="112.25471698113208" type="curve"/>
      <point x="717.6037735849056" y="112.25471698113208" type="line"/>
      <point x="705.754716981132" y="129.5943396226415"/>
      <point x="702.2924528301887" y="151.1509433962264"/>
      <point x="705.8301886792453" y="194.77358490566036" type="curve" smooth="yes"/>
      <point x="713.6132075471698" y="257.72641509433964"/>
      <point x="748.2264150943397" y="348.9245283018868"/>
      <point x="752.5188679245283" y="423.0" type="curve" smooth="yes"/>
      <point x="756.3962264150944" y="481.0"/>
      <point x="726.4150943396227" y="510.0"/>
      <point x="658.5471698113208" y="510.0" type="curve" smooth="yes"/>
      <point x="647.5471698113207" y="510.0" type="line"/>
      <point x="647.5471698113208" y="479.0"/>
      <point x="643.5471698113208" y="447.0"/>
      <point x="636.4245283018868" y="415.41509433962267" type="curve" smooth="yes"/>
      <point x="622.4716981132076" y="351.4622641509434"/>
      <point x="593.1509433962265" y="259.14150943396226"/>
      <point x="592.1509433962265" y="189.77358490566036" type="curve" smooth="yes"/>
      <point x="591.1509401135019" y="109.24493505006794"/>
      <point x="632.6415094339623" y="38.0"/>
      <point x="720.4528301886792" y="38.0" type="curve" smooth="yes"/>
      <point x="724.4528301886793" y="38.0" type="line" smooth="yes"/>
      <point x="867.2137944090096" y="38.0"/>
      <point x="992.6886792452831" y="168.36792452830187"/>
      <point x="992.6886792452831" y="339.1509433962264" type="curve" smooth="yes"/>
      <point x="992.6886792452831" y="351.1509433962264" type="line" smooth="yes"/>
      <point x="992.6886792452831" y="577.2452830188679"/>
      <point x="795.8018867924528" y="743.1509433962265"/>
    </contour>
    <contour>
      <point x="424.8679245283019" y="36.075471698113205" type="curve" smooth="yes"/>
      <point x="501.91509433962267" y="36.075471698113205"/>
      <point x="550.3590034994991" y="76.16016690838867"/>
      <point x="590.6886792452831" y="147.91509433962264" type="curve"/>
      <point x="612.9339622641509" y="147.91509433962264" type="line"/>
      <point x="637.8679245283018" y="289.49056603773585" type="line"/>
      <point x="588.0754716981132" y="187.61320754716982"/>
      <point x="518.811320754717" y="135.41509433962264"/>
      <point x="434.3018867924528" y="142.43396226415095" type="curve" smooth="yes"/>
      <point x="421.6981132075471" y="160.52830188679246"/>
      <point x="415.4811320754717" y="179.96226415094338"/>
      <point x="415.4811320754717" y="216.16981132075472" type="curve" smooth="yes"/>
      <point x="415.4811320754717" y="225.16981132075472" type="line" smooth="yes"/>
      <point x="415.4811320754717" y="313.28301886792457"/>
      <point x="467.1132075471698" y="416.10377358490564"/>
      <point x="553.9811320754717" y="416.10377358490564" type="curve" smooth="yes"/>
      <point x="593.7547169811321" y="416.10377358490564"/>
      <point x="621.7735849056603" y="392.25471698113205"/>
      <point x="643.8396226415094" y="356.0188679245283" type="curve"/>
      <point x="660.7452830188679" y="442.07547169811323" type="line"/>
      <point x="636.5471698113207" y="442.07547169811323" type="line"/>
      <point x="617.4528301886792" y="488.90566037735846"/>
      <point x="578.066037735849" y="519.0"/>
      <point x="527.5094339622642" y="519.0" type="curve"/>
      <point x="404.1981132075472" y="519.0"/>
      <point x="303.92452830188677" y="383.4150943396226"/>
      <point x="303.92452830188677" y="227.16981132075472" type="curve" smooth="yes"/>
      <point x="303.92452830188677" y="219.16981132075472" type="line" smooth="yes"/>
      <point x="303.92452830188677" y="102.78301886792453"/>
      <point x="352.8490566037736" y="36.075471698113205"/>
    </contour>
  </outline>
</glyph>
<glyph name="D" format="2">
  <advance width="650.0"/>
  <unicode hex="0044"/>
  <anchor x="310.5849056603774" y="711.0" name="top"/>
  <anchor x="305.1698113207547" y="0.0" name="bottom"/>
  <outline>
    <contour>
      <point x="592.6886792452831" y="393.3490566037736" type="curve" smooth="yes"/>
      <point x="592.6886792452831" y="415.2452830188679" type="line" smooth="yes"/>
      <point x="592.6886792452831" y="622.9245283018868"/>
      <point x="476.89622641509436" y="720.0"/>
      <point x="302.49056603773585" y="720.0" type="curve"/>
      <point x="214.35849056603772" y="720.0"/>
      <point x="122.69811320754718" y="714.877358490566"/>
      <point x="33.0188679245283" y="700.0" type="curve"/>
      <point x="30.18867924528302" y="687.0943396226414"/>
      <point x="28.77358490566038" y="673.8962264150944"/>
      <point x="28.77358490566038" y="656.7452830188679" type="curve"/>
      <point x="28.77358490566038" y="604.1509433962265"/>
      <point x="40.0188679245283" y="579.2452830188679"/>
      <point x="67.80188679245283" y="579.2452830188679" type="curve" smooth="yes"/>
      <point x="88.21698113207547" y="579.2452830188679"/>
      <point x="164.4811320754717" y="599.2452830188679"/>
      <point x="286.6792452830189" y="599.2452830188679" type="curve" smooth="yes"/>
      <point x="353.2358490566038" y="599.2452830188679"/>
      <point x="397.9150943396226" y="588.6132075471697"/>
      <point x="438.08490566037733" y="563.933962264151" type="curve" smooth="yes"/>
      <point x="458.3962264150943" y="524.377358490566"/>
      <point x="466.2735849056604" y="479.0660377358491"/>
      <point x="466.2735849056604" y="399.4905660377359" type="curve" smooth="yes"/>
      <point x="466.2735849056604" y="389.49056603773585" type="line" smooth="yes"/>
      <point x="466.2735849056604" y="212.57547169811318"/>
      <point x="367.622641509434" y="114.29245283018867"/>
      <point x="246.0" y="114.29245283018867" type="curve" smooth="yes"/>
      <point x="233.81132075471697" y="114.29245283018867"/>
      <point x="218.82075471698113" y="115.75471698113206"/>
      <point x="210.14150943396226" y="118.0943396226415" type="curve"/>
      <point x="210.14150943396226" y="249.73584905660377"/>
      <point x="210.14150943396226" y="382.5471698113207"/>
      <point x="210.14150943396226" y="510.67924528301893" type="curve" smooth="yes"/>
      <point x="210.14150943396226" y="546.0"/>
      <point x="200.06603773584905" y="570.0754716981132"/>
      <point x="178.16037735849056" y="587.9056603773585" type="curve"/>
      <point x="188.91509433962264" y="616.7830188679245" type="line"/>
      <point x="82.31132075471697" y="616.7830188679245" type="line"/>
      <point x="82.31132075471697" y="444.9433962264151"/>
      <point x="82.31132075471697" y="272.64150943396226"/>
      <point x="82.31132075471697" y="94.28301886792453" type="curve"/>
      <point x="82.31132075471697" y="68.25471698113208"/>
      <point x="87.14150943396227" y="58.839622641509436"/>
      <point x="108.29245283018867" y="37.68867924528302" type="curve" smooth="yes"/>
      <point x="140.9056603773585" y="5.660377358490566"/>
      <point x="199.93396226415095" y="-10.0"/>
      <point x="260.3207547169811" y="-10.0" type="curve" smooth="yes"/>
      <point x="441.12264150943395" y="-10.0"/>
      <point x="592.6886792452831" y="143.6320754716981"/>
    </contour>
  </outline>
</glyph>
<glyph name="G" format="2">
  <advance width="650.0"/>
  <unicode hex="0047"/>
  <anchor x="333.4622641509434" y="711.0" name="top"/>
  <anchor x="333.4622641509434" y="-1.0" name="bottom"/>
  <outline>
    <contour>
      <point x="347.66981132075466" y="338.91509433962267" type="line"/>
      <point x="345.66981132075466" y="333.79245283018867"/>
      <point x="344.66981132075466" y="323.5471698113207"/>
      <point x="344.66981132075466" y="315.42452830188677" type="curve" smooth="yes"/>
      <point x="344.66981132075466" y="259.6320754716981"/>
      <point x="375.8962264150943" y="233.0188679245283"/>
      <point x="462.3584905660377" y="233.0188679245283" type="curve"/>
      <point x="610.6132075471698" y="233.0188679245283" type="line"/>
      <point x="610.6132075471698" y="242.311320754717" type="line" smooth="yes"/>
      <point x="610.6132075471698" y="314.59433962264154"/>
      <point x="596.9528301886793" y="338.91509433962267"/>
      <point x="555.7735849056604" y="338.91509433962267" type="curve" smooth="yes"/>
    </contour>
    <contour>
      <point x="378.7547169811321" y="720.0" type="curve"/>
      <point x="190.8490566037736" y="720.0"/>
      <point x="57.31132075471698" y="533.7547169811321"/>
      <point x="57.31132075471698" y="284.0566037735849" type="curve"/>
      <point x="57.31132075471698" y="262.08490566037733" type="line"/>
      <point x="57.31132075471698" y="94.66037735849056"/>
      <point x="161.0943396226415" y="-20.0"/>
      <point x="343.39622641509436" y="-20.0" type="curve" smooth="yes"/>
      <point x="416.2075471698113" y="-20.0"/>
      <point x="487.16037735849056" y="5.4905660377358485"/>
      <point x="523.2075471698113" y="39.5377358490566" type="curve" smooth="yes"/>
      <point x="554.1792452830189" y="68.21698113207547"/>
      <point x="576.3490566037735" y="105.01886792452831"/>
      <point x="576.3490566037735" y="157.16037735849056" type="curve" smooth="yes"/>
      <point x="576.3490566037735" y="191.77358490566036"/>
      <point x="569.5188679245283" y="212.18867924528303"/>
      <point x="551.7358490566037" y="227.60377358490567" type="curve"/>
      <point x="564.4905660377359" y="254.94339622641508" type="line"/>
      <point x="481.97169811320754" y="254.94339622641508" type="line"/>
      <point x="485.8490566037736" y="241.14150943396228"/>
      <point x="487.433962264151" y="226.87735849056605"/>
      <point x="487.433962264151" y="208.02830188679246" type="curve" smooth="yes"/>
      <point x="487.4339622641509" y="143.99056603773585"/>
      <point x="435.3679245283019" y="100.75471698113206"/>
      <point x="347.7169811320755" y="100.75471698113206" type="curve" smooth="yes"/>
      <point x="258.91509433962267" y="100.75471698113206"/>
      <point x="206.4811320754717" y="134.74528301886792"/>
      <point x="181.06603773584905" y="203.32075471698113" type="curve" smooth="yes"/>
      <point x="179.35849056603774" y="222.19811320754715"/>
      <point x="178.6509433962264" y="246.39622641509433"/>
      <point x="178.6509433962264" y="269.1037735849057" type="curve"/>
      <point x="178.6509433962264" y="284.47169811320754" type="line"/>
      <point x="178.6509433962264" y="464.86792452830184"/>
      <point x="266.13207547169816" y="607.0283018867925"/>
      <point x="392.3679245283019" y="607.0283018867925" type="curve"/>
      <point x="415.72641509433964" y="607.0283018867925"/>
      <point x="436.62264150943395" y="604.2735849056603"/>
      <point x="454.0566037735849" y="592.2547169811321" type="curve"/>
      <point x="442.4339622641509" y="629.1792452830189" type="line"/>
      <point x="441.10377358490564" y="585.5188679245283"/>
      <point x="438.39622641509436" y="559.5188679245283"/>
      <point x="438.39622641509436" y="506.8301886792453" type="curve"/>
      <point x="438.39622641509436" y="470.8490566037736"/>
      <point x="462.54716981132077" y="457.8962264150943"/>
      <point x="509.77358490566036" y="457.8962264150943" type="curve"/>
      <point x="529.6320754716982" y="457.8962264150943"/>
      <point x="547.3679245283018" y="460.311320754717"/>
      <point x="559.1509433962264" y="464.8490566037736" type="curve"/>
      <point x="559.1509433962264" y="491.2358490566038"/>
      <point x="559.1509433962264" y="519.745283018868"/>
      <point x="559.1509433962264" y="548.254716981132" type="curve"/>
      <point x="559.1509433962264" y="604.8207547169811"/>
      <point x="542.6132075471697" y="641.0188679245283"/>
      <point x="508.0" y="675.3396226415094" type="curve" smooth="yes"/>
      <point x="475.75471698113205" y="707.0"/>
      <point x="434.1698113207547" y="720.0"/>
    </contour>
  </outline>
</glyph>
<glyph name="K" format="2">
  <advance width="600.0"/>
  <unicode hex="004B"/>
  <anchor x="323.4622641509434" y="-1.0" name="bottom"/>
  <outline>
    <contour>
      <point x="325.5566037735849" y="371.02830188679246" type="curve"/>
      <point x="235.53773584905662" y="267.54716981132077" type="line"/>
      <point x="268.2264150943396" y="267.54716981132077" type="line"/>
      <point x="299.9622641509434" y="184.50943396226415"/>
      <point x="332.311320754717" y="128.21698113207546"/>
      <point x="373.54716981132077" y="62.73584905660378" type="curve" smooth="yes"/>
      <point x="409.42452830188677" y="2.8301886792452837"/>
      <point x="444.79245283018867" y="-20.0"/>
      <point x="491.28301886792457" y="-20.0" type="curve" smooth="yes"/>
      <point x="515.5283018867925" y="-20.0"/>
      <point x="533.4811320754717" y="-14.29245283018868"/>
      <point x="545.7264150943397" y="-2.047169811320755" type="curve" smooth="yes"/>
      <point x="559.0943396226415" y="11.320754716981131"/>
      <point x="566.3396226415094" y="35.179245283018865"/>
      <point x="566.3396226415094" y="63.867924528301884" type="curve" smooth="yes"/>
      <point x="566.3396226415094" y="91.5566037735849"/>
      <point x="564.6320754716982" y="108.21698113207547"/>
      <point x="560.5094339622642" y="127.12264150943395" type="curve"/>
      <point x="555.0943396226415" y="127.12264150943395" type="line"/>
      <point x="544.8018867924528" y="118.0754716981132"/>
      <point x="532.6320754716982" y="114.19811320754715"/>
      <point x="514.3396226415094" y="114.19811320754715" type="curve" smooth="yes"/>
      <point x="491.0943396226415" y="114.19811320754715"/>
      <point x="469.97169811320754" y="128.32075471698113"/>
      <point x="449.3867924528302" y="164.56603773584905" type="curve" smooth="yes"/>
      <point x="408.4433962264151" y="233.38679245283018"/>
      <point x="366.5" y="302.20754716981133"/>
    </contour>
    <contour>
      <point x="440.39622641509436" y="710.0" type="curve"/>
      <point x="424.0283018867924" y="710.0" type="line"/>
      <point x="402.3301886792453" y="607.0849056603773"/>
      <point x="365.8018867924528" y="526.4056603773586"/>
      <point x="322.64150943396226" y="467.60377358490564" type="curve" smooth="yes"/>
      <point x="285.2547169811321" y="411.8679245283019"/>
      <point x="245.8679245283019" y="369.3301886792453"/>
      <point x="203.31132075471697" y="337.0849056603774" type="curve"/>
      <point x="173.89622641509433" y="337.0849056603774" type="line"/>
      <point x="173.89622641509433" y="225.48113207547172" type="line"/>
      <point x="302.1509433962264" y="272.00943396226415"/>
      <point x="449.6698113207547" y="391.6698113207547"/>
      <point x="508.10377358490564" y="522.8584905660377" type="curve" smooth="yes"/>
      <point x="539.7358490566038" y="590.4905660377358"/>
      <point x="545.4433962264151" y="622.5188679245283"/>
      <point x="545.4433962264151" y="654.3301886792452" type="curve" smooth="yes"/>
      <point x="545.4433962264151" y="683.9716981132076"/>
      <point x="510.72641509433964" y="710.0"/>
    </contour>
    <contour>
      <point x="61.06603773584906" y="702.0471698113207" type="curve"/>
      <point x="69.18867924528303" y="668.4622641509434"/>
      <point x="72.31132075471699" y="632.0471698113207"/>
      <point x="72.31132075471699" y="592.9245283018868" type="curve" smooth="yes"/>
      <point x="72.31132075471699" y="424.811320754717"/>
      <point x="72.31132075471699" y="256.8207547169811"/>
      <point x="72.31132075471699" y="88.70754716981132" type="curve" smooth="yes"/>
      <point x="72.31132075471699" y="12.68867924528302"/>
      <point x="99.50943396226415" y="-8.584905660377359"/>
      <point x="151.22641509433964" y="-8.584905660377359" type="curve" smooth="yes"/>
      <point x="169.08490566037736" y="-8.584905660377359"/>
      <point x="180.86792452830187" y="-6.462264150943397"/>
      <point x="197.31132075471697" y="-2.9245283018867934" type="curve"/>
      <point x="197.31132075471697" y="204.33962264150944"/>
      <point x="197.31132075471697" y="412.311320754717"/>
      <point x="197.31132075471697" y="619.5754716981132" type="curve" smooth="yes"/>
      <point x="197.31132075471697" y="671.8018867924528"/>
      <point x="176.33018867924528" y="708.5849056603773"/>
      <point x="113.44339622641509" y="708.5849056603773" type="curve"/>
      <point x="94.0" y="708.5849056603773"/>
      <point x="79.09433962264151" y="706.1698113207547"/>
    </contour>
  </outline>
</glyph>
<glyph name="M" format="2">
  <advance width="800.0"/>
  <unicode hex="004D"/>
  <anchor x="401.8301886792453" y="0.0" name="bottom"/>
  <outline>
    <contour>
      <point x="183.06603773584905" y="-2.9245283018867934" type="curve"/>
      <point x="179.52830188679243" y="40.22641509433962"/>
      <point x="177.4056603773585" y="82.45283018867924"/>
      <point x="177.4056603773585" y="133.33018867924528" type="curve"/>
      <point x="177.4056603773585" y="246.02830188679246"/>
      <point x="189.08490566037733" y="371.0094339622642"/>
      <point x="206.2075471698113" y="537.622641509434" type="curve"/>
      <point x="185.7169811320755" y="508.7924528301887" type="line"/>
      <point x="238.77358490566039" y="508.7924528301887" type="line"/>
      <point x="203.7924528301887" y="536.0849056603773" type="line"/>
      <point x="241.71698113207546" y="343.05660377358487"/>
      <point x="312.9056603773585" y="174.5"/>
      <point x="358.89622641509436" y="127.36792452830188" type="curve" smooth="yes"/>
      <point x="370.55660377358487" y="116.83018867924528"/>
      <point x="382.50943396226415" y="114.12264150943396"/>
      <point x="402.70754716981133" y="114.12264150943396" type="curve" smooth="yes"/>
      <point x="418.3207547169811" y="114.12264150943396"/>
      <point x="433.22641509433964" y="116.24528301886792"/>
      <point x="443.8867924528302" y="121.19811320754717" type="curve"/>
      <point x="490.49056603773585" y="184.5566037735849"/>
      <point x="564.867924528302" y="386.688679245283"/>
      <point x="592.6509433962264" y="538.5943396226415" type="curve"/>
      <point x="558.4245283018868" y="506.4528301886793" type="line"/>
      <point x="610.0188679245283" y="506.4528301886793" type="line"/>
      <point x="589.066037735849" y="538.2075471698114" type="line"/>
      <point x="605.3301886792453" y="382.75471698113205"/>
      <point x="616.8396226415094" y="249.66981132075472"/>
      <point x="616.8396226415094" y="164.5188679245283" type="curve"/>
      <point x="616.8396226415094" y="129.12264150943395"/>
      <point x="615.4245283018868" y="83.79245283018868"/>
      <point x="615.4245283018868" y="63.594339622641506" type="curve" smooth="yes"/>
      <point x="615.4245283018868" y="8.660377358490566"/>
      <point x="632.9622641509434" y="-8.584905660377359"/>
      <point x="696.3396226415094" y="-8.584905660377359" type="curve"/>
      <point x="719.3207547169811" y="-8.584905660377359"/>
      <point x="741.1792452830189" y="-6.169811320754717"/>
      <point x="754.2547169811321" y="-2.047169811320755" type="curve"/>
      <point x="746.5471698113208" y="29.41509433962264"/>
      <point x="740.4245283018869" y="71.44339622641509"/>
      <point x="736.5943396226415" y="165.09433962264148" type="curve"/>
      <point x="731.8867924528303" y="307.3679245283019"/>
      <point x="722.9622641509435" y="444.45283018867923"/>
      <point x="700.6698113207548" y="622.7264150943396" type="curve" smooth="yes"/>
      <point x="692.377358490566" y="688.1415094339623"/>
      <point x="674.933962264151" y="708.5849056603773"/>
      <point x="587.0660377358491" y="708.5849056603773" type="curve" smooth="yes"/>
      <point x="553.8396226415094" y="708.5849056603773"/>
      <point x="537.0566037735849" y="706.1698113207547"/>
      <point x="521.9811320754717" y="702.3396226415094" type="curve"/>
      <point x="496.1792452830189" y="542.8679245283018"/>
      <point x="447.9433962264151" y="355.877358490566"/>
      <point x="390.7830188679245" y="238.3962264150943" type="curve"/>
      <point x="432.0754716981132" y="264.4433962264151" type="line"/>
      <point x="372.29245283018867" y="264.4433962264151" type="line"/>
      <point x="408.50943396226415" y="236.81132075471697" type="line"/>
      <point x="358.933962264151" y="350.85849056603774"/>
      <point x="312.4622641509434" y="510.1792452830189"/>
      <point x="291.66037735849056" y="643.4056603773585" type="curve" smooth="yes"/>
      <point x="284.12264150943395" y="690.6320754716982"/>
      <point x="251.43396226415095" y="708.5849056603773"/>
      <point x="166.17924528301887" y="708.5849056603773" type="curve" smooth="yes"/>
      <point x="127.75471698113208" y="708.5849056603773"/>
      <point x="108.01886792452831" y="706.1698113207547"/>
      <point x="90.28301886792454" y="702.3396226415094" type="curve"/>
      <point x="95.82075471698114" y="681.1415094339623"/>
      <point x="97.82075471698114" y="660.5849056603774"/>
      <point x="95.4811320754717" y="624.9811320754717" type="curve"/>
      <point x="90.80188679245283" y="516.2735849056604"/>
      <point x="55.23584905660378" y="312.95283018867923"/>
      <point x="55.23584905660378" y="58.575471698113205" type="curve" smooth="yes"/>
      <point x="55.23584905660378" y="8.028301886792452"/>
      <point x="90.21698113207547" y="-8.584905660377359"/>
      <point x="129.9056603773585" y="-8.584905660377359" type="curve"/>
      <point x="144.93396226415095" y="-8.584905660377359"/>
      <point x="174.4056603773585" y="-7.169811320754717"/>
    </contour>
  </outline>
</glyph>
<glyph name="Q" format="2">
  <advance width="650.0"/>
  <unicode hex="0051"/>
  <outline>
    <contour>
      <point x="478.0849056603774" y="103.6320754716981" type="curve"/>
      <point x="392.6792452830189" y="47.575471698113205" type="line"/>
      <point x="403.4811320754717" y="-1.3584905660377382"/>
      <point x="419.94339622641513" y="-43.924528301886795"/>
      <point x="445.6037735849057" y="-92.15094339622641" type="curve" smooth="yes"/>
      <point x="477.8207547169811" y="-148.27358490566036"/>
      <point x="515.4811320754717" y="-176.64150943396228"/>
      <point x="561.9716981132075" y="-176.64150943396228" type="curve" smooth="yes"/>
      <point x="583.3867924528302" y="-176.64150943396228"/>
      <point x="598.8018867924528" y="-171.93396226415095"/>
      <point x="612.0471698113208" y="-158.68867924528303" type="curve" smooth="yes"/>
      <point x="626.7075471698114" y="-144.02830188679246"/>
      <point x="637.0754716981132" y="-115.33962264150944"/>
      <point x="637.0754716981132" y="-75.5754716981132" type="curve" smooth="yes"/>
      <point x="637.0754716981132" y="-56.79245283018869"/>
      <point x="635.367924528302" y="-40.424528301886795"/>
      <point x="631.2452830188679" y="-22.933962264150942" type="curve"/>
      <point x="625.2452830188679" y="-22.933962264150942" type="line"/>
      <point x="613.8301886792453" y="-31.10377358490566"/>
      <point x="605.4905660377358" y="-34.56603773584905"/>
      <point x="588.7830188679246" y="-34.56603773584905" type="curve" smooth="yes"/>
      <point x="561.5377358490566" y="-34.56603773584905"/>
      <point x="538.6603773584906" y="-21.73584905660377"/>
      <point x="517.4905660377358" y="14.509433962264147" type="curve"/>
      <point x="500.4433962264151" y="42.80188679245282"/>
      <point x="487.3490566037736" y="72.50943396226414"/>
    </contour>
    <component base="O"/>
  </outline>
</glyph>
<glyph name="Y" format="2">
  <advance width="650.0"/>
  <unicode hex="0059"/>
  <anchor x="320.0" y="711.7075471698113" name="top"/>
  <anchor x="322.87735849056605" y="-144.5377358490566" name="dot"/>
  <anchor x="320.75471698113205" y="770.0" name="hook"/>
  <anchor x="325.0" y="-1.0" name="bottom"/>
  <outline>
    <contour>
      <point x="397.2830188679245" y="-2.047169811320755" type="curve"/>
      <point x="387.03773584905656" y="31.537735849056602"/>
      <point x="383.9150943396226" y="67.95283018867924"/>
      <point x="383.9150943396226" y="107.0754716981132" type="curve"/>
      <point x="383.9150943396226" y="157.12264150943395"/>
      <point x="383.9150943396226" y="207.33962264150944"/>
      <point x="383.9150943396226" y="257.3867924528302" type="curve"/>
      <point x="256.08490566037733" y="257.3867924528302" type="line"/>
      <point x="256.08490566037733" y="198.12264150943398"/>
      <point x="256.08490566037733" y="137.56603773584905"/>
      <point x="256.08490566037733" y="78.30188679245282" type="curve" smooth="yes"/>
      <point x="256.08490566037733" y="26.07547169811321"/>
      <point x="274.23584905660374" y="-8.584905660377359"/>
      <point x="344.1981132075472" y="-8.584905660377359" type="curve" smooth="yes"/>
      <point x="363.64150943396226" y="-8.584905660377359"/>
      <point x="377.1320754716981" y="-6.169811320754717"/>
    </contour>
    <contour>
      <point x="47.367924528301884" y="701.7547169811321" type="curve"/>
      <point x="76.67924528301887" y="467.7358490566038"/>
      <point x="145.35849056603774" y="332.0188679245283"/>
      <point x="244.76415094339623" y="235.5377358490566" type="curve"/>
      <point x="276.0660377358491" y="204.23584905660377"/>
      <point x="302.46226415094344" y="201.11320754716982"/>
      <point x="361.811320754717" y="201.11320754716982" type="curve"/>
      <point x="468.877358490566" y="294.64150943396226"/>
      <point x="568.7075471698113" y="455.74528301886795"/>
      <point x="589.3396226415094" y="649.7452830188679" type="curve"/>
      <point x="592.7547169811321" y="685.1415094339623"/>
      <point x="566.5283018867924" y="708.5849056603773"/>
      <point x="521.0566037735849" y="708.5849056603773" type="curve"/>
      <point x="501.98113207547175" y="708.5849056603773"/>
      <point x="484.1981132075471" y="706.5849056603773"/>
      <point x="467.29245283018867" y="701.7547169811321" type="curve"/>
      <point x="446.7830188679245" y="522.6603773584906"/>
      <point x="404.05660377358487" y="416.2735849056604"/>
      <point x="306.58490566037733" y="291.4245283018868" type="curve"/>
      <point x="352.5377358490566" y="315.62264150943395" type="line"/>
      <point x="286.04716981132077" y="315.62264150943395" type="line"/>
      <point x="330.0" y="291.00943396226415" type="line"/>
      <point x="243.82075471698113" y="405.85849056603774"/>
      <point x="205.33962264150944" y="503.3207547169811"/>
      <point x="187.02830188679243" y="626.8584905660377" type="curve"/>
      <point x="179.0754716981132" y="692.6792452830189"/>
      <point x="159.46226415094338" y="708.5849056603773"/>
      <point x="100.54716981132074" y="708.5849056603773" type="curve" smooth="yes"/>
      <point x="82.05660377358491" y="708.5849056603773"/>
      <point x="63.98113207547169" y="706.5849056603773"/>
    </contour>
  </outline>
</glyph>
<glyph name="bracketleft" format="2">
  <advance width="500.0"/>
  <unicode hex="005B"/>
  <outline>
    <contour>
      <point x="454.877358490566" y="-161.0" type="line"/>
      <point x="457.7075471698113" y="-149.50943396226415"/>
      <point x="459.12264150943395" y="-134.18867924528303"/>
      <point x="459.12264150943395" y="-117.0377358490566" type="curve" smooth="yes"/>
      <point x="459.12264150943395" y="-62.443396226415096"/>
      <point x="444.0471698113207" y="-40.24528301886792"/>
      <point x="408.5283018867924" y="-40.24528301886792" type="curve"/>
      <point x="273.877358490566" y="-40.24528301886792" type="line"/>
      <point x="273.877358490566" y="186.0566037735849"/>
      <point x="273.877358490566" y="412.94339622641513"/>
      <point x="273.877358490566" y="639.245283018868" type="curve"/>
      <point x="452.58490566037733" y="639.245283018868" type="line"/>
      <point x="456.7075471698113" y="650.6132075471697"/>
      <point x="458.4150943396226" y="665.8113207547169"/>
      <point x="458.4150943396226" y="682.4245283018868" type="curve" smooth="yes"/>
      <point x="458.4150943396226" y="733.0188679245283"/>
      <point x="442.8018867924528" y="760.0"/>
      <point x="412.3584905660377" y="760.0" type="curve"/>
      <point x="190.10377358490567" y="760.0" type="line" smooth="yes"/>
      <point x="169.49056603773587" y="760.0"/>
      <point x="153.7075471698113" y="758.2924528301886"/>
      <point x="134.80188679245285" y="753.877358490566" type="curve"/>
      <point x="142.9245283018868" y="718.1698113207547"/>
      <point x="146.04716981132077" y="682.0471698113207"/>
      <point x="146.04716981132077" y="642.9245283018869" type="curve" smooth="yes"/>
      <point x="146.04716981132077" y="420.5943396226415"/>
      <point x="146.04716981132077" y="177.03773584905662"/>
      <point x="146.04716981132077" y="-55.90566037735849" type="curve" smooth="yes"/>
      <point x="146.04716981132077" y="-103.20754716981132"/>
      <point x="192.5943396226415" y="-161.0"/>
      <point x="231.23584905660377" y="-161.0" type="curve" smooth="yes"/>
    </contour>
  </outline>
</glyph>
<glyph name="h" format="2">
  <advance width="600.0"/>
  <unicode hex="0068"/>
  <anchor x="133.02830188679246" y="730.0" name="top"/>
  <anchor x="305.29245283018867" y="0.0" name="bottom"/>
  <outline>
    <contour>
      <point x="163.3490566037736" y="-3.5849056603773586" type="curve" smooth="yes"/>
      <point x="174.83962264150944" y="-3.5849056603773586"/>
      <point x="182.37735849056605" y="-3.5849056603773586"/>
      <point x="195.99056603773585" y="-1.4622641509433967" type="curve"/>
      <point x="195.99056603773585" y="204.89622641509436"/>
      <point x="195.99056603773585" y="399.3490566037736"/>
      <point x="195.99056603773585" y="608.5377358490566" type="curve" smooth="yes"/>
      <point x="195.99056603773585" y="720.0943396226415"/>
      <point x="146.81132075471697" y="755.122641509434"/>
      <point x="94.38679245283018" y="755.122641509434" type="curve"/>
      <point x="82.31132075471697" y="755.122641509434"/>
      <point x="69.9433962264151" y="752.7075471698113"/>
      <point x="57.86792452830189" y="750.0" type="curve"/>
      <point x="70.4056603773585" y="725.122641509434"/>
      <point x="75.23584905660378" y="691.6037735849056"/>
      <point x="75.23584905660378" y="654.5094339622642" type="curve" smooth="yes"/>
      <point x="75.23584905660378" y="441.9245283018868"/>
      <point x="75.23584905660378" y="287.188679245283"/>
      <point x="75.23584905660378" y="65.40566037735849" type="curve" smooth="yes"/>
      <point x="75.23584905660378" y="28.301886792452827"/>
      <point x="98.18867924528303" y="-3.5849056603773586"/>
    </contour>
    <contour>
      <point x="178.49999999999997" y="162.9056603773585" type="line"/>
      <point x="230.03773584905662" y="341.188679245283"/>
      <point x="298.8584905660377" y="414.8301886792453"/>
      <point x="366.50943396226415" y="414.8301886792453" type="curve" smooth="yes"/>
      <point x="387.4528301886793" y="414.8301886792453"/>
      <point x="402.42452830188677" y="402.3490566037736"/>
      <point x="414.1792452830188" y="378.26415094339626" type="curve" smooth="yes"/>
      <point x="397.64150943396226" y="282.7830188679245"/>
      <point x="387.8584905660377" y="209.14150943396226"/>
      <point x="387.8584905660377" y="129.29245283018867" type="curve" smooth="yes"/>
      <point x="387.8584905660377" y="22.87735849056604"/>
      <point x="426.3018867924528" y="-4.830188679245283"/>
      <point x="494.0471698113207" y="-4.830188679245283" type="curve" smooth="yes"/>
      <point x="510.36792452830184" y="-4.830188679245283"/>
      <point x="523.8584905660377" y="-3.1226415094339623"/>
      <point x="539.4716981132076" y="0.0" type="curve"/>
      <point x="524.933962264151" y="54.32075471698113"/>
      <point x="520.5188679245283" y="89.73584905660377"/>
      <point x="520.5188679245283" y="148.76415094339623" type="curve" smooth="yes"/>
      <point x="520.5188679245283" y="228.4433962264151"/>
      <point x="520.5188679245283" y="308.12264150943395"/>
      <point x="520.5188679245283" y="387.8018867924528" type="curve" smooth="yes"/>
      <point x="520.5188679245283" y="464.2169811320755"/>
      <point x="470.9811320754717" y="547.6132075471698"/>
      <point x="406.83962264150944" y="547.6132075471698" type="curve"/>
      <point x="323.5471698113207" y="547.6132075471698"/>
      <point x="244.25471698113208" y="471.5660377358491"/>
      <point x="202.69811320754715" y="370.47169811320754" type="curve"/>
      <point x="177.62264150943395" y="370.47169811320754" type="line"/>
    </contour>
  </outline>
</glyph>
<glyph name="l" format="2">
  <advance width="350.0"/>
  <unicode hex="006C"/>
  <outline>
    <contour>
      <point x="89.62264150943396" y="656.5566037735849" type="curve" smooth="yes"/>
      <point x="89.62264150943396" y="492.9528301886793"/>
      <point x="89.62264150943396" y="321.27358490566036"/>
      <point x="89.62264150943396" y="145.64150943396228" type="curve" smooth="yes"/>
      <point x="89.62264150943396" y="68.4245283018868"/>
      <point x="127.94339622641509" y="-10.0"/>
      <point x="229.87735849056605" y="-10.0" type="curve" smooth="yes"/>
      <point x="258.41509433962267" y="-10.0"/>
      <point x="283.5377358490566" y="-5.7075471698113205"/>
      <point x="297.95283018867923" y="8.70754716981132" type="curve" smooth="yes"/>
      <point x="313.6132075471698" y="24.367924528301884"/>
      <point x="322.27358490566036" y="49.34905660377358"/>
      <point x="322.27358490566036" y="88.86792452830188" type="curve" smooth="yes"/>
      <point x="322.27358490566036" y="106.77358490566037"/>
      <point x="321.27358490566036" y="117.72641509433961"/>
      <point x="318.85849056603774" y="128.09433962264148" type="curve"/>
      <point x="312.85849056603774" y="128.09433962264148" type="line"/>
      <point x="296.4433962264151" y="114.80188679245282"/>
      <point x="279.566037735849" y="107.21698113207546"/>
      <point x="253.39622641509433" y="107.21698113207546" type="curve" smooth="yes"/>
      <point x="237.5188679245283" y="107.21698113207546"/>
      <point x="227.47169811320754" y="111.21698113207546"/>
      <point x="219.30188679245282" y="117.38679245283018" type="curve" smooth="yes"/>
      <point x="212.37735849056602" y="136.97169811320754"/>
      <point x="210.37735849056605" y="159.97169811320754"/>
      <point x="210.37735849056605" y="194.52830188679246" type="curve" smooth="yes"/>
      <point x="210.37735849056605" y="343.3962264150943"/>
      <point x="210.37735849056605" y="497.0943396226415"/>
      <point x="210.37735849056605" y="645.9622641509434" type="curve" smooth="yes"/>
      <point x="210.37735849056605" y="729.7783018867924"/>
      <point x="170.61320754716982" y="757.1698113207547"/>
      <point x="122.92452830188681" y="757.1698113207547" type="curve" smooth="yes"/>
      <point x="105.89622641509433" y="757.1698113207547"/>
      <point x="88.5754716981132" y="755.4622641509434"/>
      <point x="75.79245283018868" y="752.0471698113207" type="curve"/>
      <point x="84.79245283018868" y="727.1698113207548"/>
      <point x="89.62264150943396" y="693.6509433962265"/>
    </contour>
  </outline>
</glyph>
<glyph name="m" format="2">
  <advance width="850.0"/>
  <unicode hex="006D"/>
  <anchor x="442.29245283018867" y="0.0" name="bottom"/>
  <outline>
    <contour>
      <point x="792.8396226415094" y="0.0" type="curve"/>
      <point x="778.8867924528302" y="54.32075471698113"/>
      <point x="774.7641509433962" y="89.73584905660377"/>
      <point x="774.7641509433962" y="148.76415094339623" type="curve" smooth="yes"/>
      <point x="774.7641509433962" y="230.7297467910613"/>
      <point x="774.7641509433962" y="312.0188679245283"/>
      <point x="774.7641509433962" y="382.6792452830189" type="curve" smooth="yes"/>
      <point x="774.7641509433962" y="460.7264150943396"/>
      <point x="728.8396226415094" y="547.3207547169811"/>
      <point x="660.2075471698113" y="547.3207547169811" type="curve" smooth="yes"/>
      <point x="599.8679245283018" y="547.3207547169811"/>
      <point x="531.7924528301886" y="485.8301886792453"/>
      <point x="494.20754716981133" y="387.433962264151" type="curve"/>
      <point x="477.57547169811323" y="387.433962264151" type="line"/>
      <point x="477.57547169811323" y="233.56603773584905" type="line"/>
      <point x="532.566037735849" y="368.2641509433962"/>
      <point x="567.122641509434" y="414.5377358490566"/>
      <point x="618.2924528301886" y="414.5377358490566" type="curve" smooth="yes"/>
      <point x="644.8207547169811" y="414.5377358490566"/>
      <point x="657.9124886649208" y="403.70344473523113"/>
      <point x="666.377358490566" y="378.8490566037736" type="curve"/>
      <point x="650.1792452830189" y="273.6132075471698"/>
      <point x="642.1037735849058" y="204.36126526084905"/>
      <point x="642.1037735849058" y="126.36792452830188" type="curve" smooth="yes"/>
      <point x="642.1037735849058" y="22.78301886792453"/>
      <point x="674.1792452830189" y="-4.830188679245283"/>
      <point x="747.1226415094341" y="-4.830188679245283" type="curve" smooth="yes"/>
      <point x="764.6132075471698" y="-4.830188679245283"/>
      <point x="777.811320754717" y="-3.1226415094339623"/>
    </contour>
    <contour>
      <point x="488.20754716981133" y="0.0" type="curve"/>
      <point x="488.20754716981133" y="133.38679245283018"/>
      <point x="488.20754716981133" y="261.11320754716985"/>
      <point x="488.20754716981133" y="382.14150943396226" type="curve" smooth="yes"/>
      <point x="488.20754716981133" y="445.08490566037733"/>
      <point x="444.6940298507547" y="545.9056603773585"/>
      <point x="376.4811320754717" y="545.9056603773585" type="curve" smooth="yes"/>
      <point x="309.62836780091976" y="545.9056603773585"/>
      <point x="246.65094339622644" y="485.8301886792453"/>
      <point x="209.06603773584905" y="387.433962264151" type="curve"/>
      <point x="190.18867924528303" y="387.433962264151" type="line"/>
      <point x="190.18867924528303" y="231.02830188679246" type="line"/>
      <point x="247.6411709821934" y="368.4595566094104"/>
      <point x="282.5660377358491" y="414.5377358490566"/>
      <point x="330.7358490566038" y="414.5377358490566" type="curve" smooth="yes"/>
      <point x="355.31132075471703" y="414.5377358490566"/>
      <point x="368.1132075471698" y="402.64150943396226"/>
      <point x="378.6981132075471" y="379.72641509433964" type="curve" smooth="yes"/>
      <point x="363.5" y="264.29245283018867"/>
      <point x="356.25471698113205" y="204.36345580933963"/>
      <point x="356.25471698113205" y="129.9056603773585" type="curve" smooth="yes"/>
      <point x="356.25471698113205" y="32.28019840499999"/>
      <point x="382.0193580004717" y="-4.415094339622641"/>
      <point x="436.0" y="-4.415094339622641" type="curve" smooth="yes"/>
      <point x="459.0776157804717" y="-4.415094339622641"/>
      <point x="475.00943396226415" y="-2.7075471698113205"/>
    </contour>
    <contour>
      <point x="203.06603773584908" y="-1.4622641509433967" type="curve"/>
      <point x="203.06603773584908" y="132.5656225492217"/>
      <point x="203.06603773584908" y="267.20754716981133"/>
      <point x="203.06603773584908" y="400.9811320754717" type="curve"/>
      <point x="203.06603773584908" y="496.97169811320754"/>
      <point x="151.2478327384198" y="541.9056603773585"/>
      <point x="97.21698113207546" y="541.9056603773585" type="curve"/>
      <point x="85.84905660377358" y="541.9056603773585"/>
      <point x="74.18867924528303" y="540.9056603773585"/>
      <point x="62.820754716981135" y="538.1981132075472" type="curve"/>
      <point x="71.82075471698114" y="504.8301886792453"/>
      <point x="75.23584905660378" y="479.0943396226415"/>
      <point x="75.23584905660378" y="437.7547169811321" type="curve" smooth="yes"/>
      <point x="75.23584905660378" y="320.8485600794104"/>
      <point x="75.23584905660378" y="204.24577954323115"/>
      <point x="75.23584905660378" y="87.33962264150944" type="curve" smooth="yes"/>
      <point x="75.23584905660378" y="6.892878880117925"/>
      <point x="107.95590648073114" y="-5.7075471698113205"/>
      <point x="159.10377358490567" y="-5.7075471698113205" type="curve" smooth="yes"/>
      <point x="178.6895116537264" y="-5.7075471698113205"/>
      <point x="190.04855209974056" y="-4.6996313897169815"/>
    </contour>
  </outline>
</glyph>
<glyph name="s" format="2">
  <advance width="550.0"/>
  <unicode hex="0073"/>
  <anchor x="277.122641509434" y="546.9056603773585" name="top"/>
  <anchor x="277.122641509434" y="-1.0" name="bottom"/>
  <anchor x="340.02830188679246" y="546.9056603773586" name="dot"/>
  <outline>
    <contour>
      <point x="290.933962264151" y="109.33962264150944" type="curve" smooth="yes"/>
      <point x="176.2641509433962" y="109.33962264150944"/>
      <point x="136.92452830188677" y="122.75471698113206"/>
      <point x="68.01886792452831" y="165.50943396226415" type="curve"/>
      <point x="62.0188679245283" y="165.50943396226415" type="line"/>
      <point x="59.60377358490566" y="154.0188679245283"/>
      <point x="57.89622641509434" y="141.23584905660377"/>
      <point x="57.89622641509434" y="122.62264150943396" type="curve" smooth="yes"/>
      <point x="57.89622641509434" y="75.0754716981132"/>
      <point x="69.09433962264151" y="48.29245283018868"/>
      <point x="86.04716981132076" y="31.339622641509436" type="curve" smooth="yes"/>
      <point x="114.04716981132076" y="3.047169811320755"/>
      <point x="179.67924528301887" y="-11.415094339622641"/>
      <point x="283.0283018867924" y="-11.415094339622641" type="curve" smooth="yes"/>
      <point x="423.8867924528302" y="-11.415094339622641"/>
      <point x="496.6415094339623" y="45.87735849056604"/>
      <point x="496.6415094339623" y="157.56603773584905" type="curve" smooth="yes"/>
      <point x="496.6415094339623" y="229.8867924528302"/>
      <point x="455.3490566037736" y="282.7169811320755"/>
      <point x="354.53773584905656" y="305.5" type="curve" smooth="yes"/>
      <point x="292.2547169811321" y="318.9622641509434" type="line" smooth="yes"/>
      <point x="216.311320754717" y="335.54716981132077"/>
      <point x="202.18867924528303" y="347.1981132075472"/>
      <point x="202.18867924528303" y="371.92452830188677" type="curve" smooth="yes"/>
      <point x="202.18867924528303" y="401.7452830188679"/>
      <point x="242.25471698113208" y="427.4433962264151"/>
      <point x="325.1792452830189" y="427.4433962264151" type="curve" smooth="yes"/>
      <point x="388.76415094339626" y="427.4433962264151"/>
      <point x="420.3490566037736" y="416.02830188679246"/>
      <point x="461.5188679245283" y="396.27358490566036" type="curve"/>
      <point x="467.5188679245283" y="396.27358490566036" type="line"/>
      <point x="470.22641509433964" y="406.9339622641509"/>
      <point x="471.9339622641509" y="418.1792452830189"/>
      <point x="471.9339622641509" y="429.1320754716981" type="curve" smooth="yes"/>
      <point x="471.9339622641509" y="474.2641509433962"/>
      <point x="462.8584905660377" y="503.24528301886795"/>
      <point x="445.0754716981132" y="521.0283018867925" type="curve" smooth="yes"/>
      <point x="429.2452830188679" y="536.8584905660377"/>
      <point x="391.07547169811323" y="548.1981132075472"/>
      <point x="326.27358490566036" y="548.1981132075472" type="curve" smooth="yes"/>
      <point x="179.66037735849056" y="548.1981132075472"/>
      <point x="81.43396226415094" y="477.933962264151"/>
      <point x="81.43396226415094" y="374.29245283018867" type="curve" smooth="yes"/>
      <point x="81.43396226415094" y="295.50943396226415"/>
      <point x="122.38679245283019" y="254.9245283018868"/>
      <point x="235.16981132075472" y="229.97169811320754" type="curve" smooth="yes"/>
      <point x="313.311320754717" y="212.67924528301887" type="line" smooth="yes"/>
      <point x="369.52830188679246" y="199.97169811320754"/>
      <point x="385.7924528301887" y="177.3396226415094"/>
      <point x="382.1792452830189" y="141.0754716981132" type="curve" smooth="yes"/>
      <point x="365.3490566037736" y="118.35849056603773"/>
      <point x="335.4056603773585" y="109.33962264150944"/>
    </contour>
  </outline>
</glyph>
<glyph name="t" format="2">
  <advance width="500.0"/>
  <unicode hex="0074"/>
  <anchor x="275.95283018867923" y="-1.0" name="bottom"/>
  <anchor x="376.8018867924528" y="711.0" name="caronslovak"/>
  <anchor x="182.49056603773585" y="660.0283018867924" name="top"/>
  <outline>
    <contour>
      <point x="30.141509433962266" y="535.9056603773585" type="line"/>
      <point x="28.726415094339625" y="530.0754716981132"/>
      <point x="28.018867924528305" y="521.8301886792452"/>
      <point x="28.018867924528305" y="513.877358490566" type="curve" smooth="yes"/>
      <point x="28.018867924528305" y="445.88679245283015"/>
      <point x="56.83018867924528" y="415.1509433962264"/>
      <point x="159.27358490566036" y="415.1509433962264" type="curve"/>
      <point x="439.15094339622647" y="415.1509433962264" type="line"/>
      <point x="441.98113207547175" y="428.05660377358487"/>
      <point x="444.1037735849057" y="445.5"/>
      <point x="444.1037735849057" y="462.65094339622647" type="curve" smooth="yes"/>
      <point x="444.1037735849057" y="515.7830188679245"/>
      <point x="430.61320754716985" y="535.9056603773585"/>
      <point x="385.72641509433964" y="535.9056603773585" type="curve"/>
    </contour>
    <contour>
      <point x="439.85849056603774" y="141.26415094339623" type="curve"/>
      <point x="433.85849056603774" y="141.26415094339623" type="line"/>
      <point x="399.90566037735846" y="117.75471698113208"/>
      <point x="360.5377358490566" y="106.41509433962264"/>
      <point x="317.9811320754717" y="106.41509433962264" type="curve" smooth="yes"/>
      <point x="292.88679245283015" y="106.41509433962264"/>
      <point x="277.79245283018867" y="109.87735849056602"/>
      <point x="262.0377358490566" y="117.97169811320755" type="curve" smooth="yes"/>
      <point x="255.82075471698113" y="132.6509433962264"/>
      <point x="253.06603773584905" y="150.08490566037733"/>
      <point x="253.06603773584905" y="171.9056603773585" type="curve"/>
      <point x="253.06603773584905" y="324.0943396226415"/>
      <point x="253.06603773584905" y="476.8679245283019"/>
      <point x="253.06603773584905" y="629.0566037735849" type="curve" smooth="yes"/>
      <point x="253.06603773584905" y="683.2641509433962"/>
      <point x="218.08490566037736" y="707.9528301886793"/>
      <point x="177.02830188679246" y="707.9528301886793" type="curve" smooth="yes"/>
      <point x="159.29245283018867" y="707.9528301886793"/>
      <point x="141.55660377358492" y="704.8301886792453"/>
      <point x="123.11320754716981" y="700.0" type="curve"/>
      <point x="130.18867924528303" y="666.6603773584906"/>
      <point x="132.31132075471697" y="634.3207547169811"/>
      <point x="132.31132075471697" y="600.9811320754717" type="curve" smooth="yes"/>
      <point x="132.31132075471697" y="453.27358490566036"/>
      <point x="132.31132075471697" y="305.1509433962264"/>
      <point x="132.31132075471697" y="157.4433962264151" type="curve" smooth="yes"/>
      <point x="132.31132075471697" y="52.27358490566037"/>
      <point x="206.0" y="-14.339622641509434"/>
      <point x="305.36792452830184" y="-14.339622641509434" type="curve" smooth="yes"/>
      <point x="363.73584905660374" y="-14.339622641509434"/>
      <point x="399.78301886792457" y="-3.8773584905660377"/>
      <point x="419.07547169811323" y="19.660377358490564" type="curve" smooth="yes"/>
      <point x="434.6132075471698" y="39.44339622641509"/>
      <point x="443.5660377358491" y="68.59433962264151"/>
      <point x="443.5660377358491" y="108.23584905660377" type="curve" smooth="yes"/>
      <point x="443.5660377358491" y="119.35849056603773"/>
      <point x="442.5660377358491" y="130.31132075471697"/>
    </contour>
  </outline>
</glyph>
<glyph name="u" format="2">
  <advance width="600.0"/>
  <unicode hex="0075"/>
  <anchor x="300.0" y="546.9056603773585" name="top"/>
  <anchor x="539.5943396226415" y="-0.8773584905660379" name="ogonek"/>
  <anchor x="302.12264150943395" y="-1.0" name="bottom"/>
  <anchor x="457.0943396226415" y="535.9056603773585" name="horn"/>
  <anchor x="299.70754716981133" y="584.0" name="hook"/>
  <anchor x="263.3679245283019" y="546.9056603773585" name="tildeviet"/>
  <outline>
    <contour>
      <point x="103.12264150943396" y="542.1509433962264" type="curve"/>
      <point x="86.80188679245282" y="542.1509433962264"/>
      <point x="73.31132075471699" y="540.4433962264151"/>
      <point x="57.69811320754717" y="537.3207547169811" type="curve"/>
      <point x="72.23584905660377" y="483.0"/>
      <point x="76.65094339622641" y="447.5849056603774"/>
      <point x="76.65094339622641" y="388.5566037735849" type="curve" smooth="yes"/>
      <point x="76.65094339622641" y="308.87735849056605"/>
      <point x="76.65094339622641" y="229.19811320754718"/>
      <point x="76.65094339622641" y="149.5188679245283" type="curve" smooth="yes"/>
      <point x="76.65094339622641" y="73.10377358490567"/>
      <point x="126.18867924528303" y="-10.29245283018868"/>
      <point x="190.33018867924528" y="-10.29245283018868" type="curve" smooth="yes"/>
      <point x="273.9150943396226" y="-10.29245283018868"/>
      <point x="353.9150943396226" y="65.75471698113208"/>
      <point x="395.88679245283015" y="167.14150943396226" type="curve"/>
      <point x="410.8867924528302" y="167.14150943396226" type="line"/>
      <point x="410.8867924528302" y="402.7169811320755" type="line"/>
      <point x="370.6698113207547" y="196.13207547169813"/>
      <point x="298.311320754717" y="122.49056603773585"/>
      <point x="230.66037735849056" y="122.49056603773585" type="curve" smooth="yes"/>
      <point x="209.7169811320755" y="122.49056603773585"/>
      <point x="194.74528301886792" y="134.97169811320757"/>
      <point x="182.99056603773585" y="159.0566037735849" type="curve" smooth="yes"/>
      <point x="199.52830188679246" y="254.5377358490566"/>
      <point x="209.31132075471697" y="328.1792452830188"/>
      <point x="209.31132075471697" y="408.02830188679246" type="curve" smooth="yes"/>
      <point x="209.31132075471697" y="514.4433962264151"/>
      <point x="170.8679245283019" y="542.1509433962264"/>
    </contour>
    <contour>
      <point x="435.6981132075472" y="540.0283018867924" type="curve"/>
      <point x="423.33018867924534" y="540.0283018867924"/>
      <point x="415.5" y="539.7358490566038"/>
      <point x="401.8867924528302" y="537.3207547169811" type="curve"/>
      <point x="401.8867924528302" y="418.6981132075472"/>
      <point x="401.8867924528302" y="277.89622641509436"/>
      <point x="401.8867924528302" y="142.0" type="curve" smooth="yes"/>
      <point x="401.8867924528302" y="30.443396226415093"/>
      <point x="444.6981132075472" y="-4.415094339622641"/>
      <point x="502.07547169811323" y="-4.415094339622641" type="curve" smooth="yes"/>
      <point x="514.1509433962265" y="-4.415094339622641"/>
      <point x="526.5188679245283" y="-2.7075471698113205"/>
      <point x="538.5943396226415" y="0.0" type="curve"/>
      <point x="526.0566037735849" y="24.877358490566035"/>
      <point x="521.2264150943397" y="58.93396226415094"/>
      <point x="521.2264150943397" y="96.02830188679245" type="curve" smooth="yes"/>
      <point x="521.2264150943397" y="213.75471698113208"/>
      <point x="521.2264150943397" y="329.0660377358491"/>
      <point x="521.2264150943397" y="462.35849056603774" type="curve" smooth="yes"/>
      <point x="521.2264150943397" y="511.21698113207543"/>
      <point x="499.27358490566036" y="540.0283018867924"/>
    </contour>
  </outline>
</glyph>
<glyph name="w" format="2">
  <advance width="800.0"/>
  <unicode hex="0077"/>
  <anchor x="398.1698113207547" y="544.7830188679245" name="top"/>
  <outline>
    <contour>
      <point x="341.03773584905656" y="537.0754716981131" type="line"/>
      <point x="334.0188679245283" y="342.6132075471698"/>
      <point x="301.04716981132077" y="230.3679245283019"/>
      <point x="243.95283018867923" y="123.15094339622641" type="curve"/>
      <point x="236.95283018867926" y="123.15094339622641" type="line"/>
      <point x="204.74528301886792" y="194.26415094339623"/>
      <point x="178.45283018867923" y="290.00943396226415"/>
      <point x="173.4811320754717" y="484.06603773584914" type="curve" smooth="yes"/>
      <point x="173.188679245283" y="522.877358490566"/>
      <point x="144.37735849056605" y="543.0754716981131"/>
      <point x="81.29245283018867" y="543.0754716981131" type="curve" smooth="yes"/>
      <point x="68.9245283018868" y="543.0754716981131"/>
      <point x="59.386792452830186" y="542.7830188679245"/>
      <point x="50.72641509433963" y="540.3679245283018" type="curve"/>
      <point x="55.40566037735849" y="230.27358490566039"/>
      <point x="104.45283018867924" y="100.17924528301884"/>
      <point x="194.67924528301887" y="8.783018867924527" type="curve" smooth="yes"/>
      <point x="206.92452830188677" y="-3.4622641509433967"/>
      <point x="222.70754716981133" y="-10.0"/>
      <point x="239.95283018867926" y="-10.0" type="curve" smooth="yes"/>
      <point x="255.78301886792454" y="-10.0"/>
      <point x="265.90566037735846" y="-8.70754716981132"/>
      <point x="275.6132075471698" y="-3.7075471698113205" type="curve"/>
      <point x="334.1698113207547" y="88.43396226415096"/>
      <point x="374.21698113207543" y="173.75471698113208"/>
      <point x="394.58490566037733" y="288.0188679245283" type="curve"/>
      <point x="400.87735849056605" y="288.0188679245283" type="line"/>
      <point x="424.36792452830184" y="166.0943396226415"/>
      <point x="470.7547169811321" y="67.43396226415095"/>
      <point x="518.3867924528302" y="7.122641509433963" type="curve" smooth="yes"/>
      <point x="527.8018867924528" y="-4.8773584905660385"/>
      <point x="540.9245283018868" y="-10.0"/>
      <point x="560.1698113207548" y="-10.0" type="curve" smooth="yes"/>
      <point x="572.0471698113207" y="-10.0"/>
      <point x="582.7075471698114" y="-9.122641509433961"/>
      <point x="594.122641509434" y="-6.122641509433962" type="curve"/>
      <point x="683.566037735849" y="95.61320754716981"/>
      <point x="745.8867924528303" y="244.6509433962264"/>
      <point x="750.5660377358491" y="481.0660377358491" type="curve" smooth="yes"/>
      <point x="751.1509433962265" y="523.4622641509434"/>
      <point x="711.9245283018868" y="543.0754716981131"/>
      <point x="654.4245283018868" y="543.0754716981131" type="curve" smooth="yes"/>
      <point x="644.1792452830189" y="543.0754716981131"/>
      <point x="636.7641509433963" y="542.0754716981131"/>
      <point x="630.2264150943396" y="540.3679245283018" type="curve"/>
      <point x="626.7169811320755" y="301.64150943396226"/>
      <point x="599.3301886792452" y="206.04716981132074"/>
      <point x="556.0943396226415" y="124.56603773584905" type="curve"/>
      <point x="550.0943396226414" y="124.56603773584905" type="line"/>
      <point x="503.7830188679245" y="214.2169811320755"/>
      <point x="468.933962264151" y="331.0"/>
      <point x="463.9622641509434" y="471.4056603773585" type="curve" smooth="yes"/>
      <point x="463.37735849056605" y="519.0"/>
      <point x="442.7641509433962" y="537.0754716981131"/>
      <point x="355.1132075471698" y="537.0754716981131" type="curve" smooth="yes"/>
    </contour>
  </outline>
</glyph>
<glyph name="z" format="2">
  <advance width="550.0"/>
  <unicode hex="007A"/>
  <anchor x="274.41509433962267" y="546.9056603773585" name="top"/>
  <anchor x="278.9528301886793" y="0.0" name="bottom"/>
  <outline>
    <contour>
      <point x="53.18867924528302" y="535.9056603773585" type="line"/>
      <point x="50.35849056603774" y="526.5377358490566"/>
      <point x="49.65094339622642" y="516.1698113207547"/>
      <point x="49.65094339622642" y="504.6792452830189" type="curve" smooth="yes"/>
      <point x="49.65094339622642" y="455.5"/>
      <point x="64.55660377358491" y="415.1509433962264"/>
      <point x="107.32075471698113" y="415.1509433962264" type="curve" smooth="yes"/>
      <point x="352.7830188679245" y="415.1509433962264" type="line"/>
      <point x="353.66037735849056" y="408.7358490566038" type="line"/>
      <point x="340.8301886792453" y="395.85849056603774"/>
      <point x="329.4150943396226" y="383.5660377358491"/>
      <point x="317.5849056603774" y="368.9811320754717" type="curve" smooth="yes"/>
      <point x="242.87735849056605" y="272.35849056603774"/>
      <point x="149.1320754716981" y="183.2075471698113"/>
      <point x="49.65094339622642" y="111.63207547169812" type="curve"/>
      <point x="49.65094339622642" y="100.14150943396226" type="line" smooth="yes"/>
      <point x="49.65094339622642" y="47.424528301886795"/>
      <point x="61.72641509433962" y="0.0"/>
      <point x="102.3679245283019" y="0.0" type="curve" smooth="yes"/>
      <point x="494.22641509433964" y="0.0" type="line"/>
      <point x="497.0566037735849" y="12.90566037735849"/>
      <point x="499.1792452830189" y="30.349056603773583"/>
      <point x="499.1792452830189" y="47.499999999999986" type="curve" smooth="yes"/>
      <point x="499.1792452830189" y="100.92452830188678"/>
      <point x="485.688679245283" y="120.75471698113206"/>
      <point x="439.3867924528302" y="120.75471698113206" type="curve"/>
      <point x="206.31132075471697" y="120.75471698113206" type="line"/>
      <point x="205.72641509433961" y="127.16981132075472" type="line"/>
      <point x="227.21698113207546" y="137.2924528301887"/>
      <point x="249.87735849056602" y="151.2924528301887"/>
      <point x="270.66037735849056" y="165.4150943396226" type="curve" smooth="yes"/>
      <point x="402.28301886792457" y="262.22641509433964"/>
      <point x="499.1792452830189" y="395.4433962264151"/>
      <point x="499.1792452830189" y="430.1037735849057" type="curve"/>
      <point x="499.1792452830189" y="436.3490566037736" type="line" smooth="yes"/>
      <point x="499.1792452830189" y="479.7452830188679"/>
      <point x="468.66037735849056" y="535.9056603773585"/>
      <point x="423.11320754716985" y="535.9056603773585" type="curve"/>
    </contour>
  </outline>
</glyph>
<glyph name="bar" format="2">
  <advance width="300.0"/>
  <unicode hex="007C"/>
  <outline>
    <contour>
      <point x="75.25471698113208" y="758.5849056603773" type="curve"/>
      <point x="83.37735849056604" y="722.877358490566"/>
      <point x="86.5" y="686.4622641509434"/>
      <point x="86.5" y="647.3396226415094" type="curve" smooth="yes"/>
      <point x="86.5" y="395.66037735849056"/>
      <point x="86.5" y="142.9811320754717"/>
      <point x="86.5" y="-108.69811320754715" type="curve" smooth="yes"/>
      <point x="86.5" y="-145.80188679245282"/>
      <point x="120.77358490566039" y="-162.83018867924528"/>
      <point x="185.22641509433961" y="-162.83018867924528" type="curve" smooth="yes"/>
      <point x="198.1320754716981" y="-162.83018867924528"/>
      <point x="207.79245283018867" y="-162.12264150943395"/>
      <point x="214.33018867924528" y="-160.7075471698113" type="curve"/>
      <point x="214.33018867924528" y="117.80188679245283"/>
      <point x="214.33018867924528" y="396.89622641509436"/>
      <point x="214.33018867924528" y="675.4056603773585" type="curve" smooth="yes"/>
      <point x="214.33018867924528" y="728.6792452830189"/>
      <point x="189.8867924528302" y="764.4150943396227"/>
      <point x="127.63207547169812" y="764.4150943396227" type="curve" smooth="yes"/>
      <point x="108.18867924528303" y="764.4150943396227"/>
      <point x="93.28301886792454" y="762.7075471698113"/>
    </contour>
  </outline>
</glyph>
<glyph name="currency" format="2">
  <advance width="600.0"/>
  <unicode hex="00A4"/>
  <outline>
    <contour>
      <point x="257.5943396226415" y="422.4433962264151" type="curve"/>
      <point x="233.9622641509434" y="441.7830188679245"/>
      <point x="211.20754716981133" y="464.5377358490566"/>
      <point x="191.16037735849056" y="488.87735849056605" type="curve" smooth="yes"/>
      <point x="178.66981132075472" y="504.7830188679245"/>
      <point x="165.88679245283018" y="512.4433962264151"/>
      <point x="153.10377358490567" y="512.4433962264151" type="curve" smooth="yes"/>
      <point x="138.1509433962264" y="512.4433962264151"/>
      <point x="122.19811320754717" y="503.73584905660374"/>
      <point x="104.41509433962264" y="486.3679245283019" type="curve" smooth="yes"/>
      <point x="94.63207547169812" y="475.87735849056605"/>
      <point x="83.84905660377359" y="462.2641509433962"/>
      <point x="74.77358490566039" y="448.9433962264151" type="curve"/>
      <point x="88.45283018867926" y="432.3867924528302"/>
      <point x="104.83962264150942" y="416.4150943396226"/>
      <point x="120.10377358490567" y="403.02830188679246" type="curve" smooth="yes"/>
      <point x="155.45283018867926" y="370.8018867924528"/>
      <point x="207.2924528301887" y="372.14150943396226"/>
      <point x="246.3490566037736" y="411.1981132075472" type="curve" smooth="yes"/>
      <point x="250.47169811320754" y="415.3207547169811"/>
      <point x="254.17924528301887" y="419.02830188679246"/>
    </contour>
    <contour>
      <point x="343.57547169811323" y="421.7358490566038" type="curve"/>
      <point x="346.99056603773585" y="418.3207547169812"/>
      <point x="350.6981132075472" y="414.6132075471698"/>
      <point x="354.8207547169811" y="410.49056603773585" type="curve" smooth="yes"/>
      <point x="394.58490566037733" y="370.72641509433964"/>
      <point x="438.47169811320754" y="364.311320754717"/>
      <point x="478.77358490566036" y="398.7830188679245" type="curve" smooth="yes"/>
      <point x="495.45283018867923" y="413.58490566037733"/>
      <point x="511.4245283018868" y="430.3867924528302"/>
      <point x="526.3962264150944" y="448.2358490566038" type="curve"/>
      <point x="517.3207547169811" y="461.5566037735849"/>
      <point x="507.2452830188679" y="475.1698113207547"/>
      <point x="496.7547169811321" y="485.66037735849056" type="curve" smooth="yes"/>
      <point x="478.97169811320754" y="503.73584905660374"/>
      <point x="463.0188679245283" y="511.73584905660374"/>
      <point x="448.0660377358491" y="511.73584905660374" type="curve" smooth="yes"/>
      <point x="435.2830188679245" y="511.73584905660374"/>
      <point x="422.79245283018867" y="504.0754716981132"/>
      <point x="410.3018867924528" y="488.4622641509434" type="curve" smooth="yes"/>
      <point x="389.96226415094344" y="463.5377358490566"/>
      <point x="368.3301886792453" y="440.49056603773585"/>
    </contour>
    <contour>
      <point x="343.28301886792457" y="173.8490566037736" type="curve"/>
      <point x="366.9150943396226" y="154.50943396226415"/>
      <point x="389.6698113207547" y="131.75471698113208"/>
      <point x="409.7169811320755" y="107.41509433962264" type="curve" smooth="yes"/>
      <point x="422.5" y="91.50943396226415"/>
      <point x="434.99056603773585" y="83.84905660377359"/>
      <point x="447.77358490566036" y="83.84905660377359" type="curve" smooth="yes"/>
      <point x="462.72641509433964" y="83.84905660377359"/>
      <point x="478.6792452830189" y="92.55660377358491"/>
      <point x="496.4622641509434" y="109.9245283018868" type="curve" smooth="yes"/>
      <point x="506.24528301886795" y="120.41509433962264"/>
      <point x="517.0283018867925" y="134.02830188679246"/>
      <point x="526.1037735849056" y="147.3490566037736" type="curve"/>
      <point x="512.4245283018868" y="163.9056603773585"/>
      <point x="496.03773584905656" y="179.87735849056605"/>
      <point x="480.77358490566036" y="193.2641509433962" type="curve" smooth="yes"/>
      <point x="445.42452830188677" y="225.49056603773585"/>
      <point x="393.58490566037733" y="224.1509433962264"/>
      <point x="354.52830188679246" y="185.09433962264148" type="curve" smooth="yes"/>
      <point x="350.40566037735846" y="180.97169811320754"/>
      <point x="346.6981132075472" y="177.26415094339623"/>
    </contour>
    <contour>
      <point x="256.42452830188677" y="174.26415094339623" type="curve"/>
      <point x="253.00943396226415" y="177.67924528301887"/>
      <point x="249.30188679245282" y="181.38679245283018"/>
      <point x="245.17924528301887" y="185.50943396226415" type="curve" smooth="yes"/>
      <point x="205.41509433962264" y="225.27358490566036"/>
      <point x="161.52830188679246" y="231.688679245283"/>
      <point x="121.22641509433963" y="197.21698113207546" type="curve" smooth="yes"/>
      <point x="104.54716981132074" y="182.41509433962264"/>
      <point x="88.5754716981132" y="165.61320754716982"/>
      <point x="73.60377358490567" y="147.76415094339623" type="curve"/>
      <point x="82.67924528301887" y="134.4433962264151"/>
      <point x="92.75471698113208" y="120.83018867924528"/>
      <point x="103.24528301886792" y="110.33962264150944" type="curve" smooth="yes"/>
      <point x="121.02830188679245" y="92.26415094339623"/>
      <point x="136.9811320754717" y="84.26415094339623"/>
      <point x="151.93396226415095" y="84.26415094339623" type="curve" smooth="yes"/>
      <point x="164.71698113207546" y="84.26415094339623"/>
      <point x="177.2075471698113" y="91.9245283018868"/>
      <point x="189.69811320754715" y="107.53773584905662" type="curve" smooth="yes"/>
      <point x="210.03773584905662" y="132.4622641509434"/>
      <point x="231.66981132075472" y="155.50943396226415"/>
    </contour>
    <contour>
      <point x="129.97169811320754" y="302.12264150943395" type="curve" smooth="yes"/>
      <point x="129.97169811320754" y="294.70754716981133" type="line" smooth="yes"/>
      <point x="129.97169811320754" y="194.4622641509434"/>
      <point x="201.3396226415094" y="127.63207547169812"/>
      <point x="297.29245283018867" y="127.63207547169812" type="curve" smooth="yes"/>
      <point x="398.2452830188679" y="127.63207547169812"/>
      <point x="470.6132075471698" y="199.75471698113208"/>
      <point x="470.6132075471698" y="302.0" type="curve" smooth="yes"/>
      <point x="470.6132075471698" y="309.4150943396226" type="line" smooth="yes"/>
      <point x="470.6132075471698" y="409.66037735849056"/>
      <point x="399.2452830188679" y="476.49056603773585"/>
      <point x="303.29245283018867" y="476.49056603773585" type="curve" smooth="yes"/>
      <point x="202.3396226415094" y="476.49056603773585"/>
      <point x="129.97169811320754" y="404.3679245283019"/>
    </contour>
    <contour>
      <point x="218.7641509433962" y="289.87735849056605" type="curve" smooth="yes"/>
      <point x="218.7641509433962" y="295.1698113207547" type="line" smooth="yes"/>
      <point x="218.7641509433962" y="347.40566037735846"/>
      <point x="248.85849056603772" y="386.33018867924534"/>
      <point x="308.29245283018867" y="386.33018867924534" type="curve" smooth="yes"/>
      <point x="327.12264150943395" y="386.33018867924534"/>
      <point x="341.5377358490566" y="383.9150943396226"/>
      <point x="355.66037735849056" y="378.5" type="curve"/>
      <point x="372.8490566037736" y="362.3301886792453"/>
      <point x="381.8207547169811" y="342.0188679245283"/>
      <point x="381.8207547169811" y="313.53773584905656" type="curve" smooth="yes"/>
      <point x="381.8207547169811" y="307.5377358490566" type="line" smooth="yes"/>
      <point x="381.8207547169811" y="248.93396226415092"/>
      <point x="351.72641509433964" y="219.20754716981133"/>
      <point x="292.29245283018867" y="219.20754716981133" type="curve" smooth="yes"/>
      <point x="274.1698113207547" y="219.20754716981133"/>
      <point x="257.63207547169816" y="221.62264150943398"/>
      <point x="239.97169811320757" y="229.16037735849056" type="curve"/>
      <point x="226.32075471698113" y="242.5"/>
      <point x="218.7641509433962" y="262.811320754717"/>
    </contour>
  </outline>
</glyph>
<glyph name="brokenbar" format="2">
  <advance width="350.0"/>
  <unicode hex="00A6"/>
  <outline>
    <contour>
      <point x="102.37735849056604" y="758.5849056603773" type="curve"/>
      <point x="110.5" y="722.877358490566"/>
      <point x="113.62264150943396" y="686.4622641509434"/>
      <point x="113.62264150943396" y="647.3396226415094" type="curve" smooth="yes"/>
      <point x="113.62264150943396" y="421.3018867924528" type="line" smooth="yes"/>
      <point x="113.62264150943396" y="384.1981132075472"/>
      <point x="147.89622641509433" y="367.1698113207547"/>
      <point x="212.3490566037736" y="367.1698113207547" type="curve" smooth="yes"/>
      <point x="225.25471698113205" y="367.1698113207547"/>
      <point x="234.91509433962264" y="367.87735849056605"/>
      <point x="241.45283018867926" y="369.29245283018867" type="curve"/>
      <point x="241.45283018867926" y="697.3396226415094" type="line" smooth="yes"/>
      <point x="241.45283018867926" y="721.4622641509434"/>
      <point x="238.03773584905662" y="735.2169811320755"/>
      <point x="226.74528301886792" y="746.5094339622641" type="curve" smooth="yes"/>
      <point x="213.96226415094338" y="759.2924528301887"/>
      <point x="194.22641509433961" y="764.4150943396227"/>
      <point x="154.75471698113208" y="764.4150943396227" type="curve" smooth="yes"/>
      <point x="135.311320754717" y="764.4150943396227"/>
      <point x="120.40566037735849" y="762.7075471698113"/>
    </contour>
    <contour>
      <point x="113.62264150943396" y="228.58490566037736" type="curve"/>
      <point x="113.62264150943396" y="-108.69811320754718" type="line"/>
      <point x="113.62264150943396" y="-145.80188679245282"/>
      <point x="147.89622641509433" y="-162.83018867924528"/>
      <point x="212.3490566037736" y="-162.83018867924528" type="curve" smooth="yes"/>
      <point x="225.25471698113205" y="-162.83018867924528"/>
      <point x="234.91509433962264" y="-162.12264150943398"/>
      <point x="241.45283018867926" y="-160.70754716981133" type="curve"/>
      <point x="241.45283018867926" y="174.06603773584905" type="line" smooth="yes"/>
      <point x="241.45283018867926" y="217.58490566037736"/>
      <point x="218.47169811320754" y="234.41509433962264"/>
      <point x="159.46226415094338" y="234.41509433962264" type="curve"/>
      <point x="142.14150943396228" y="234.41509433962264"/>
      <point x="125.82075471698113" y="232.70754716981133"/>
    </contour>
  </outline>
</glyph>
<glyph name="logicalnot" format="2">
  <advance width="600.0"/>
  <unicode hex="00AC"/>
  <outline>
    <contour>
      <point x="55.01886792452831" y="441.83962264150944" type="line"/>
      <point x="54.72641509433963" y="435.83962264150944"/>
      <point x="54.43396226415095" y="428.54716981132077"/>
      <point x="54.43396226415095" y="422.54716981132077" type="curve" smooth="yes"/>
      <point x="54.43396226415095" y="353.6037735849057"/>
      <point x="76.38679245283019" y="331.6981132075472"/>
      <point x="142.7169811320755" y="331.6981132075472" type="curve" smooth="yes"/>
      <point x="473.48113207547175" y="331.6981132075472" type="line"/>
      <point x="425.1792452830189" y="380.0" type="line"/>
      <point x="425.1792452830189" y="321.1509433962264"/>
      <point x="425.1792452830189" y="261.3018867924528"/>
      <point x="425.1792452830189" y="202.45283018867926" type="curve" smooth="yes"/>
      <point x="425.1792452830189" y="156.85849056603774"/>
      <point x="456.62264150943395" y="133.4622641509434"/>
      <point x="510.4622641509434" y="133.4622641509434" type="curve" smooth="yes"/>
      <point x="520.5377358490566" y="133.4622641509434"/>
      <point x="528.7830188679245" y="134.16981132075472"/>
      <point x="535.3207547169811" y="135.58490566037736" type="curve"/>
      <point x="535.3207547169811" y="204.50943396226415"/>
      <point x="535.3207547169811" y="273.433962264151"/>
      <point x="535.3207547169811" y="342.35849056603774" type="curve" smooth="yes"/>
      <point x="535.3207547169811" y="410.9811320754717"/>
      <point x="513.4622641509434" y="441.83962264150944"/>
      <point x="462.79245283018867" y="441.83962264150944" type="curve" smooth="yes"/>
    </contour>
  </outline>
</glyph>
<glyph name="degree" format="2">
  <advance width="600.0"/>
  <unicode hex="00B0"/>
  <outline>
    <contour>
      <point x="302.29245283018867" y="710.0" type="curve"/>
      <point x="201.3396226415094" y="710.0"/>
      <point x="129.67924528301884" y="637.8773584905659"/>
      <point x="129.67924528301884" y="535.632075471698" type="curve" smooth="yes"/>
      <point x="129.67924528301884" y="528.2169811320755" type="line" smooth="yes"/>
      <point x="129.67924528301884" y="427.97169811320754"/>
      <point x="200.3396226415094" y="361.14150943396226"/>
      <point x="296.29245283018867" y="361.14150943396226" type="curve"/>
      <point x="397.2452830188679" y="361.14150943396226"/>
      <point x="468.90566037735846" y="433.2641509433962"/>
      <point x="468.90566037735846" y="535.5094339622642" type="curve" smooth="yes"/>
      <point x="468.90566037735846" y="542.9245283018868" type="line" smooth="yes"/>
      <point x="468.90566037735846" y="643.1698113207547"/>
      <point x="398.2452830188679" y="710.0"/>
    </contour>
    <contour>
      <point x="291.29245283018867" y="444.2264150943396" type="curve" smooth="yes"/>
      <point x="273.1698113207547" y="444.2264150943396"/>
      <point x="258.75471698113205" y="446.64150943396226"/>
      <point x="243.21698113207546" y="455.59433962264154" type="curve" smooth="yes"/>
      <point x="226.02830188679243" y="472.47169811320754"/>
      <point x="216.34905660377356" y="497.02830188679246"/>
      <point x="216.34905660377356" y="527.632075471698" type="curve" smooth="yes"/>
      <point x="216.34905660377356" y="535.0471698113207" type="line" smooth="yes"/>
      <point x="216.34905660377356" y="593.6509433962265"/>
      <point x="247.85849056603772" y="626.9150943396227"/>
      <point x="307.29245283018867" y="626.9150943396227" type="curve" smooth="yes"/>
      <point x="322.5849056603774" y="626.9150943396227"/>
      <point x="335.5849056603774" y="625.2075471698114"/>
      <point x="348.29245283018867" y="619.0849056603773" type="curve" smooth="yes"/>
      <point x="369.7264150943396" y="602.9150943396227"/>
      <point x="382.23584905660374" y="576.9433962264151"/>
      <point x="382.23584905660374" y="543.5094339622641" type="curve" smooth="yes"/>
      <point x="382.23584905660374" y="536.0943396226414" type="line" smooth="yes"/>
      <point x="382.23584905660374" y="477.49056603773585"/>
      <point x="350.72641509433964" y="444.2264150943396"/>
    </contour>
  </outline>
</glyph>
<glyph name="twosuperior" format="2">
  <advance width="600.0"/>
  <unicode hex="00B2"/>
  <outline>
    <contour>
      <point x="430.41509433962267" y="370.97169811320754" type="curve"/>
      <point x="433.12264150943395" y="383.75471698113205"/>
      <point x="435.12264150943395" y="397.41509433962267"/>
      <point x="435.12264150943395" y="410.36792452830184" type="curve" smooth="yes"/>
      <point x="435.12264150943395" y="445.34905660377353"/>
      <point x="421.41509433962267" y="454.34905660377353"/>
      <point x="377.8018867924528" y="454.34905660377353" type="curve"/>
      <point x="327.9811320754717" y="454.34905660377353" type="line" smooth="yes"/>
      <point x="280.1792452830189" y="454.34905660377353"/>
      <point x="252.0566037735849" y="450.64150943396226"/>
      <point x="213.39622641509433" y="435.688679245283" type="curve"/>
      <point x="246.3490566037736" y="435.688679245283" type="line"/>
      <point x="225.88679245283018" y="455.64150943396226" type="line"/>
      <point x="225.9811320754717" y="421.85849056603774" type="line"/>
      <point x="237.00943396226415" y="474.6132075471698"/>
      <point x="254.5943396226415" y="490.1981132075472"/>
      <point x="336.5188679245283" y="523.122641509434" type="curve" smooth="yes"/>
      <point x="404.8301886792453" y="550.8018867924529"/>
      <point x="429.70754716981133" y="579.0"/>
      <point x="429.70754716981133" y="636.8301886792452" type="curve" smooth="yes"/>
      <point x="429.70754716981133" y="641.6603773584906" type="line" smooth="yes"/>
      <point x="429.70754716981133" y="687.8584905660377"/>
      <point x="393.2169811320755" y="735.5660377358491"/>
      <point x="293.2641509433962" y="735.5660377358491" type="curve" smooth="yes"/>
      <point x="237.67924528301887" y="735.5660377358491"/>
      <point x="199.80188679245285" y="723.811320754717"/>
      <point x="181.80188679245285" y="705.8113207547169" type="curve" smooth="yes"/>
      <point x="168.8490566037736" y="692.8584905660377"/>
      <point x="165.84905660377356" y="672.9528301886793"/>
      <point x="165.84905660377356" y="652.7075471698114" type="curve" smooth="yes"/>
      <point x="165.84905660377356" y="640.0471698113208"/>
      <point x="167.5566037735849" y="628.0943396226415"/>
      <point x="171.67924528301887" y="618.2641509433962" type="curve"/>
      <point x="177.67924528301887" y="618.2641509433962" type="line"/>
      <point x="206.4811320754717" y="641.6037735849058"/>
      <point x="242.60377358490567" y="652.188679245283"/>
      <point x="283.77358490566036" y="652.188679245283" type="curve" smooth="yes"/>
      <point x="307.62264150943395" y="652.188679245283"/>
      <point x="327.91509433962267" y="648.8490566037735"/>
      <point x="338.5" y="642.9245283018869" type="curve" smooth="yes"/>
      <point x="340.20754716981133" y="638.5094339622641"/>
      <point x="341.2075471698113" y="634.2169811320754"/>
      <point x="341.2075471698113" y="627.2169811320754" type="curve" smooth="yes"/>
      <point x="341.2075471698113" y="606.122641509434"/>
      <point x="328.9622641509434" y="595.5377358490566"/>
      <point x="263.3301886792453" y="566.2452830188679" type="curve" smooth="yes"/>
      <point x="178.21698113207546" y="528.7358490566037"/>
      <point x="156.67924528301887" y="485.36792452830184"/>
      <point x="156.67924528301887" y="432.5849056603774" type="curve" smooth="yes"/>
      <point x="156.67924528301887" y="429.5849056603774" type="line" smooth="yes"/>
      <point x="156.67924528301887" y="390.2641509433962"/>
      <point x="173.21698113207546" y="370.97169811320754"/>
      <point x="199.16981132075472" y="370.97169811320754" type="curve" smooth="yes"/>
      <point x="230.24528301886792" y="370.97169811320754"/>
      <point x="414.7547169811321" y="370.97169811320754"/>
    </contour>
  </outline>
</glyph>
<glyph name="ae" format="2">
  <advance width="850.0"/>
  <unicode hex="00E6"/>
  <anchor x="425.0" y="546.9056603773585" name="top"/>
  <outline>
    <contour>
      <point x="240.9433962264151" y="545.9056603773585" type="curve" smooth="yes"/>
      <point x="166.4245283018868" y="545.9056603773585"/>
      <point x="115.82075471698114" y="535.7358490566038"/>
      <point x="95.99056603773586" y="515.9056603773585" type="curve" smooth="yes"/>
      <point x="80.91509433962266" y="500.8301886792453"/>
      <point x="75.7924528301887" y="474.8490566037736"/>
      <point x="75.7924528301887" y="451.35849056603774" type="curve" smooth="yes"/>
      <point x="75.7924528301887" y="429.79245283018867"/>
      <point x="76.08490566037737" y="411.3490566037736"/>
      <point x="80.20754716981133" y="397.85849056603774" type="curve"/>
      <point x="86.20754716981133" y="397.85849056603774" type="line"/>
      <point x="140.0188679245283" y="419.22641509433964"/>
      <point x="181.52830188679243" y="428.688679245283"/>
      <point x="242.8490566037736" y="428.688679245283" type="curve" smooth="yes"/>
      <point x="336.99056603773585" y="428.688679245283"/>
      <point x="366.0377358490566" y="397.5"/>
      <point x="366.0377358490566" y="330.8301886792453" type="curve"/>
      <point x="366.0377358490566" y="158.78301886792454" type="line"/>
      <point x="337.57547169811323" y="116.52830188679245"/>
      <point x="294.77358490566036" y="100.43396226415094"/>
      <point x="242.0943396226415" y="100.43396226415094" type="curve" smooth="yes"/>
      <point x="239.0943396226415" y="100.43396226415094" type="line" smooth="yes"/>
      <point x="199.39622641509433" y="100.43396226415094"/>
      <point x="178.08490566037736" y="119.69811320754717"/>
      <point x="178.08490566037736" y="167.5943396226415" type="curve" smooth="yes"/>
      <point x="178.08490566037736" y="174.13207547169813" type="line" smooth="yes"/>
      <point x="178.08490566037736" y="187.56603773584908"/>
      <point x="179.96226415094338" y="197.24528301886792"/>
      <point x="184.47169811320754" y="207.04716981132077" type="curve" smooth="yes"/>
      <point x="205.64150943396226" y="220.89622641509433"/>
      <point x="232.32075471698113" y="227.23584905660377"/>
      <point x="266.8018867924528" y="227.23584905660377" type="curve"/>
      <point x="317.14150943396226" y="227.23584905660377"/>
      <point x="358.50943396226415" y="223.23584905660377"/>
      <point x="422.0" y="208.99056603773585" type="curve"/>
      <point x="422.0" y="277.29245283018867" type="line"/>
      <point x="405.9245283018868" y="277.29245283018867" type="line"/>
      <point x="365.09433962264154" y="294.53773584905656"/>
      <point x="319.066037735849" y="313.3207547169811"/>
      <point x="234.74528301886792" y="313.3207547169811" type="curve" smooth="yes"/>
      <point x="144.8490566037736" y="313.3207547169811"/>
      <point x="57.33018867924528" y="233.04716981132074"/>
      <point x="57.33018867924528" y="154.6132075471698" type="curve" smooth="yes"/>
      <point x="57.33018867924528" y="141.12264150943398" type="line" smooth="yes"/>
      <point x="57.33018867924528" y="43.58490566037736"/>
      <point x="117.0377358490566" y="-10.0"/>
      <point x="223.82075471698113" y="-10.0" type="curve" smooth="yes"/>
      <point x="318.6509433962264" y="-10.0"/>
      <point x="400.50943396226415" y="38.55660377358491"/>
      <point x="437.9056603773585" y="107.04716981132074" type="curve"/>
      <point x="409.8018867924528" y="107.04716981132074" type="line"/>
      <point x="447.8301886792453" y="29.67924528301887"/>
      <point x="515.122641509434" y="-11.415094339622641"/>
      <point x="621.8584905660377" y="-11.415094339622641" type="curve" smooth="yes"/>
      <point x="682.4150943396227" y="-11.415094339622641"/>
      <point x="735.7830188679245" y="3.80188679245283"/>
      <point x="758.1981132075472" y="26.216981132075475" type="curve" smooth="yes"/>
      <point x="776.688679245283" y="44.70754716981132"/>
      <point x="785.2264150943396" y="69.19811320754718"/>
      <point x="785.2264150943396" y="95.27358490566039" type="curve"/>
      <point x="785.2264150943396" y="118.54716981132074"/>
      <point x="782.5188679245283" y="134.33018867924528"/>
      <point x="779.1037735849056" y="147.11320754716982" type="curve"/>
      <point x="773.1037735849056" y="147.11320754716982" type="line"/>
      <point x="726.688679245283" y="112.0188679245283"/>
      <point x="683.6132075471698" y="95.72641509433963"/>
      <point x="618.4433962264151" y="95.72641509433963" type="curve" smooth="yes"/>
      <point x="577.9528301886792" y="95.72641509433963"/>
      <point x="547.0" y="102.5566037735849"/>
      <point x="519.7547169811321" y="116.09433962264151" type="curve" smooth="yes"/>
      <point x="499.2264150943396" y="137.18867924528303"/>
      <point x="486.79245283018867" y="167.7169811320755"/>
      <point x="486.79245283018867" y="205.6320754716981" type="curve"/>
      <point x="486.79245283018867" y="304.24528301886795" type="line" smooth="yes"/>
      <point x="486.79245283018867" y="394.35849056603774"/>
      <point x="531.7641509433962" y="434.5188679245283"/>
      <point x="611.4150943396227" y="434.5188679245283" type="curve" smooth="yes"/>
      <point x="627.1698113207547" y="434.5188679245283"/>
      <point x="639.7547169811321" y="433.2264150943396"/>
      <point x="651.2169811320755" y="429.64150943396226" type="curve" smooth="yes"/>
      <point x="666.1603773584906" y="413.54716981132077"/>
      <point x="671.9622641509434" y="392.0660377358491"/>
      <point x="671.9622641509434" y="358.75471698113205" type="curve"/>
      <point x="671.9622641509434" y="309.9339622641509"/>
      <point x="636.1603773584906" y="290.25471698113205"/>
      <point x="558.6792452830189" y="290.25471698113205" type="curve"/>
      <point x="512.5849056603773" y="290.25471698113205"/>
      <point x="484.33962264150944" y="293.9622641509434"/>
      <point x="444.5660377358491" y="304.7169811320755" type="curve"/>
      <point x="444.5660377358491" y="226.67924528301887" type="line"/>
      <point x="457.811320754717" y="235.87735849056602" type="line"/>
      <point x="476.811320754717" y="218.33962264150944"/>
      <point x="525.1037735849056" y="209.29245283018867"/>
      <point x="592.4905660377359" y="209.29245283018867" type="curve" smooth="yes"/>
      <point x="719.6415094339624" y="209.29245283018867"/>
      <point x="794.8396226415094" y="258.8018867924529"/>
      <point x="794.8396226415094" y="357.1698113207547" type="curve" smooth="yes"/>
      <point x="794.8396226415094" y="361.877358490566"/>
      <point x="794.8396226415094" y="367.58490566037733"/>
      <point x="794.8396226415094" y="372.29245283018867" type="curve" smooth="yes"/>
      <point x="794.8396226415094" y="475.5036328532047"/>
      <point x="718.9811320754717" y="547.3207547169811"/>
      <point x="624.0283018867924" y="547.3207547169811" type="curve" smooth="yes"/>
      <point x="530.9056603773586" y="547.3207547169811"/>
      <point x="458.1981132075472" y="506.0566037735849"/>
      <point x="413.50943396226415" y="431.25471698113205" type="curve"/>
      <point x="431.87735849056605" y="431.25471698113205" type="line"/>
      <point x="400.5754716981132" y="502.688679245283"/>
      <point x="348.6037735849057" y="545.9056603773585"/>
    </contour>
  </outline>
</glyph>
<glyph name="dcaron" format="2">
  <advance width="700.0"/>
  <unicode hex="010F"/>
  <outline>
    <contour>
      <point x="627.1981132075471" y="519.4339622641509" type="curve" smooth="yes"/>
      <point x="644.2735849056604" y="519.4339622641509"/>
      <point x="653.3962264150944" y="522.433962264151"/>
      <point x="664.3490566037736" y="533.9716981132076" type="curve" smooth="yes"/>
      <point x="695.6698113207548" y="567.0471698113208"/>
      <point x="710.4245283018868" y="623.0943396226414"/>
      <point x="710.4245283018869" y="675.3396226415094" type="curve" smooth="yes"/>
      <point x="710.4245283018869" y="701.8773584905659"/>
      <point x="688.3962264150944" y="716.7830188679245"/>
      <point x="648.7547169811321" y="716.7830188679245" type="curve" smooth="yes"/>
      <point x="632.0943396226415" y="716.7830188679245"/>
      <point x="620.0188679245283" y="714.7830188679245"/>
      <point x="601.6981132075472" y="708.9528301886792" type="curve"/>
      <point x="601.6981132075472" y="624.0943396226414"/>
      <point x="597.5283018867925" y="596.9245283018869"/>
      <point x="580.7264150943396" y="529.6792452830189" type="curve"/>
      <point x="594.5094339622642" y="522.1415094339623"/>
      <point x="606.4622641509434" y="519.4339622641509"/>
    </contour>
    <contour>
      <point x="262.57547169811323" y="547.3207547169811" type="curve" smooth="yes"/>
      <point x="152.4622641509434" y="547.3207547169811"/>
      <point x="50.23584905660378" y="449.73584905660374"/>
      <point x="50.23584905660378" y="216.24528301886792" type="curve" smooth="yes"/>
      <point x="50.23584905660378" y="195.70754716981133" type="line" smooth="yes"/>
      <point x="50.23584905660378" y="79.32075471698113"/>
      <point x="122.26415094339623" y="-11.415094339622641"/>
      <point x="206.4056603773585" y="-11.415094339622641" type="curve" smooth="yes"/>
      <point x="283.5754716981132" y="-11.415094339622641"/>
      <point x="359.2830188679245" y="60.24528301886792"/>
      <point x="394.7924528301887" y="149.46226415094338" type="curve"/>
      <point x="410.91509433962267" y="149.46226415094338" type="line"/>
      <point x="410.91509433962267" y="314.6981132075472" type="line"/>
      <point x="361.4339622641509" y="168.04716981132077"/>
      <point x="298.2169811320755" y="117.12264150943396"/>
      <point x="218.3867924528302" y="117.12264150943396" type="curve" smooth="yes"/>
      <point x="203.85849056603774" y="117.12264150943396"/>
      <point x="191.66981132075472" y="122.38679245283019"/>
      <point x="181.69811320754715" y="134.2075471698113" type="curve" smooth="yes"/>
      <point x="175.82075471698113" y="158.47169811320754"/>
      <point x="174.52830188679243" y="183.9811320754717"/>
      <point x="174.52830188679243" y="221.81132075471697" type="curve" smooth="yes"/>
      <point x="174.52830188679243" y="232.22641509433961" type="line" smooth="yes"/>
      <point x="174.52830188679243" y="361.8679245283019"/>
      <point x="215.2075471698113" y="430.811320754717"/>
      <point x="299.73584905660374" y="430.811320754717" type="curve" smooth="yes"/>
      <point x="349.4622641509434" y="430.811320754717"/>
      <point x="382.0943396226415" y="414.4716981132076"/>
      <point x="415.16037735849056" y="376.7735849056604" type="curve"/>
      <point x="415.16037735849056" y="471.12264150943395" type="line"/>
      <point x="395.5" y="471.12264150943395" type="line"/>
      <point x="372.2830188679245" y="511.83018867924534"/>
      <point x="321.8207547169811" y="547.3207547169811"/>
    </contour>
    <contour>
      <point x="420.2358490566038" y="756.5849056603773" type="curve"/>
      <point x="408.16037735849056" y="756.5849056603773"/>
      <point x="395.7924528301887" y="754.1698113207547"/>
      <point x="383.7169811320755" y="751.4622641509434" type="curve"/>
      <point x="396.2547169811321" y="726.5849056603773"/>
      <point x="401.0849056603774" y="693.066037735849"/>
      <point x="401.0849056603774" y="655.9716981132076" type="curve"/>
      <point x="401.0849056603774" y="466.1698113207547"/>
      <point x="401.0849056603774" y="327.4339622641509"/>
      <point x="401.0849056603774" y="129.8490566037736" type="curve"/>
      <point x="401.0849056603774" y="57.62264150943396"/>
      <point x="427.74528301886795" y="-6.122641509433962"/>
      <point x="493.49056603773585" y="-6.122641509433962" type="curve" smooth="yes"/>
      <point x="509.1037735849057" y="-6.122641509433962"/>
      <point x="521.4716981132075" y="-3.0"/>
      <point x="537.0849056603773" y="0.4150943396226414" type="curve"/>
      <point x="525.2547169811321" y="37.32075471698113"/>
      <point x="521.8396226415094" y="68.00943396226415"/>
      <point x="521.8396226415094" y="110.05660377358491" type="curve" smooth="yes"/>
      <point x="521.8396226415094" y="275.8018867924529"/>
      <point x="521.8396226415094" y="438.59433962264154"/>
      <point x="521.8396226415094" y="610.0" type="curve"/>
      <point x="521.8396226415094" y="722.433962264151"/>
      <point x="473.2452830188679" y="756.5849056603773"/>
    </contour>
  </outline>
</glyph>
<glyph name="lcaron" format="2">
  <advance width="450.0"/>
  <unicode hex="013E"/>
  <outline>
    <contour>
      <point x="345.7830188679245" y="561.9433962264151" type="curve" smooth="yes"/>
      <point x="362.8584905660377" y="561.9433962264151"/>
      <point x="371.39622641509436" y="564.6509433962264"/>
      <point x="382.3490566037736" y="575.6037735849056" type="curve" smooth="yes"/>
      <point x="416.3018867924529" y="609.5566037735849"/>
      <point x="429.59433962264154" y="661.5094339622642"/>
      <point x="429.59433962264154" y="715.8018867924528" type="curve" smooth="yes"/>
      <point x="429.59433962264154" y="743.5094339622642"/>
      <point x="409.811320754717" y="759.2924528301887"/>
      <point x="374.41509433962267" y="759.2924528301887" type="curve" smooth="yes"/>
      <point x="357.75471698113205" y="759.2924528301887"/>
      <point x="345.6792452830189" y="757.2924528301887"/>
      <point x="327.35849056603774" y="751.4622641509434" type="curve"/>
      <point x="327.35849056603774" y="666.6037735849056"/>
      <point x="323.188679245283" y="639.4339622641509"/>
      <point x="306.3867924528302" y="572.188679245283" type="curve"/>
      <point x="318.75471698113205" y="565.3584905660376"/>
      <point x="328.0" y="561.9433962264151"/>
    </contour>
    <component base="l.sans"/>
  </outline>
</glyph>
<glyph name="Ldot" format="2">
  <advance width="550.0"/>
  <unicode hex="013F"/>
  <outline>
    <contour>
      <point x="363.5" y="489.1132075471698" type="curve"/>
      <point x="363.5" y="406.688679245283" type="line" smooth="yes"/>
      <point x="363.5" y="362.04716981132077"/>
      <point x="398.0660377358491" y="352.5849056603774"/>
      <point x="443.2169811320755" y="352.5849056603774" type="curve" smooth="yes"/>
      <point x="463.0" y="352.5849056603774"/>
      <point x="487.15094339622635" y="354.2924528301887"/>
      <point x="507.1792452830189" y="357.70754716981133" type="curve"/>
      <point x="507.1792452830189" y="440.1320754716981" type="line" smooth="yes"/>
      <point x="507.1792452830189" y="484.77358490566036"/>
      <point x="472.9056603773585" y="494.23584905660374"/>
      <point x="427.4622641509434" y="494.23584905660374" type="curve"/>
      <point x="407.6792452830189" y="494.23584905660374"/>
      <point x="383.52830188679246" y="492.5283018867924"/>
    </contour>
    <component base="L"/>
  </outline>
</glyph>
<glyph name="OE" format="2">
  <advance width="800.0"/>
  <unicode hex="0152"/>
  <outline>
    <contour>
      <point x="263.8962264150943" y="708.8301886792453" type="curve" smooth="yes"/>
      <point x="133.8490566037736" y="708.8301886792453"/>
      <point x="57.31132075471698" y="579.5188679245283"/>
      <point x="57.31132075471698" y="339.95283018867923" type="curve" smooth="yes"/>
      <point x="57.31132075471698" y="319.85849056603774" type="line" smooth="yes"/>
      <point x="57.31132075471698" y="99.43396226415095"/>
      <point x="128.43396226415095" y="-8.830188679245282"/>
      <point x="265.8962264150943" y="-8.830188679245282" type="curve" smooth="yes"/>
      <point x="338.2641509433962" y="-8.830188679245282"/>
      <point x="390.97169811320754" y="26.462264150943398"/>
      <point x="418.7264150943396" y="94.04716981132076" type="curve"/>
      <point x="400.188679245283" y="96.63207547169812" type="line"/>
      <point x="400.188679245283" y="68.30188679245282" type="line" smooth="yes"/>
      <point x="412.9245283018868" y="26.660377358490564"/>
      <point x="438.1981132075472" y="0.0"/>
      <point x="468.3018867924528" y="0.0" type="curve" smooth="yes"/>
      <point x="750.7075471698114" y="0.0" type="line"/>
      <point x="753.5377358490566" y="11.49056603773585"/>
      <point x="754.9528301886793" y="26.81132075471698"/>
      <point x="754.9528301886793" y="43.96226415094338" type="curve" smooth="yes"/>
      <point x="754.9528301886793" y="99.26415094339622"/>
      <point x="740.5849056603773" y="120.75471698113206"/>
      <point x="704.3584905660377" y="120.75471698113206" type="curve" smooth="yes"/>
      <point x="508.91509433962256" y="120.75471698113206" type="line"/>
      <point x="508.91509433962256" y="245.5297295784434"/>
      <point x="508.91509433962256" y="371.79245283018867"/>
      <point x="508.91509433962256" y="496.31132075471703" type="curve" smooth="yes"/>
      <point x="508.91509433962256" y="533.2169811320755"/>
      <point x="499.9622641509434" y="557.7075471698113"/>
      <point x="477.9339622641509" y="573.8301886792453" type="curve"/>
      <point x="485.7641509433962" y="597.2735849056604" type="line"/>
      <point x="395.2358490566038" y="597.2735849056604" type="line"/>
      <point x="395.2358490566038" y="459.35849056603774"/>
      <point x="395.2358490566038" y="321.7358490566038"/>
      <point x="395.2358490566038" y="184.4056603773585" type="curve"/>
      <point x="365.0188679245283" y="120.99056603773585"/>
      <point x="337.6792452830189" y="99.31132075471697"/>
      <point x="288.1698113207547" y="99.31132075471697" type="curve" smooth="yes"/>
      <point x="218.20754716981133" y="99.31132075471697"/>
      <point x="178.06603773584905" y="158.47169811320754"/>
      <point x="178.06603773584905" y="302.8018867924528" type="curve" smooth="yes"/>
      <point x="178.06603773584905" y="318.72641509433964" type="line" smooth="yes"/>
      <point x="178.06603773584905" y="497.7452830188679"/>
      <point x="218.5" y="595.7358490566038"/>
      <point x="285.8301886792453" y="595.7358490566038" type="curve" smooth="yes"/>
      <point x="338.21698113207543" y="595.7358490566038"/>
      <point x="364.5566037735849" y="572.3490566037735"/>
      <point x="395.2358490566038" y="516.5" type="curve"/>
      <point x="444.41509433962267" y="579.2452830188679" type="line"/>
      <point x="749.122641509434" y="579.2452830188679" type="line"/>
      <point x="753.2452830188679" y="590.6132075471698"/>
      <point x="754.9528301886793" y="605.8113207547169"/>
      <point x="754.9528301886793" y="622.4245283018868" type="curve" smooth="yes"/>
      <point x="754.9528301886793" y="674.1415094339623"/>
      <point x="736.0471698113208" y="700.0"/>
      <point x="698.9433962264151" y="700.0" type="curve"/>
      <point x="395.2358490566038" y="700.0" type="line"/>
      <point x="395.2358490566038" y="632.9528301886793" type="line"/>
      <point x="365.4056603773585" y="684.1509433962264"/>
      <point x="315.62264150943395" y="708.8301886792453"/>
    </contour>
    <contour>
      <point x="469.39622641509436" y="364.1509433962264" type="line"/>
      <point x="469.39622641509436" y="257.54716981132077" type="line"/>
      <point x="723.4622641509434" y="257.54716981132077" type="line"/>
      <point x="726.1698113207547" y="267.20754716981133"/>
      <point x="727.877358490566" y="278.5754716981132"/>
      <point x="727.877358490566" y="291.35849056603774" type="curve" smooth="yes"/>
      <point x="727.877358490566" y="341.3679245283019"/>
      <point x="713.0943396226415" y="364.1509433962264"/>
      <point x="677.9905660377358" y="364.1509433962264" type="curve"/>
    </contour>
  </outline>
</glyph>
<glyph name="tbar" format="2">
  <advance width="500.0"/>
  <unicode hex="0167"/>
  <outline>
    <contour>
      <point x="35.801886792452834" y="332.7830188679245" type="line"/>
      <point x="35.801886792452834" y="329.07547169811323"/>
      <point x="35.801886792452834" y="325.07547169811323"/>
      <point x="35.801886792452834" y="320.66037735849056" type="curve" smooth="yes"/>
      <point x="35.801886792452834" y="245.7169811320755"/>
      <point x="49.58490566037736" y="228.30188679245282"/>
      <point x="88.51886792452831" y="228.30188679245282" type="curve" smooth="yes"/>
      <point x="446.9339622641509" y="228.30188679245282" type="line"/>
      <point x="448.3490566037736" y="239.08490566037736"/>
      <point x="449.7641509433962" y="251.57547169811323"/>
      <point x="449.7641509433962" y="261.6509433962264" type="curve" smooth="yes"/>
      <point x="449.7641509433962" y="311.95283018867923"/>
      <point x="439.811320754717" y="332.7830188679245"/>
      <point x="407.66037735849056" y="332.7830188679245" type="curve"/>
    </contour>
    <component base="t"/>
  </outline>
</glyph>
<glyph name="Schwa" format="2">
  <advance width="600.0"/>
  <unicode hex="018F"/>
  <outline>
    <contour>
      <point x="270.33962264150944" y="713.9528301886793" type="curve" smooth="yes"/>
      <point x="180.1132075471698" y="713.9528301886793"/>
      <point x="120.09433962264151" y="698.4433962264151"/>
      <point x="91.80188679245283" y="668.7358490566038" type="curve" smooth="yes"/>
      <point x="74.72641509433963" y="650.2452830188679"/>
      <point x="67.89622641509435" y="623.5094339622642"/>
      <point x="67.89622641509435" y="583.3584905660377" type="curve" smooth="yes"/>
      <point x="67.89622641509435" y="573.4056603773585"/>
      <point x="68.89622641509435" y="561.8679245283018"/>
      <point x="71.31132075471699" y="551.5" type="curve"/>
      <point x="75.89622641509433" y="551.5" type="line"/>
      <point x="133.38679245283018" y="582.811320754717"/>
      <point x="205.49056603773585" y="600.2735849056604"/>
      <point x="275.122641509434" y="600.2735849056604" type="curve" smooth="yes"/>
      <point x="316.311320754717" y="600.2735849056604"/>
      <point x="341.20754716981133" y="593.5943396226415"/>
      <point x="365.1037735849057" y="577.066037735849" type="curve" smooth="yes"/>
      <point x="403.5188679245283" y="530.188679245283"/>
      <point x="422.5188679245283" y="459.311320754717"/>
      <point x="422.5188679245283" y="359.94339622641513" type="curve"/>
      <point x="422.5188679245283" y="351.4339622641509" type="line" smooth="yes"/>
      <point x="422.5188679245283" y="177.83962264150944"/>
      <point x="368.3301886792453" y="97.31132075471697"/>
      <point x="262.89622641509436" y="97.31132075471697" type="curve" smooth="yes"/>
      <point x="238.12264150943398" y="97.31132075471697"/>
      <point x="217.73584905660377" y="101.06603773584905"/>
      <point x="198.3490566037736" y="109.45283018867924" type="curve" smooth="yes"/>
      <point x="184.45283018867923" y="131.66981132075472"/>
      <point x="176.6509433962264" y="170.47169811320754"/>
      <point x="176.6509433962264" y="218.3679245283019" type="curve"/>
      <point x="176.6509433962264" y="331.35849056603774" type="line"/>
      <point x="266.811320754717" y="331.35849056603774"/>
      <point x="355.97169811320754" y="331.35849056603774"/>
      <point x="446.1320754716981" y="331.35849056603774" type="curve"/>
      <point x="445.25471698113205" y="402.7075471698113" type="line"/>
      <point x="416.10377358490564" y="388.75471698113205" type="line"/>
      <point x="392.122641509434" y="413.1509433962264"/>
      <point x="354.6037735849057" y="424.9339622641509"/>
      <point x="302.22641509433964" y="424.9339622641509" type="curve"/>
      <point x="136.02830188679246" y="424.9339622641509" type="line" smooth="yes"/>
      <point x="69.89622641509435" y="424.9339622641509"/>
      <point x="50.23584905660378" y="400.64150943396226"/>
      <point x="50.23584905660378" y="320.95283018867923" type="curve" smooth="yes"/>
      <point x="50.23584905660378" y="222.36792452830187" type="line" smooth="yes"/>
      <point x="50.23584905660378" y="71.33962264150944"/>
      <point x="133.18867924528303" y="-14.245283018867925"/>
      <point x="280.29245283018867" y="-14.245283018867925" type="curve" smooth="yes"/>
      <point x="427.7641509433962" y="-14.245283018867925"/>
      <point x="542.6886792452831" y="113.54716981132076"/>
      <point x="542.6886792452831" y="341.6037735849057" type="curve" smooth="yes"/>
      <point x="542.6886792452831" y="348.9905660377359" type="line" smooth="yes"/>
      <point x="542.6886792452831" y="577.2641509433962"/>
      <point x="436.70754716981133" y="713.9528301886793"/>
    </contour>
  </outline>
</glyph>
<glyph name="DZcaron" format="2">
  <advance width="1250.0"/>
  <unicode hex="01C4"/>
  <outline>
    <contour>
      <point x="308.33962264150944" y="720.0" type="curve"/>
      <point x="220.20754716981133" y="720.0"/>
      <point x="128.54716981132074" y="714.877358490566"/>
      <point x="38.867924528301884" y="700.0" type="curve"/>
      <point x="36.0377358490566" y="687.0943396226414"/>
      <point x="34.62264150943396" y="673.8962264150944"/>
      <point x="34.62264150943396" y="656.7452830188679" type="curve"/>
      <point x="34.62264150943396" y="604.1509433962265"/>
      <point x="45.867924528301884" y="579.2452830188679"/>
      <point x="73.65094339622642" y="579.2452830188679" type="curve" smooth="yes"/>
      <point x="94.06603773584906" y="579.2452830188679"/>
      <point x="170.33018867924528" y="599.2452830188679"/>
      <point x="292.5283018867924" y="599.2452830188679" type="curve" smooth="yes"/>
      <point x="359.08490566037733" y="599.2452830188679"/>
      <point x="403.76415094339626" y="588.6132075471697"/>
      <point x="443.933962264151" y="563.933962264151" type="curve" smooth="yes"/>
      <point x="464.2452830188679" y="524.377358490566"/>
      <point x="472.12264150943395" y="479.0660377358491"/>
      <point x="472.12264150943395" y="399.4905660377359" type="curve" smooth="yes"/>
      <point x="472.12264150943395" y="389.49056603773585" type="line" smooth="yes"/>
      <point x="472.12264150943395" y="212.57547169811318"/>
      <point x="373.47169811320754" y="114.29245283018867"/>
      <point x="251.84905660377356" y="114.29245283018867" type="curve" smooth="yes"/>
      <point x="239.66037735849056" y="114.29245283018867"/>
      <point x="224.66981132075472" y="115.75471698113206"/>
      <point x="215.99056603773585" y="118.0943396226415" type="curve"/>
      <point x="215.99056603773585" y="249.73584905660377"/>
      <point x="215.99056603773585" y="382.5471698113207"/>
      <point x="215.99056603773585" y="510.67924528301893" type="curve" smooth="yes"/>
      <point x="215.99056603773585" y="546.0"/>
      <point x="205.91509433962264" y="570.0754716981132"/>
      <point x="184.00943396226415" y="587.9056603773585" type="curve"/>
      <point x="194.7641509433962" y="616.7830188679245" type="line"/>
      <point x="88.16037735849056" y="616.7830188679245" type="line"/>
      <point x="88.16037735849056" y="444.9433962264151"/>
      <point x="88.16037735849056" y="272.64150943396226"/>
      <point x="88.16037735849056" y="94.28301886792453" type="curve"/>
      <point x="88.16037735849056" y="68.25471698113208"/>
      <point x="92.99056603773585" y="58.839622641509436"/>
      <point x="114.14150943396226" y="37.68867924528302" type="curve" smooth="yes"/>
      <point x="146.75471698113208" y="5.660377358490566"/>
      <point x="205.7830188679245" y="-10.0"/>
      <point x="266.1698113207547" y="-10.0" type="curve" smooth="yes"/>
      <point x="446.97169811320754" y="-10.0"/>
      <point x="598.5377358490566" y="143.6320754716981"/>
      <point x="598.5377358490566" y="393.3490566037736" type="curve" smooth="yes"/>
      <point x="598.5377358490566" y="415.2452830188679" type="line" smooth="yes"/>
      <point x="598.5377358490566" y="622.9245283018868"/>
      <point x="482.74528301886795" y="720.0"/>
    </contour>
    <contour>
      <point x="1149.9245283018868" y="0.0" type="line"/>
      <point x="1151.9245283018868" y="7.415094339622641"/>
      <point x="1152.9245283018868" y="16.537735849056602"/>
      <point x="1152.9245283018868" y="27.49056603773584" type="curve" smooth="yes"/>
      <point x="1152.9245283018868" y="81.28301886792451"/>
      <point x="1137.8490566037735" y="120.75471698113206"/>
      <point x="1084.0094339622642" y="120.75471698113206" type="curve"/>
      <point x="957.3018867924528" y="120.75471698113206" type="line"/>
      <point x="915.7358490566038" y="120.75471698113206"/>
      <point x="870.2169811320755" y="120.04716981132074"/>
      <point x="786.4811320754717" y="112.21698113207546" type="curve"/>
      <point x="814.7264150943396" y="95.26415094339623" type="line"/>
      <point x="812.9716981132076" y="146.7075471698113" type="line"/>
      <point x="789.8962264150944" y="101.09433962264151" type="line"/>
      <point x="853.9528301886792" y="152.17924528301887"/>
      <point x="912.2358490566037" y="208.55660377358492"/>
      <point x="960.9622641509434" y="265.3018867924528" type="curve" smooth="yes"/>
      <point x="1072.8396226415095" y="388.7547169811321"/>
      <point x="1152.2169811320755" y="514.5566037735849"/>
      <point x="1152.9245283018868" y="568.632075471698" type="curve"/>
      <point x="1152.9245283018868" y="575.877358490566" type="line" smooth="yes"/>
      <point x="1152.9245283018868" y="662.6792452830189"/>
      <point x="1133.0471698113208" y="700.0"/>
      <point x="1084.1415094339623" y="700.0" type="curve"/>
      <point x="718.7735849056603" y="700.0" type="line"/>
      <point x="704.8679245283018" y="657.5754716981132"/>
      <point x="721.6037735849056" y="582.7830188679245"/>
      <point x="772.0283018867925" y="582.7830188679245" type="curve"/>
      <point x="931.5188679245283" y="582.7830188679245" type="line"/>
      <point x="984.132075471698" y="582.7830188679245"/>
      <point x="1015.1132075471698" y="586.9056603773586"/>
      <point x="1053.2169811320755" y="599.5660377358491" type="curve"/>
      <point x="1020.4150943396227" y="621.5188679245283" type="line"/>
      <point x="1029.4811320754716" y="550.8773584905659" type="line"/>
      <point x="1038.754716981132" y="617.2735849056604" type="line"/>
      <point x="1011.8018867924527" y="542.7264150943396"/>
      <point x="975.6132075471698" y="473.88679245283015"/>
      <point x="931.745283018868" y="410.2169811320755" type="curve" smooth="yes"/>
      <point x="858.5754716981132" y="300.6792452830189"/>
      <point x="771.8962264150944" y="209.04716981132074"/>
      <point x="658.7735849056604" y="113.67924528301887" type="curve"/>
      <point x="658.7735849056604" y="100.14150943396226" type="line" smooth="yes"/>
      <point x="658.7735849056604" y="38.22641509433962"/>
      <point x="675.0943396226415" y="0.0"/>
      <point x="729.8867924528303" y="0.0" type="curve" smooth="yes"/>
    </contour>
    <contour>
      <point x="793.9622641509434" y="515.2075471698114" type="curve"/>
      <point x="793.9622641509434" y="615.9433962264152"/>
      <point x="819.5471698113207" y="665.8396226415094"/>
      <point x="819.8396226415094" y="715.6792452830189" type="curve"/>
      <point x="820.132075471698" y="741.4622641509434"/>
      <point x="791.3962264150942" y="757.0754716981132"/>
      <point x="718.5283018867924" y="757.0754716981132" type="curve"/>
      <point x="691.5754716981132" y="699.5377358490566"/>
      <point x="674.622641509434" y="630.2924528301887"/>
      <point x="674.622641509434" y="560.9716981132076" type="curve"/>
      <point x="674.622641509434" y="523.1603773584906"/>
      <point x="695.2830188679245" y="510.3773584905661"/>
      <point x="748.5377358490566" y="510.3773584905661" type="curve" smooth="yes"/>
      <point x="766.2735849056604" y="510.3773584905661"/>
      <point x="782.4716981132076" y="512.0849056603774"/>
    </contour>
    <contour>
      <point x="953.4716981132075" y="779.3867924528302" type="curve"/>
      <point x="1005.8113207547169" y="801.5094339622641"/>
      <point x="1055.8113207547171" y="838.0943396226414"/>
      <point x="1089.8584905660377" y="876.5566037735849" type="curve" smooth="yes"/>
      <point x="1109.0283018867924" y="898.1415094339623"/>
      <point x="1116.0283018867924" y="915.1415094339623"/>
      <point x="1116.0283018867924" y="923.5566037735849" type="curve" smooth="yes"/>
      <point x="1116.0283018867924" y="938.5094339622641"/>
      <point x="1092.3396226415095" y="950.1698113207548"/>
      <point x="1026.3490566037735" y="950.1698113207548" type="curve" smooth="yes"/>
      <point x="1020.3490566037735" y="950.1698113207548" type="line"/>
      <point x="996.4245283018868" y="918.7358490566037"/>
      <point x="954.9905660377358" y="882.0566037735849"/>
      <point x="884.6792452830189" y="842.2264150943396" type="curve"/>
      <point x="940.5566037735849" y="857.0566037735849" type="line"/>
      <point x="917.8490566037735" y="857.0566037735849"/>
      <point x="895.8490566037735" y="857.0566037735849"/>
      <point x="873.1415094339623" y="857.0566037735849" type="curve"/>
      <point x="929.7264150943396" y="843.2264150943396" type="line"/>
      <point x="867.0" y="874.9339622641509"/>
      <point x="840.1509433962264" y="895.4905660377359"/>
      <point x="813.0566037735849" y="924.877358490566" type="curve" smooth="yes"/>
      <point x="798.1792452830189" y="941.0471698113207"/>
      <point x="784.3962264150944" y="949.2924528301887"/>
      <point x="755.4150943396227" y="949.2924528301887" type="curve" smooth="yes"/>
      <point x="725.7264150943397" y="949.2924528301887"/>
      <point x="705.6981132075472" y="945.877358490566"/>
      <point x="683.9622641509434" y="937.0471698113208" type="curve"/>
      <point x="718.8396226415094" y="878.0471698113208"/>
      <point x="761.7358490566038" y="839.122641509434"/>
      <point x="809.5188679245283" y="807.754716981132" type="curve" smooth="yes"/>
      <point x="847.3490566037735" y="783.2169811320755"/>
      <point x="869.6698113207548" y="779.3867924528302"/>
      <point x="905.5566037735849" y="779.3867924528302" type="curve" smooth="yes"/>
      <point x="921.2924528301887" y="779.3867924528302"/>
      <point x="937.7358490566038" y="779.3867924528302"/>
    </contour>
  </outline>
</glyph>
<glyph name="dzcaron" format="2">
  <advance width="1150.0"/>
  <unicode hex="01C6"/>
  <outline>
    <contour>
      <point x="262.57547169811323" y="547.3207547169811" type="curve" smooth="yes"/>
      <point x="152.46226415094338" y="547.3207547169811"/>
      <point x="50.23584905660377" y="449.73584905660374"/>
      <point x="50.23584905660377" y="216.24528301886792" type="curve" smooth="yes"/>
      <point x="50.23584905660377" y="195.70754716981133" type="line" smooth="yes"/>
      <point x="50.23584905660377" y="79.32075471698113"/>
      <point x="122.26415094339623" y="-11.415094339622641"/>
      <point x="206.40566037735852" y="-11.415094339622641" type="curve" smooth="yes"/>
      <point x="283.57547169811323" y="-11.415094339622641"/>
      <point x="359.2830188679245" y="60.24528301886792"/>
      <point x="394.79245283018867" y="149.46226415094338" type="curve"/>
      <point x="410.91509433962267" y="149.46226415094338" type="line"/>
      <point x="410.91509433962267" y="314.6981132075472" type="line"/>
      <point x="361.4339622641509" y="168.04716981132077"/>
      <point x="298.21698113207543" y="117.12264150943396"/>
      <point x="218.3867924528302" y="117.12264150943396" type="curve" smooth="yes"/>
      <point x="203.85849056603774" y="117.12264150943396"/>
      <point x="191.66981132075472" y="122.38679245283019"/>
      <point x="181.69811320754718" y="134.2075471698113" type="curve" smooth="yes"/>
      <point x="175.82075471698113" y="158.47169811320754"/>
      <point x="174.52830188679246" y="183.9811320754717"/>
      <point x="174.52830188679246" y="221.81132075471697" type="curve" smooth="yes"/>
      <point x="174.52830188679246" y="232.22641509433961" type="line" smooth="yes"/>
      <point x="174.52830188679246" y="361.8679245283019"/>
      <point x="215.20754716981133" y="430.811320754717"/>
      <point x="299.73584905660374" y="430.811320754717" type="curve" smooth="yes"/>
      <point x="349.4622641509434" y="430.811320754717"/>
      <point x="382.09433962264154" y="414.4716981132076"/>
      <point x="415.16037735849056" y="376.7735849056604" type="curve"/>
      <point x="415.16037735849056" y="471.12264150943395" type="line"/>
      <point x="395.5" y="471.12264150943395" type="line"/>
      <point x="372.2830188679245" y="511.83018867924534"/>
      <point x="321.8207547169811" y="547.3207547169811"/>
    </contour>
    <contour>
      <point x="420.23584905660374" y="756.5849056603773" type="curve"/>
      <point x="408.16037735849056" y="756.5849056603773"/>
      <point x="395.7924528301887" y="754.1698113207547"/>
      <point x="383.7169811320755" y="751.4622641509434" type="curve"/>
      <point x="396.2547169811321" y="726.5849056603773"/>
      <point x="401.0849056603774" y="693.066037735849"/>
      <point x="401.0849056603774" y="655.9716981132076" type="curve"/>
      <point x="401.0849056603774" y="466.1698113207547"/>
      <point x="401.0849056603774" y="327.4339622641509"/>
      <point x="401.0849056603774" y="129.8490566037736" type="curve"/>
      <point x="401.0849056603774" y="57.62264150943396"/>
      <point x="427.74528301886795" y="-6.122641509433962"/>
      <point x="493.49056603773585" y="-6.122641509433962" type="curve" smooth="yes"/>
      <point x="509.1037735849057" y="-6.122641509433962"/>
      <point x="521.4716981132075" y="-3.0"/>
      <point x="537.0849056603773" y="0.4150943396226414" type="curve"/>
      <point x="525.2547169811321" y="37.32075471698113"/>
      <point x="521.8396226415094" y="68.00943396226415"/>
      <point x="521.8396226415094" y="110.05660377358491" type="curve" smooth="yes"/>
      <point x="521.8396226415094" y="275.8018867924529"/>
      <point x="521.8396226415094" y="438.59433962264154"/>
      <point x="521.8396226415094" y="610.0" type="curve"/>
      <point x="521.8396226415094" y="722.433962264151"/>
      <point x="473.2452830188679" y="756.5849056603773"/>
    </contour>
    <contour>
      <point x="640.2641509433962" y="535.9056603773585" type="line"/>
      <point x="637.4339622641509" y="526.5377358490566"/>
      <point x="636.7264150943396" y="516.1698113207547"/>
      <point x="636.7264150943396" y="504.6792452830189" type="curve" smooth="yes"/>
      <point x="636.7264150943396" y="455.5"/>
      <point x="651.632075471698" y="415.1509433962264"/>
      <point x="694.3962264150944" y="415.1509433962264" type="curve" smooth="yes"/>
      <point x="938.688679245283" y="415.1509433962264" type="line"/>
      <point x="939.566037735849" y="408.7358490566038" type="line"/>
      <point x="920.9056603773586" y="386.3962264150943"/>
      <point x="905.6132075471698" y="367.5943396226415"/>
      <point x="887.3207547169811" y="345.6698113207547" type="curve" smooth="yes"/>
      <point x="815.1509433962265" y="257.9245283018868"/>
      <point x="728.7452830188679" y="178.45283018867926"/>
      <point x="636.7264150943396" y="111.63207547169812" type="curve"/>
      <point x="636.7264150943396" y="100.14150943396226" type="line" smooth="yes"/>
      <point x="636.7264150943396" y="47.424528301886795"/>
      <point x="648.8018867924528" y="0.0"/>
      <point x="689.4433962264151" y="0.0" type="curve" smooth="yes"/>
      <point x="1081.301886792453" y="0.0" type="line"/>
      <point x="1084.132075471698" y="12.90566037735849"/>
      <point x="1086.254716981132" y="30.349056603773583"/>
      <point x="1086.254716981132" y="47.499999999999986" type="curve" smooth="yes"/>
      <point x="1086.254716981132" y="100.92452830188678"/>
      <point x="1072.7641509433963" y="120.75471698113206"/>
      <point x="1026.4622641509434" y="120.75471698113206" type="curve"/>
      <point x="788.6037735849058" y="120.75471698113206" type="line"/>
      <point x="788.0188679245283" y="127.16981132075472" type="line"/>
      <point x="812.2641509433962" y="138.9245283018868"/>
      <point x="836.5094339622641" y="150.38679245283018"/>
      <point x="859.0471698113208" y="166.97169811320754" type="curve" smooth="yes"/>
      <point x="987.4528301886792" y="262.78301886792457"/>
      <point x="1086.254716981132" y="396.44339622641513"/>
      <point x="1086.254716981132" y="430.1037735849057" type="curve"/>
      <point x="1086.254716981132" y="436.3490566037736" type="line" smooth="yes"/>
      <point x="1086.254716981132" y="479.7452830188679"/>
      <point x="1055.7358490566037" y="535.9056603773585"/>
      <point x="1010.1886792452831" y="535.9056603773585" type="curve"/>
    </contour>
    <contour>
      <point x="890.7169811320754" y="633.9245283018868" type="curve"/>
      <point x="939.5188679245283" y="655.2169811320755"/>
      <point x="1000.1320754716982" y="701.0471698113208"/>
      <point x="1032.056603773585" y="745.6320754716982" type="curve" smooth="yes"/>
      <point x="1049.811320754717" y="770.9245283018868"/>
      <point x="1056.811320754717" y="788.9245283018868"/>
      <point x="1056.811320754717" y="799.7547169811321" type="curve" smooth="yes"/>
      <point x="1056.811320754717" y="816.4150943396227"/>
      <point x="1028.1698113207547" y="829.7830188679245"/>
      <point x="974.2075471698113" y="829.7830188679245" type="curve" smooth="yes"/>
      <point x="968.2075471698114" y="829.7830188679245" type="line"/>
      <point x="946.4056603773586" y="791.6415094339623"/>
      <point x="907.5094339622642" y="751.6698113207547"/>
      <point x="839.6132075471698" y="706.254716981132" type="curve"/>
      <point x="893.7830188679245" y="722.7924528301886" type="line"/>
      <point x="828.0754716981132" y="722.7924528301886" type="line"/>
      <point x="883.9528301886793" y="707.9622641509434" type="line"/>
      <point x="824.7641509433962" y="741.4245283018869"/>
      <point x="797.2075471698114" y="767.1037735849056"/>
      <point x="775.066037735849" y="795.8301886792453" type="curve" smooth="yes"/>
      <point x="754.5283018867925" y="822.4905660377359"/>
      <point x="743.5754716981132" y="828.9056603773586"/>
      <point x="718.1320754716982" y="828.9056603773586" type="curve" smooth="yes"/>
      <point x="690.566037735849" y="828.9056603773586"/>
      <point x="670.5377358490566" y="824.7830188679245"/>
      <point x="651.632075471698" y="812.8301886792453" type="curve"/>
      <point x="684.3867924528302" y="746.8301886792453"/>
      <point x="732.2358490566038" y="697.9528301886793"/>
      <point x="778.6037735849056" y="664.5849056603773" type="curve" smooth="yes"/>
      <point x="815.7264150943397" y="637.7547169811321"/>
      <point x="832.3867924528303" y="633.9245283018868"/>
      <point x="862.6132075471698" y="633.9245283018868" type="curve" smooth="yes"/>
      <point x="875.5188679245283" y="633.9245283018868"/>
      <point x="882.7641509433962" y="633.9245283018868"/>
    </contour>
  </outline>
</glyph>
<glyph name="Lj" format="2">
  <advance width="850.0"/>
  <unicode hex="01C8"/>
  <outline>
    <contour>
      <point x="157.1509433962264" y="0.0" type="curve" smooth="yes"/>
      <point x="465.46226415094344" y="0.0" type="line"/>
      <point x="473.2452830188679" y="80.9433962264151"/>
      <point x="455.9245283018868" y="120.75471698113208"/>
      <point x="409.20754716981133" y="120.75471698113208" type="curve" smooth="yes"/>
      <point x="205.11320754716982" y="120.75471698113208" type="line"/>
      <point x="205.11320754716982" y="292.45283018867923"/>
      <point x="205.11320754716982" y="470.0566037735849"/>
      <point x="205.11320754716982" y="627.6037735849056" type="curve"/>
      <point x="205.11320754716982" y="686.5660377358491"/>
      <point x="187.54716981132074" y="708.8301886792453"/>
      <point x="126.78301886792454" y="708.8301886792453" type="curve" smooth="yes"/>
      <point x="103.21698113207547" y="708.8301886792453"/>
      <point x="84.06603773584905" y="705.7075471698113"/>
      <point x="66.03773584905662" y="700.877358490566" type="curve"/>
      <point x="74.16037735849056" y="666.5849056603773"/>
      <point x="77.28301886792454" y="635.2641509433962"/>
      <point x="77.28301886792454" y="592.9245283018869" type="curve" smooth="yes"/>
      <point x="77.28301886792454" y="436.64150943396226"/>
      <point x="77.28301886792454" y="280.4811320754717"/>
      <point x="77.28301886792454" y="128.0" type="curve" smooth="yes"/>
      <point x="77.28301886792454" y="69.28301886792453"/>
      <point x="102.60377358490567" y="0.0"/>
    </contour>
    <contour>
      <point x="402.76415094339626" y="221.79245283018867" type="curve"/>
      <point x="402.76415094339626" y="110.15094339622642"/>
      <point x="377.1792452830189" y="52.20754716981132"/>
      <point x="376.8867924528302" y="-4.0" type="curve" smooth="yes"/>
      <point x="376.59433962264154" y="-26.24528301886793"/>
      <point x="400.37735849056605" y="-39.735849056603776"/>
      <point x="460.63207547169816" y="-39.73584905660377" type="curve"/>
      <point x="490.41509433962267" y="24.169811320754718"/>
      <point x="515.0283018867925" y="99.87735849056604"/>
      <point x="515.0283018867925" y="174.85849056603774" type="curve" smooth="yes"/>
      <point x="515.0283018867925" y="212.66981132075472"/>
      <point x="495.61320754716985" y="226.0377358490566"/>
      <point x="446.72641509433964" y="226.0377358490566" type="curve" smooth="yes"/>
      <point x="429.57547169811323" y="226.0377358490566"/>
      <point x="414.2547169811321" y="224.62264150943395"/>
    </contour>
    <contour>
      <point x="647.5471698113207" y="545.9056603773585" type="curve" smooth="yes"/>
      <point x="614.9433962264152" y="545.9056603773585"/>
      <point x="572.8490566037736" y="542.7358490566038"/>
      <point x="538.0471698113207" y="538.7358490566038" type="curve"/>
      <point x="534.632075471698" y="526.6603773584906"/>
      <point x="532.9245283018868" y="510.4622641509434"/>
      <point x="532.9245283018868" y="491.8490566037736" type="curve" smooth="yes"/>
      <point x="532.9245283018868" y="444.37735849056605"/>
      <point x="545.877358490566" y="417.9811320754717"/>
      <point x="570.7830188679245" y="417.9811320754717" type="curve" smooth="yes"/>
      <point x="590.5377358490566" y="417.9811320754717"/>
      <point x="614.8962264150944" y="423.85849056603774"/>
      <point x="641.5471698113208" y="432.811320754717" type="curve"/>
      <point x="647.5471698113208" y="429.1037735849057" type="line"/>
      <point x="647.5471698113208" y="282.99056603773585"/>
      <point x="647.5471698113208" y="176.16981132075472"/>
      <point x="647.5471698113208" y="30.05660377358491" type="curve" smooth="yes"/>
      <point x="647.5471698113208" y="-15.424528301886795"/>
      <point x="644.9150943396227" y="-50.76415094339623"/>
      <point x="633.0188679245283" y="-80.68867924528303" type="curve"/>
      <point x="622.0943396226414" y="-86.19811320754718"/>
      <point x="610.0" y="-89.24528301886794"/>
      <point x="594.1981132075472" y="-89.24528301886794" type="curve" smooth="yes"/>
      <point x="562.7358490566037" y="-89.24528301886794"/>
      <point x="542.4905660377358" y="-84.66037735849058"/>
      <point x="513.9528301886793" y="-70.49056603773586" type="curve"/>
      <point x="508.24528301886795" y="-70.49056603773586" type="line"/>
      <point x="505.24528301886795" y="-80.73584905660377"/>
      <point x="504.24528301886795" y="-91.27358490566039"/>
      <point x="504.24528301886795" y="-104.10377358490567" type="curve" smooth="yes"/>
      <point x="504.24528301886795" y="-136.62264150943398"/>
      <point x="513.6132075471698" y="-171.67924528301887"/>
      <point x="529.3962264150944" y="-187.46226415094338" type="curve" smooth="yes"/>
      <point x="546.9339622641509" y="-205.0"/>
      <point x="569.688679245283" y="-210.0"/>
      <point x="601.2264150943396" y="-210.0" type="curve" smooth="yes"/>
      <point x="699.4905660377359" y="-210.0"/>
      <point x="768.3018867924528" y="-112.43396226415094"/>
      <point x="768.3018867924528" y="-9.78301886792454" type="curve" smooth="yes"/>
      <point x="768.3018867924528" y="192.19811320754718"/>
      <point x="768.3018867924528" y="321.63207547169816"/>
      <point x="768.3018867924528" y="490.3584905660377" type="curve" smooth="yes"/>
      <point x="768.3018867924528" y="526.7547169811321"/>
      <point x="728.1981132075472" y="545.9056603773585"/>
    </contour>
    <contour>
      <point x="623.3490566037736" y="754.7075471698113" type="curve"/>
      <point x="623.3490566037736" y="699.877358490566" type="line" smooth="yes"/>
      <point x="623.3490566037736" y="655.2358490566038"/>
      <point x="664.2830188679245" y="627.377358490566"/>
      <point x="722.877358490566" y="627.377358490566" type="curve" smooth="yes"/>
      <point x="749.0283018867924" y="627.377358490566"/>
      <point x="773.8867924528302" y="631.9150943396227"/>
      <point x="793.9150943396226" y="640.2830188679245" type="curve"/>
      <point x="793.9150943396226" y="706.4339622641509" type="line" smooth="yes"/>
      <point x="793.9150943396226" y="751.0754716981131"/>
      <point x="756.8113207547169" y="767.6132075471697"/>
      <point x="702.8773584905659" y="767.6132075471697" type="curve" smooth="yes"/>
      <point x="674.6037735849056" y="767.6132075471697"/>
      <point x="643.3773584905659" y="762.3679245283018"/>
    </contour>
  </outline>
</glyph>
<glyph name="Nj" format="2">
  <advance width="950.0"/>
  <unicode hex="01CB"/>
  <outline>
    <contour>
      <point x="185.99056603773585" y="-2.3396226415094343" type="curve"/>
      <point x="185.99056603773585" y="19.92452830188679"/>
      <point x="185.99056603773585" y="41.77358490566038"/>
      <point x="185.99056603773585" y="67.5754716981132" type="curve"/>
      <point x="185.99056603773585" y="213.6132075471698"/>
      <point x="180.74528301886792" y="362.8018867924528"/>
      <point x="166.25471698113208" y="541.5188679245283" type="curve"/>
      <point x="146.47169811320754" y="511.22641509433964" type="line"/>
      <point x="200.82075471698116" y="511.22641509433964" type="line"/>
      <point x="164.5" y="542.3207547169811" type="line"/>
      <point x="235.68867924528303" y="310.8301886792453"/>
      <point x="357.4528301886793" y="117.87735849056605"/>
      <point x="446.566037735849" y="25.933962264150942" type="curve" smooth="yes"/>
      <point x="473.42452830188677" y="-2.3396226415094343"/>
      <point x="494.45283018867923" y="-10.0"/>
      <point x="539.4622641509435" y="-10.0" type="curve" smooth="yes"/>
      <point x="561.7358490566037" y="-10.0"/>
      <point x="578.7641509433962" y="-6.877358490566038"/>
      <point x="593.9622641509434" y="-2.047169811320755" type="curve"/>
      <point x="587.5943396226414" y="33.83018867924528"/>
      <point x="585.4716981132075" y="71.0"/>
      <point x="585.4716981132075" y="107.4622641509434" type="curve"/>
      <point x="585.4716981132075" y="283.89622641509436"/>
      <point x="585.4716981132075" y="460.3301886792453"/>
      <point x="585.4716981132075" y="631.1037735849056" type="curve"/>
      <point x="585.4716981132075" y="686.6037735849056"/>
      <point x="568.8867924528302" y="708.5849056603773"/>
      <point x="512.2169811320755" y="708.5849056603773" type="curve"/>
      <point x="488.6981132075472" y="708.5849056603773"/>
      <point x="474.79245283018867" y="706.4622641509434"/>
      <point x="464.7169811320755" y="702.9245283018868" type="curve"/>
      <point x="464.7169811320755" y="643.5094339622642"/>
      <point x="464.7169811320755" y="585.0943396226415"/>
      <point x="464.7169811320755" y="524.9716981132076" type="curve"/>
      <point x="464.7169811320755" y="375.12264150943395"/>
      <point x="466.83962264150944" y="273.6792452830189"/>
      <point x="476.7452830188679" y="150.47169811320754" type="curve"/>
      <point x="501.52830188679246" y="173.7641509433962" type="line"/>
      <point x="441.1792452830189" y="173.7641509433962" type="line"/>
      <point x="483.0849056603774" y="153.47169811320754" type="line"/>
      <point x="358.92452830188677" y="325.688679245283"/>
      <point x="298.9622641509434" y="464.377358490566"/>
      <point x="241.5566037735849" y="632.5471698113207" type="curve" smooth="yes"/>
      <point x="221.52830188679243" y="691.2169811320755"/>
      <point x="201.2830188679245" y="708.5849056603773"/>
      <point x="133.49056603773585" y="708.5849056603773" type="curve" smooth="yes"/>
      <point x="104.21698113207549" y="708.5849056603773"/>
      <point x="80.18867924528303" y="706.877358490566"/>
      <point x="53.99056603773585" y="702.0471698113207" type="curve"/>
      <point x="62.11320754716982" y="666.3396226415094"/>
      <point x="65.23584905660378" y="627.6603773584906"/>
      <point x="65.23584905660378" y="592.9245283018868" type="curve"/>
      <point x="65.23584905660378" y="421.9811320754717"/>
      <point x="65.23584905660378" y="250.45283018867926"/>
      <point x="65.23584905660378" y="79.50943396226414" type="curve"/>
      <point x="65.23584905660378" y="20.471698113207545"/>
      <point x="90.31132075471699" y="-7.877358490566038"/>
      <point x="139.56603773584908" y="-7.877358490566038" type="curve"/>
      <point x="156.8867924528302" y="-7.877358490566038"/>
      <point x="175.62264150943398" y="-5.462264150943397"/>
    </contour>
    <contour>
      <point x="761.0849056603773" y="545.9056603773585" type="curve" smooth="yes"/>
      <point x="728.4811320754717" y="545.9056603773585"/>
      <point x="686.3867924528302" y="542.7358490566038"/>
      <point x="651.5849056603773" y="538.7358490566038" type="curve"/>
      <point x="648.1698113207547" y="526.6603773584906"/>
      <point x="646.4622641509434" y="510.4622641509434"/>
      <point x="646.4622641509434" y="491.8490566037736" type="curve" smooth="yes"/>
      <point x="646.4622641509434" y="444.37735849056605"/>
      <point x="659.4150943396227" y="417.9811320754717"/>
      <point x="684.3207547169811" y="417.9811320754717" type="curve" smooth="yes"/>
      <point x="704.0754716981131" y="417.9811320754717"/>
      <point x="728.433962264151" y="423.85849056603774"/>
      <point x="755.0849056603773" y="432.811320754717" type="curve"/>
      <point x="761.0849056603773" y="429.1037735849057" type="line"/>
      <point x="761.0849056603773" y="282.99056603773585"/>
      <point x="761.0849056603773" y="176.16981132075472"/>
      <point x="761.0849056603773" y="30.05660377358491" type="curve" smooth="yes"/>
      <point x="761.0849056603773" y="-15.424528301886795"/>
      <point x="758.4528301886793" y="-50.76415094339623"/>
      <point x="746.5566037735849" y="-80.68867924528303" type="curve"/>
      <point x="735.6320754716982" y="-86.19811320754718"/>
      <point x="723.5377358490566" y="-89.24528301886794"/>
      <point x="707.7358490566038" y="-89.24528301886794" type="curve" smooth="yes"/>
      <point x="676.2735849056604" y="-89.24528301886794"/>
      <point x="656.0283018867925" y="-84.66037735849058"/>
      <point x="627.4905660377359" y="-70.49056603773586" type="curve"/>
      <point x="621.7830188679245" y="-70.49056603773586" type="line"/>
      <point x="618.7830188679245" y="-80.73584905660377"/>
      <point x="617.7830188679245" y="-91.27358490566039"/>
      <point x="617.7830188679245" y="-104.10377358490567" type="curve" smooth="yes"/>
      <point x="617.7830188679245" y="-136.62264150943398"/>
      <point x="627.1509433962265" y="-171.67924528301887"/>
      <point x="642.933962264151" y="-187.46226415094338" type="curve" smooth="yes"/>
      <point x="660.4716981132076" y="-205.0"/>
      <point x="683.2264150943396" y="-210.0"/>
      <point x="714.7641509433963" y="-210.0" type="curve" smooth="yes"/>
      <point x="813.0283018867924" y="-210.0"/>
      <point x="881.8396226415094" y="-112.43396226415094"/>
      <point x="881.8396226415094" y="-9.78301886792454" type="curve" smooth="yes"/>
      <point x="881.8396226415094" y="192.19811320754718"/>
      <point x="881.8396226415094" y="321.63207547169816"/>
      <point x="881.8396226415094" y="490.3584905660377" type="curve" smooth="yes"/>
      <point x="881.8396226415094" y="526.7547169811321"/>
      <point x="841.7358490566037" y="545.9056603773585"/>
    </contour>
    <contour>
      <point x="736.8867924528302" y="754.7075471698113" type="curve"/>
      <point x="736.8867924528302" y="699.877358490566" type="line" smooth="yes"/>
      <point x="736.8867924528302" y="655.2358490566038"/>
      <point x="777.8207547169811" y="627.377358490566"/>
      <point x="836.4150943396226" y="627.377358490566" type="curve" smooth="yes"/>
      <point x="862.566037735849" y="627.377358490566"/>
      <point x="887.4245283018869" y="631.9150943396227"/>
      <point x="907.4528301886793" y="640.2830188679245" type="curve"/>
      <point x="907.4528301886793" y="706.4339622641509" type="line" smooth="yes"/>
      <point x="907.4528301886793" y="751.0754716981131"/>
      <point x="870.3490566037735" y="767.6132075471697"/>
      <point x="816.4150943396227" y="767.6132075471697" type="curve" smooth="yes"/>
      <point x="788.1415094339624" y="767.6132075471697"/>
      <point x="756.9150943396227" y="762.3679245283018"/>
    </contour>
  </outline>
</glyph>
<glyph name="nj" format="2">
  <advance width="900.0"/>
  <unicode hex="01CC"/>
  <outline>
    <contour>
      <point x="704.622641509434" y="545.9056603773585" type="curve" smooth="yes"/>
      <point x="672.0188679245282" y="545.9056603773585"/>
      <point x="629.9245283018869" y="542.7358490566038"/>
      <point x="595.122641509434" y="538.7358490566038" type="curve"/>
      <point x="591.7075471698113" y="526.6603773584906"/>
      <point x="590.0" y="510.4622641509434"/>
      <point x="590.0" y="491.8490566037736" type="curve" smooth="yes"/>
      <point x="590.0" y="444.37735849056605"/>
      <point x="602.9528301886793" y="417.9811320754717"/>
      <point x="627.8584905660377" y="417.9811320754717" type="curve" smooth="yes"/>
      <point x="647.6132075471698" y="417.9811320754717"/>
      <point x="671.9716981132075" y="423.85849056603774"/>
      <point x="698.622641509434" y="432.811320754717" type="curve"/>
      <point x="704.622641509434" y="429.1037735849057" type="line"/>
      <point x="704.622641509434" y="282.99056603773585"/>
      <point x="704.622641509434" y="176.16981132075472"/>
      <point x="704.622641509434" y="30.05660377358491" type="curve" smooth="yes"/>
      <point x="704.622641509434" y="-15.424528301886795"/>
      <point x="701.9905660377359" y="-50.76415094339623"/>
      <point x="690.0943396226415" y="-80.68867924528303" type="curve"/>
      <point x="679.1698113207547" y="-86.19811320754718"/>
      <point x="667.0754716981132" y="-89.24528301886794"/>
      <point x="651.2735849056603" y="-89.24528301886794" type="curve" smooth="yes"/>
      <point x="619.8113207547169" y="-89.24528301886794"/>
      <point x="599.566037735849" y="-84.66037735849058"/>
      <point x="571.0283018867924" y="-70.49056603773586" type="curve"/>
      <point x="565.3207547169811" y="-70.49056603773586" type="line"/>
      <point x="562.3207547169811" y="-80.73584905660377"/>
      <point x="561.3207547169811" y="-91.27358490566039"/>
      <point x="561.3207547169811" y="-104.10377358490567" type="curve" smooth="yes"/>
      <point x="561.3207547169811" y="-136.62264150943398"/>
      <point x="570.688679245283" y="-171.67924528301887"/>
      <point x="586.4716981132075" y="-187.46226415094338" type="curve" smooth="yes"/>
      <point x="604.0094339622641" y="-205.0"/>
      <point x="626.7641509433962" y="-210.0"/>
      <point x="658.3018867924528" y="-210.0" type="curve" smooth="yes"/>
      <point x="756.566037735849" y="-210.0"/>
      <point x="825.377358490566" y="-112.43396226415094"/>
      <point x="825.377358490566" y="-9.78301886792454" type="curve" smooth="yes"/>
      <point x="825.377358490566" y="192.19811320754718"/>
      <point x="825.377358490566" y="321.63207547169816"/>
      <point x="825.377358490566" y="490.3584905660377" type="curve" smooth="yes"/>
      <point x="825.377358490566" y="526.7547169811321"/>
      <point x="785.2735849056604" y="545.9056603773585"/>
    </contour>
    <contour>
      <point x="680.4245283018869" y="754.7075471698113" type="curve"/>
      <point x="680.4245283018869" y="699.877358490566" type="line" smooth="yes"/>
      <point x="680.4245283018869" y="655.2358490566038"/>
      <point x="721.3584905660377" y="627.377358490566"/>
      <point x="779.9528301886793" y="627.377358490566" type="curve" smooth="yes"/>
      <point x="806.1037735849056" y="627.377358490566"/>
      <point x="830.9622641509434" y="631.9150943396227"/>
      <point x="850.9905660377358" y="640.2830188679245" type="curve"/>
      <point x="850.9905660377358" y="706.4339622641509" type="line" smooth="yes"/>
      <point x="850.9905660377358" y="751.0754716981131"/>
      <point x="813.8867924528302" y="767.6132075471697"/>
      <point x="759.9528301886792" y="767.6132075471697" type="curve" smooth="yes"/>
      <point x="731.6792452830189" y="767.6132075471697"/>
      <point x="700.4528301886792" y="762.3679245283018"/>
    </contour>
    <contour>
      <point x="539.4716981132076" y="0.0" type="curve"/>
      <point x="524.933962264151" y="54.32075471698113"/>
      <point x="520.5188679245283" y="89.73584905660377"/>
      <point x="520.5188679245283" y="148.76415094339623" type="curve" smooth="yes"/>
      <point x="520.5188679245283" y="228.4433962264151"/>
      <point x="520.5188679245283" y="308.12264150943395"/>
      <point x="520.5188679245283" y="387.8018867924528" type="curve" smooth="yes"/>
      <point x="520.5188679245283" y="464.2169811320755"/>
      <point x="470.9811320754717" y="547.6132075471698"/>
      <point x="406.83962264150944" y="547.6132075471698" type="curve"/>
      <point x="323.5471698113207" y="547.6132075471698"/>
      <point x="244.25471698113208" y="471.5660377358491"/>
      <point x="202.69811320754715" y="370.47169811320754" type="curve"/>
      <point x="177.62264150943395" y="370.47169811320754" type="line"/>
      <point x="178.49999999999997" y="162.9056603773585" type="line"/>
      <point x="230.03773584905662" y="341.188679245283"/>
      <point x="298.8584905660377" y="414.8301886792453"/>
      <point x="366.50943396226415" y="414.8301886792453" type="curve" smooth="yes"/>
      <point x="387.4528301886793" y="414.8301886792453"/>
      <point x="402.42452830188677" y="402.3490566037736"/>
      <point x="414.1792452830188" y="378.26415094339626" type="curve" smooth="yes"/>
      <point x="397.64150943396226" y="282.7830188679245"/>
      <point x="387.8584905660377" y="209.14150943396226"/>
      <point x="387.8584905660377" y="129.29245283018867" type="curve" smooth="yes"/>
      <point x="387.8584905660377" y="22.87735849056604"/>
      <point x="426.3018867924528" y="-4.830188679245283"/>
      <point x="494.0471698113207" y="-4.830188679245283" type="curve" smooth="yes"/>
      <point x="510.36792452830184" y="-4.830188679245283"/>
      <point x="523.8584905660377" y="-3.1226415094339623"/>
    </contour>
    <contour>
      <point x="196.69811320754715" y="-1.4622641509433967" type="curve"/>
      <point x="196.69811320754715" y="117.45283018867926"/>
      <point x="196.69811320754715" y="259.4245283018868"/>
      <point x="196.69811320754715" y="395.3207547169811" type="curve" smooth="yes"/>
      <point x="196.69811320754715" y="506.877358490566"/>
      <point x="154.51886792452828" y="541.9056603773585"/>
      <point x="95.0943396226415" y="541.9056603773585" type="curve"/>
      <point x="83.0188679245283" y="541.9056603773585"/>
      <point x="70.65094339622641" y="539.4905660377358"/>
      <point x="58.57547169811321" y="536.7830188679245" type="curve"/>
      <point x="71.11320754716982" y="511.9056603773585"/>
      <point x="75.9433962264151" y="478.3867924528302"/>
      <point x="75.9433962264151" y="441.29245283018867" type="curve" smooth="yes"/>
      <point x="75.9433962264151" y="321.5188679245283"/>
      <point x="75.9433962264151" y="203.5754716981132"/>
      <point x="75.9433962264151" y="68.23584905660377" type="curve" smooth="yes"/>
      <point x="75.9433962264151" y="24.056603773584904"/>
      <point x="98.18867924528303" y="-3.5849056603773586"/>
      <point x="162.64150943396226" y="-3.5849056603773586" type="curve" smooth="yes"/>
      <point x="174.1320754716981" y="-3.5849056603773586"/>
      <point x="183.08490566037736" y="-3.5849056603773586"/>
    </contour>
  </outline>
</glyph>
<glyph name="dotlessj" format="2">
  <advance width="350.0"/>
  <unicode hex="0237"/>
  <anchor x="211.55660377358492" y="546.9056603773585" name="top"/>
  <outline>
    <contour>
      <point x="150.47169811320754" y="545.9056603773585" type="curve" smooth="yes"/>
      <point x="117.8679245283019" y="545.9056603773585"/>
      <point x="75.77358490566037" y="542.7358490566038"/>
      <point x="40.97169811320755" y="538.7358490566038" type="curve"/>
      <point x="37.55660377358491" y="526.6603773584906"/>
      <point x="35.84905660377359" y="510.4622641509434"/>
      <point x="35.84905660377359" y="491.8490566037736" type="curve" smooth="yes"/>
      <point x="35.84905660377359" y="444.37735849056605"/>
      <point x="48.801886792452834" y="417.9811320754717"/>
      <point x="73.70754716981132" y="417.9811320754717" type="curve" smooth="yes"/>
      <point x="93.46226415094338" y="417.9811320754717"/>
      <point x="117.82075471698113" y="423.85849056603774"/>
      <point x="144.47169811320754" y="432.811320754717" type="curve"/>
      <point x="150.47169811320754" y="429.1037735849057" type="line"/>
      <point x="150.47169811320754" y="282.99056603773585"/>
      <point x="150.47169811320754" y="176.16981132075472"/>
      <point x="150.47169811320754" y="30.05660377358491" type="curve" smooth="yes"/>
      <point x="150.47169811320754" y="-15.424528301886795"/>
      <point x="147.83962264150944" y="-50.76415094339623"/>
      <point x="135.9433962264151" y="-80.68867924528303" type="curve"/>
      <point x="125.01886792452831" y="-86.19811320754718"/>
      <point x="112.9245283018868" y="-89.24528301886794"/>
      <point x="97.12264150943398" y="-89.24528301886794" type="curve" smooth="yes"/>
      <point x="65.66037735849056" y="-89.24528301886794"/>
      <point x="45.41509433962264" y="-84.66037735849058"/>
      <point x="16.87735849056604" y="-70.49056603773586" type="curve"/>
      <point x="11.169811320754718" y="-70.49056603773586" type="line"/>
      <point x="8.169811320754718" y="-80.73584905660377"/>
      <point x="7.169811320754717" y="-91.27358490566039"/>
      <point x="7.169811320754717" y="-104.10377358490567" type="curve" smooth="yes"/>
      <point x="7.169811320754717" y="-136.62264150943398"/>
      <point x="16.537735849056602" y="-171.67924528301887"/>
      <point x="32.32075471698113" y="-187.46226415094338" type="curve" smooth="yes"/>
      <point x="49.85849056603774" y="-205.0"/>
      <point x="72.61320754716981" y="-210.0"/>
      <point x="104.15094339622641" y="-210.0" type="curve" smooth="yes"/>
      <point x="202.41509433962264" y="-210.0"/>
      <point x="271.22641509433964" y="-112.43396226415094"/>
      <point x="271.22641509433964" y="-9.78301886792454" type="curve" smooth="yes"/>
      <point x="271.22641509433964" y="192.19811320754718"/>
      <point x="271.22641509433964" y="321.63207547169816"/>
      <point x="271.22641509433964" y="490.3584905660377" type="curve" smooth="yes"/>
      <point x="271.22641509433964" y="526.7547169811321"/>
      <point x="231.12264150943398" y="545.9056603773585"/>
    </contour>
  </outline>
</glyph>
<glyph name="nhookleft" format="2">
  <advance width="600.0"/>
  <unicode hex="0272"/>
  <outline>
    <contour>
      <point x="16.216981132075475" y="-65.23584905660378" type="curve" smooth="yes"/>
      <point x="-8.415094339622641" y="-65.23584905660378"/>
      <point x="-17.12264150943396" y="-61.06603773584906"/>
      <point x="-36.41509433962264" y="-52.0188679245283" type="curve"/>
      <point x="-40.41509433962264" y="-52.0188679245283" type="line"/>
      <point x="-43.12264150943396" y="-65.09433962264151"/>
      <point x="-44.12264150943396" y="-77.75471698113208"/>
      <point x="-44.12264150943396" y="-91.12264150943396" type="curve" smooth="yes"/>
      <point x="-44.12264150943396" y="-131.83962264150944"/>
      <point x="-34.75471698113208" y="-157.5754716981132"/>
      <point x="-17.556603773584907" y="-174.77358490566039" type="curve" smooth="yes"/>
      <point x="-6.679245283018868" y="-185.6509433962264"/>
      <point x="8.660377358490564" y="-191.6509433962264"/>
      <point x="24.70754716981132" y="-191.6509433962264" type="curve" smooth="yes"/>
      <point x="33.24528301886792" y="-191.6509433962264" type="line" smooth="yes"/>
      <point x="130.02033181521224" y="-191.6509433962264"/>
      <point x="196.69811320754718" y="-114.59433962264151"/>
      <point x="196.69811320754718" y="-10.0" type="curve" smooth="yes"/>
      <point x="196.69811320754718" y="7.660377358490566" type="line" smooth="yes"/>
      <point x="196.69811320754718" y="26.49056603773585"/>
      <point x="133.04716981132074" y="67.28301886792453"/>
      <point x="75.9433962264151" y="67.28301886792453" type="curve"/>
      <point x="75.9433962264151" y="31.37735849056604" type="line" smooth="yes"/>
      <point x="75.9433962264151" y="-34.867924528301884"/>
      <point x="57.14150943396226" y="-65.23584905660378"/>
    </contour>
    <component base="n"/>
  </outline>
</glyph>
<glyph name="ringhalfrightmod" format="2">
  <advance width="200.0"/>
  <unicode hex="02BE"/>
  <outline>
    <contour>
      <point x="52.90566037735849" y="596.0943396226415" type="curve" smooth="yes"/>
      <point x="121.39622641509433" y="596.0943396226415"/>
      <point x="178.47169811320757" y="649.2924528301887"/>
      <point x="178.47169811320757" y="724.7358490566037" type="curve" smooth="yes"/>
      <point x="178.47169811320757" y="731.4433962264151" type="line" smooth="yes"/>
      <point x="178.47169811320757" y="804.5943396226414"/>
      <point x="123.98113207547169" y="853.9622641509434"/>
      <point x="50.075471698113205" y="853.9622641509434" type="curve"/>
      <point x="43.0" y="836.1792452830189"/>
      <point x="38.75471698113208" y="818.6886792452831"/>
      <point x="38.75471698113208" y="801.0283018867924" type="curve" smooth="yes"/>
      <point x="38.75471698113208" y="790.0754716981132"/>
      <point x="42.58490566037736" y="783.8301886792453"/>
      <point x="52.12264150943396" y="783.8301886792453" type="curve" smooth="yes"/>
      <point x="66.3679245283019" y="783.8301886792453"/>
      <point x="79.0754716981132" y="781.5377358490566"/>
      <point x="88.0754716981132" y="774.4150943396227" type="curve"/>
      <point x="97.75471698113208" y="765.2452830188679"/>
      <point x="101.21698113207547" y="752.9056603773585"/>
      <point x="101.21698113207547" y="735.3962264150944" type="curve" smooth="yes"/>
      <point x="101.21698113207547" y="730.8113207547169" type="line" smooth="yes"/>
      <point x="101.21698113207547" y="698.0094339622642"/>
      <point x="78.87735849056604" y="678.9622641509434"/>
      <point x="45.613207547169814" y="676.8396226415094" type="curve"/>
      <point x="39.24528301886792" y="656.2264150943396"/>
      <point x="35.70754716981132" y="634.9056603773585"/>
      <point x="35.70754716981132" y="619.245283018868" type="curve" smooth="yes"/>
      <point x="35.70754716981132" y="601.6320754716982"/>
      <point x="40.5377358490566" y="596.0943396226415"/>
    </contour>
  </outline>
</glyph>
<glyph name="tildecomb" format="2">
  <unicode hex="0303"/>
  <anchor x="0.0" y="544.9056603773586" name="_top"/>
  <anchor x="-0.7075471698113207" y="752.9716981132076" name="top"/>
  <outline>
    <contour>
      <point x="92.49056603773585" y="743.9905660377358" type="curve" smooth="yes"/>
      <point x="25.70754716981132" y="743.9905660377358"/>
      <point x="-16.858490566037737" y="796.2075471698113"/>
      <point x="-97.85849056603773" y="796.2075471698113" type="curve" smooth="yes"/>
      <point x="-146.56603773584908" y="796.2075471698113"/>
      <point x="-172.44339622641508" y="775.2547169811321"/>
      <point x="-185.56603773584905" y="743.0566037735849" type="curve" smooth="yes"/>
      <point x="-191.27358490566039" y="730.2264150943396"/>
      <point x="-196.81132075471697" y="707.9056603773585"/>
      <point x="-196.81132075471697" y="677.5094339622642" type="curve" smooth="yes"/>
      <point x="-196.81132075471697" y="664.2641509433962"/>
      <point x="-195.10377358490564" y="646.6509433962264"/>
      <point x="-190.688679245283" y="633.4056603773585" type="curve"/>
      <point x="-184.68867924528303" y="633.4056603773585" type="line"/>
      <point x="-153.32075471698113" y="669.5754716981132"/>
      <point x="-130.1509433962264" y="683.4528301886792"/>
      <point x="-92.49056603773585" y="683.4528301886792" type="curve" smooth="yes"/>
      <point x="-25.70754716981132" y="683.4528301886792"/>
      <point x="16.858490566037737" y="630.6509433962264"/>
      <point x="97.85849056603773" y="630.6509433962264" type="curve" smooth="yes"/>
      <point x="146.56603773584908" y="630.6509433962264"/>
      <point x="172.1509433962264" y="651.6037735849056"/>
      <point x="185.56603773584905" y="684.3867924528303" type="curve" smooth="yes"/>
      <point x="191.27358490566039" y="697.2169811320754"/>
      <point x="196.81132075471697" y="719.5377358490565"/>
      <point x="196.81132075471697" y="749.933962264151" type="curve" smooth="yes"/>
      <point x="196.81132075471697" y="763.1792452830189"/>
      <point x="195.10377358490564" y="780.7924528301886"/>
      <point x="190.688679245283" y="794.0377358490566" type="curve"/>
      <point x="184.68867924528303" y="794.0377358490566" type="line"/>
      <point x="153.32075471698113" y="757.867924528302"/>
      <point x="130.1509433962264" y="743.9905660377358"/>
    </contour>
  </outline>
</glyph>
<glyph name="ringcomb" format="2">
  <unicode hex="030A"/>
  <anchor x="0.0" y="544.9056603773585" name="_top"/>
  <anchor x="0.0" y="837.0849056603774" name="top"/>
  <outline>
    <contour>
      <point x="3.0" y="853.9622641509434" type="curve" smooth="yes"/>
      <point x="-74.32075471698113" y="853.9622641509434"/>
      <point x="-130.22641509433961" y="801.4716981132075"/>
      <point x="-130.22641509433961" y="726.0283018867924" type="curve" smooth="yes"/>
      <point x="-130.22641509433961" y="719.3207547169811" type="line" smooth="yes"/>
      <point x="-130.22641509433961" y="645.4622641509434"/>
      <point x="-76.32075471698113" y="596.0943396226415"/>
      <point x="-3.0" y="596.0943396226415" type="curve" smooth="yes"/>
      <point x="74.32075471698113" y="596.0943396226415"/>
      <point x="130.22641509433961" y="649.2924528301887"/>
      <point x="130.22641509433961" y="724.7358490566037" type="curve" smooth="yes"/>
      <point x="130.22641509433961" y="731.4433962264151" type="line" smooth="yes"/>
      <point x="130.22641509433961" y="804.5943396226414"/>
      <point x="76.90566037735849" y="853.9622641509434"/>
    </contour>
    <contour>
      <point x="3.5849056603773586" y="783.8301886792453" type="curve" smooth="yes"/>
      <point x="18.41509433962264" y="783.8301886792453"/>
      <point x="28.830188679245285" y="780.4150943396227"/>
      <point x="39.5377358490566" y="771.4622641509434" type="curve"/>
      <point x="48.632075471698116" y="762.2924528301887"/>
      <point x="52.97169811320755" y="749.7830188679245"/>
      <point x="52.97169811320755" y="734.688679245283" type="curve" smooth="yes"/>
      <point x="52.97169811320755" y="727.9811320754717" type="line" smooth="yes"/>
      <point x="52.97169811320755" y="697.3018867924529"/>
      <point x="31.801886792452834" y="676.8396226415094"/>
      <point x="-1.4622641509433967" y="676.8396226415094" type="curve" smooth="yes"/>
      <point x="-17.70754716981132" y="676.8396226415094"/>
      <point x="-30.245283018867926" y="679.5471698113208"/>
      <point x="-42.367924528301884" y="689.2075471698113" type="curve"/>
      <point x="-49.339622641509436" y="697.6698113207547"/>
      <point x="-52.97169811320755" y="710.1792452830189"/>
      <point x="-52.97169811320755" y="723.1509433962264" type="curve" smooth="yes"/>
      <point x="-52.97169811320755" y="729.8584905660377" type="line" smooth="yes"/>
      <point x="-52.97169811320755" y="764.0754716981131"/>
      <point x="-32.216981132075475" y="783.8301886792453"/>
    </contour>
  </outline>
</glyph>
<glyph name="horncomb" format="2">
  <unicode hex="031B"/>
  <anchor x="0.0" y="535.9056603773585" name="_horn"/>
  <outline>
    <contour>
      <point x="51.26415094339623" y="681.0" type="curve"/>
      <point x="58.31132075471699" y="657.1698113207548"/>
      <point x="60.773584905660385" y="636.1698113207547"/>
      <point x="60.773584905660385" y="611.0" type="curve" smooth="yes"/>
      <point x="60.773584905660385" y="575.5377358490566"/>
      <point x="51.72641509433963" y="558.6603773584906"/>
      <point x="38.26415094339623" y="550.1981132075472" type="curve" smooth="yes"/>
      <point x="25.801886792452834" y="542.0283018867925"/>
      <point x="12.632075471698114" y="539.7358490566038"/>
      <point x="1.0" y="539.7358490566038" type="curve"/>
      <point x="1.0" y="518.245283018868"/>
      <point x="1.0" y="506.87735849056605"/>
      <point x="1.0" y="491.50943396226415" type="curve"/>
      <point x="7.0" y="491.50943396226415"/>
      <point x="13.0" y="491.50943396226415"/>
      <point x="19.0" y="491.50943396226415" type="curve" smooth="yes"/>
      <point x="49.320754716981135" y="491.50943396226415"/>
      <point x="79.4433962264151" y="498.2169811320755"/>
      <point x="110.93396226415095" y="518.3396226415094" type="curve" smooth="yes"/>
      <point x="144.30188679245285" y="540.0471698113207"/>
      <point x="164.13207547169813" y="574.877358490566"/>
      <point x="164.13207547169813" y="631.0" type="curve" smooth="yes"/>
      <point x="164.13207547169813" y="671.0"/>
      <point x="144.47169811320757" y="691.0"/>
      <point x="104.61320754716982" y="691.0" type="curve" smooth="yes"/>
      <point x="81.2924528301887" y="691.0"/>
      <point x="64.50943396226415" y="687.2924528301887"/>
    </contour>
  </outline>
</glyph>
<glyph name="emdash" format="2">
  <advance width="600.0"/>
  <unicode hex="2014"/>
  <outline>
    <contour>
      <point x="-20.0" y="359.6698113207547" type="line"/>
      <point x="-20.0" y="354.54716981132077"/>
      <point x="-20.0" y="349.1320754716981"/>
      <point x="-20.0" y="343.3018867924529" type="curve" smooth="yes"/>
      <point x="-20.0" y="260.4528301886793"/>
      <point x="4.535821711787735" y="238.91509433962264"/>
      <point x="61.556603773584904" y="238.91509433962264" type="curve" smooth="yes"/>
      <point x="615.0471698113207" y="238.91509433962264" type="line"/>
      <point x="617.877358490566" y="254.65094339622638"/>
      <point x="620.0" y="272.09433962264154"/>
      <point x="620.0" y="286.41509433962267" type="curve" smooth="yes"/>
      <point x="620.0" y="339.54716981132077"/>
      <point x="606.8018867924528" y="359.6698113207547"/>
      <point x="562.5" y="359.6698113207547" type="curve"/>
    </contour>
  </outline>
</glyph>
<glyph name="second" format="2">
  <advance width="450.0"/>
  <unicode hex="2033"/>
  <outline>
    <contour>
      <point x="65.24528301886792" y="434.8301886792453" type="curve" smooth="yes"/>
      <point x="86.85849056603774" y="434.8301886792453"/>
      <point x="111.47169811320754" y="438.95283018867923"/>
      <point x="132.1320754716981" y="458.1981132075471" type="curve" smooth="yes"/>
      <point x="191.0377358490566" y="512.8584905660377"/>
      <point x="246.9056603773585" y="637.8962264150944"/>
      <point x="246.9056603773585" y="704.8962264150944" type="curve" smooth="yes"/>
      <point x="246.9056603773585" y="744.1698113207547"/>
      <point x="223.58490566037736" y="755.7075471698113"/>
      <point x="191.97169811320754" y="755.7075471698113" type="curve" smooth="yes"/>
      <point x="162.35849056603772" y="755.7075471698113"/>
      <point x="147.6509433962264" y="753.4150943396227"/>
      <point x="127.28301886792454" y="748.4150943396227" type="curve"/>
      <point x="108.69811320754717" y="639.811320754717"/>
      <point x="63.4056603773585" y="530.6603773584906"/>
      <point x="5.896226415094343" y="448.66037735849056" type="curve"/>
      <point x="24.556603773584904" y="437.8301886792453"/>
      <point x="41.50943396226415" y="434.8301886792453"/>
    </contour>
    <contour>
      <point x="257.79245283018867" y="434.8301886792453" type="curve" smooth="yes"/>
      <point x="279.40566037735846" y="434.8301886792453"/>
      <point x="304.0188679245283" y="438.95283018867923"/>
      <point x="324.6792452830189" y="458.1981132075471" type="curve" smooth="yes"/>
      <point x="383.58490566037733" y="512.8584905660377"/>
      <point x="439.4528301886793" y="637.8962264150944"/>
      <point x="439.45283018867923" y="704.8962264150944" type="curve" smooth="yes"/>
      <point x="439.4528301886793" y="744.1698113207547"/>
      <point x="416.1320754716981" y="755.7075471698113"/>
      <point x="384.5188679245283" y="755.7075471698113" type="curve" smooth="yes"/>
      <point x="354.9056603773585" y="755.7075471698113"/>
      <point x="340.1981132075472" y="753.4150943396227"/>
      <point x="319.8301886792453" y="748.4150943396227" type="curve"/>
      <point x="302.66037735849056" y="639.1037735849056"/>
      <point x="257.3679245283019" y="529.9528301886792"/>
      <point x="198.4433962264151" y="448.66037735849056" type="curve"/>
      <point x="217.10377358490567" y="437.8301886792453"/>
      <point x="234.05660377358492" y="434.8301886792453"/>
    </contour>
  </outline>
</glyph>
<glyph name="fraction" format="2">
  <advance width="600.0"/>
  <unicode hex="2044"/>
  <outline>
    <contour>
      <point x="353.4811320754717" y="411.0" type="curve"/>
      <point x="368.14150943396226" y="403.4622641509434"/>
      <point x="386.6320754716981" y="399.6320754716981"/>
      <point x="408.24528301886795" y="399.6320754716981" type="curve" smooth="yes"/>
      <point x="431.9811320754717" y="399.6320754716981"/>
      <point x="446.47169811320754" y="403.33962264150944"/>
      <point x="463.0849056603774" y="422.7830188679245" type="curve" smooth="yes"/>
      <point x="516.3301886792453" y="483.9811320754717"/>
      <point x="552.6415094339623" y="590.9433962264151"/>
      <point x="552.6415094339623" y="659.6509433962265" type="curve" smooth="yes"/>
      <point x="552.6415094339623" y="693.9245283018868"/>
      <point x="538.5660377358491" y="710.9528301886793"/>
      <point x="499.3867924528302" y="710.9528301886793" type="curve" smooth="yes"/>
      <point x="476.4811320754717" y="710.9528301886793"/>
      <point x="456.6981132075472" y="708.2452830188679"/>
      <point x="438.5" y="705.2452830188679" type="curve"/>
      <point x="433.03773584905656" y="600.4905660377358"/>
      <point x="403.2075471698113" y="503.46226415094344"/>
    </contour>
    <contour>
      <point x="246.5188679245283" y="288.70754716981133" type="curve"/>
      <point x="231.85849056603774" y="296.24528301886795"/>
      <point x="213.3679245283019" y="300.07547169811323"/>
      <point x="191.75471698113205" y="300.07547169811323" type="curve" smooth="yes"/>
      <point x="168.01886792452828" y="300.07547169811323"/>
      <point x="153.52830188679246" y="296.3679245283019"/>
      <point x="136.9150943396226" y="276.92452830188677" type="curve" smooth="yes"/>
      <point x="83.66981132075472" y="215.7264150943396"/>
      <point x="47.35849056603773" y="108.76415094339623"/>
      <point x="47.35849056603774" y="40.056603773584904" type="curve" smooth="yes"/>
      <point x="47.358490566037744" y="5.783018867924528"/>
      <point x="61.43396226415095" y="-11.245283018867925"/>
      <point x="100.61320754716982" y="-11.245283018867925" type="curve" smooth="yes"/>
      <point x="123.51886792452831" y="-11.245283018867925"/>
      <point x="143.30188679245285" y="-8.537735849056602"/>
      <point x="161.5" y="-5.537735849056603" type="curve"/>
      <point x="166.96226415094338" y="99.21698113207547"/>
      <point x="196.79245283018867" y="196.24528301886792"/>
    </contour>
  </outline>
</glyph>
<glyph name="commercialminussign" format="2">
  <advance width="600.0"/>
  <unicode hex="2052"/>
  <outline>
    <contour>
      <point x="147.4622641509434" y="694.8584905660377" type="curve" smooth="yes"/>
      <point x="80.80188679245283" y="694.8584905660377"/>
      <point x="37.26415094339623" y="643.6132075471698"/>
      <point x="37.26415094339623" y="568.2452830188679" type="curve" smooth="yes"/>
      <point x="37.26415094339623" y="564.2452830188679" type="line" smooth="yes"/>
      <point x="37.26415094339623" y="492.58490566037733"/>
      <point x="77.80188679245283" y="447.33962264150944"/>
      <point x="141.75471698113208" y="447.33962264150944" type="curve" smooth="yes"/>
      <point x="210.12264150943395" y="447.33962264150944"/>
      <point x="252.66037735849056" y="496.0"/>
      <point x="252.66037735849056" y="571.1981132075472" type="curve" smooth="yes"/>
      <point x="252.66037735849056" y="575.1981132075472" type="line" smooth="yes"/>
      <point x="252.66037735849056" y="645.3207547169811"/>
      <point x="208.7075471698113" y="694.8584905660377"/>
    </contour>
    <contour>
      <point x="450.4622641509434" y="252.6603773584906" type="curve" smooth="yes"/>
      <point x="384.0943396226415" y="252.6603773584906"/>
      <point x="340.5566037735849" y="201.41509433962264"/>
      <point x="340.5566037735849" y="126.04716981132074" type="curve" smooth="yes"/>
      <point x="340.5566037735849" y="122.33962264150944" type="line" smooth="yes"/>
      <point x="340.5566037735849" y="50.386792452830186"/>
      <point x="380.8018867924528" y="5.141509433962263"/>
      <point x="445.0471698113207" y="5.141509433962263" type="curve" smooth="yes"/>
      <point x="513.1226415094341" y="5.141509433962263"/>
      <point x="555.9528301886793" y="53.80188679245283"/>
      <point x="555.9528301886793" y="129.0" type="curve" smooth="yes"/>
      <point x="555.9528301886793" y="133.0" type="line" smooth="yes"/>
      <point x="555.9528301886793" y="203.12264150943398"/>
      <point x="511.7075471698114" y="252.6603773584906"/>
    </contour>
    <contour>
      <point x="341.7830188679245" y="402.22641509433964" type="curve"/>
      <point x="356.44339622641513" y="394.688679245283"/>
      <point x="374.9339622641509" y="390.85849056603774"/>
      <point x="396.54716981132077" y="390.85849056603774" type="curve" smooth="yes"/>
      <point x="420.2830188679245" y="390.85849056603774"/>
      <point x="434.7735849056604" y="394.5660377358491"/>
      <point x="451.3867924528302" y="414.00943396226415" type="curve" smooth="yes"/>
      <point x="509.60377358490564" y="479.88679245283015"/>
      <point x="552.6415094339623" y="593.8679245283018"/>
      <point x="552.6415094339623" y="659.6509433962265" type="curve" smooth="yes"/>
      <point x="552.6415094339623" y="693.9245283018868"/>
      <point x="538.566037735849" y="710.9528301886793"/>
      <point x="499.38679245283015" y="710.9528301886793" type="curve" smooth="yes"/>
      <point x="476.48113207547175" y="710.9528301886793"/>
      <point x="456.6981132075472" y="708.2452830188679"/>
      <point x="438.5" y="705.2452830188679" type="curve"/>
      <point x="429.8207547169811" y="601.0754716981131"/>
      <point x="391.50943396226415" y="494.688679245283"/>
    </contour>
    <contour>
      <point x="258.2169811320755" y="297.4811320754717" type="curve"/>
      <point x="243.5566037735849" y="305.01886792452825"/>
      <point x="225.06603773584905" y="308.84905660377353"/>
      <point x="203.45283018867923" y="308.84905660377353" type="curve" smooth="yes"/>
      <point x="179.71698113207546" y="308.84905660377353"/>
      <point x="165.22641509433961" y="305.14150943396226"/>
      <point x="148.6132075471698" y="285.6981132075471" type="curve" smooth="yes"/>
      <point x="88.93396226415095" y="217.18867924528303"/>
      <point x="47.35849056603774" y="104.9622641509434"/>
      <point x="47.35849056603774" y="40.056603773584904" type="curve" smooth="yes"/>
      <point x="47.35849056603774" y="5.783018867924528"/>
      <point x="61.43396226415094" y="-11.245283018867925"/>
      <point x="100.61320754716982" y="-11.245283018867925" type="curve" smooth="yes"/>
      <point x="123.5188679245283" y="-11.245283018867925"/>
      <point x="143.30188679245282" y="-8.537735849056602"/>
      <point x="161.5" y="-5.537735849056603" type="curve"/>
      <point x="170.47169811320754" y="97.16981132075472"/>
      <point x="208.49056603773585" y="205.0188679245283"/>
    </contour>
  </outline>
</glyph>
